SplineFontDB: 3.2
FontName: CSLSans-ExtraLightItalic
FullName: CSL Sans ExtraLight Italic
FamilyName: CSL Sans ExtraLight
Weight: Extra-Light
Copyright: Copyright (c) 2019 IBM Corp. with Reserved Font Name "Plex"\n\nCopyright (c) 2019 The HMI Sans Project Authors (https://github.com/somegoodpixels/hmi-sans)\nCopyright (c) 2021 The CSL Sans Project Authors (https://github.com/cssobral2013/CSL-Sans)\nThis Font Software is licensed under the SIL Open Font License, Version 1.1.\nThis license is copied below, and is also available with a FAQ at: http://scripts.sil.org/OFL.
Version: 2.001;January 31, 2022;FontCreator 14.0.0.2808 64-bit
ItalicAngle: -11.3
UnderlinePosition: -114
UnderlineWidth: 26
Ascent: 800
Descent: 200
InvalidEm: 0
sfntRevision: 0x00020041
LayerCount: 2
Layer: 0 1 "Back" 1
Layer: 1 1 "Fore" 0
XUID: [1021 651 537639564 20857]
StyleMap: 0x0001
FSType: 0
OS2Version: 4
OS2_WeightWidthSlopeOnly: 0
OS2_UseTypoMetrics: 0
CreationTime: 1550580413
ModificationTime: 1643660357
PfmFamily: 81
TTFWeight: 200
TTFWidth: 5
LineGap: 0
VLineGap: 0
Panose: 0 0 3 0 0 0 0 0 0 0
OS2TypoAscent: 1000
OS2TypoAOffset: 0
OS2TypoDescent: -220
OS2TypoDOffset: 0
OS2TypoLinegap: 0
OS2WinAscent: 1000
OS2WinAOffset: 0
OS2WinDescent: 220
OS2WinDOffset: 0
HheadAscent: 1000
HheadAOffset: 0
HheadDescent: -220
HheadDOffset: 0
OS2SubXSize: 650
OS2SubYSize: 600
OS2SubXOff: -15
OS2SubYOff: 75
OS2SupXSize: 650
OS2SupYSize: 600
OS2SupXOff: 70
OS2SupYOff: 350
OS2StrikeYSize: 26
OS2StrikeYPos: 304
OS2CapHeight: 698
OS2XHeight: 508
OS2Vendor: 'UKWN'
OS2CodePages: 2000019f.00000000
OS2UnicodeRanges: 20000287.10000013.00000000.00000000
Lookup: 258 0 0 "'kern' Kerning Horizontal lookup 0" { "'kern' Kerning Horizontal lookup 0 per glyph data 0"  "'kern' Kerning Horizontal lookup 0 kerning class 1"  "'kern' Kerning Horizontal lookup 0 kerning class 2"  "'kern' Kerning Horizontal lookup 0 kerning class 3"  } ['kern' ('DFLT' <'dflt' > 'cyrl' <'dflt' > 'grek' <'dflt' > 'latn' <'dflt' > ) ]
DEI: 91125

StartChar: .notdef
Encoding: 65536 -1 0
Width: 472
Flags: W
LayerCount: 2
Fore
SplineSet
440 0 m 1,0,-1
 440 780 l 1,1,-1
 32 780 l 1,2,-1
 32 0 l 1,3,-1
 440 0 l 1,0,-1
414 26 m 1,4,-1
 58 26 l 1,5,-1
 58 754 l 1,6,-1
 414 754 l 1,7,-1
 414 26 l 1,4,-1
EndSplineSet
EndChar

StartChar: exclam
Encoding: 33 33 2
Width: 253
GlyphClass: 1
Flags: W
LayerCount: 2
Fore
SplineSet
120 178 m 1,0,-1
 181 434 l 1,1,-1
 233 698 l 1,2,-1
 196 698 l 1,3,-1
 144 434 l 1,4,-1
 102 178 l 1,5,-1
 120 178 l 1,0,-1
77 -7 m 0,6,7
 110 -7 110 -7 115 22 c 0,8,9
 118 36 118 36 118 44 c 0,10,11
 118 68 118 68 87 68 c 0,12,13
 54 68 54 68 49 39 c 0,14,15
 46 25 46 25 46 17 c 0,16,17
 46 -7 46 -7 77 -7 c 0,6,7
EndSplineSet
EndChar

StartChar: quotedbl
Encoding: 34 34 3
Width: 382
GlyphClass: 7
Flags: W
LayerCount: 2
Fore
SplineSet
173 483 m 1,0,-1
 224 740 l 1,1,-1
 192 740 l 1,2,-1
 141 483 l 1,3,-1
 173 483 l 1,0,-1
331 483 m 1,4,-1
 382 740 l 1,5,-1
 350 740 l 1,6,-1
 299 483 l 1,7,-1
 331 483 l 1,4,-1
EndSplineSet
EndChar

StartChar: numbersign
Encoding: 35 35 4
Width: 703
GlyphClass: 5
Flags: W
LayerCount: 2
Fore
SplineSet
345 0 m 1,0,-1
 426 216 l 1,1,-1
 575 216 l 1,2,-1
 581 245 l 1,3,-1
 436 245 l 1,4,-1
 513 453 l 1,5,-1
 662 453 l 1,6,-1
 667 482 l 1,7,-1
 524 482 l 1,8,-1
 604 698 l 1,9,-1
 572 698 l 1,10,-1
 492 482 l 1,11,-1
 318 482 l 1,12,-1
 399 698 l 1,13,-1
 367 698 l 1,14,-1
 286 482 l 1,15,-1
 137 482 l 1,16,-1
 131 453 l 1,17,-1
 276 453 l 1,18,-1
 200 245 l 1,19,-1
 50 245 l 1,20,-1
 45 216 l 1,21,-1
 188 216 l 1,22,-1
 108 0 l 1,23,-1
 140 0 l 1,24,-1
 220 216 l 1,25,-1
 394 216 l 1,26,-1
 313 0 l 1,27,-1
 345 0 l 1,0,-1
404 245 m 1,28,-1
 231 245 l 1,29,-1
 308 453 l 1,30,-1
 481 453 l 1,31,-1
 404 245 l 1,28,-1
EndSplineSet
EndChar

StartChar: dollar
Encoding: 36 36 5
Width: 546
Flags: W
LayerCount: 2
Fore
SplineSet
209 -82 m 1,0,-1
 181 -82 l 1,1,-1
 354 780 l 1,2,-1
 382 780 l 1,3,-1
 209 -82 l 1,0,-1
246 0 m 0,4,5
 99 0 99 0 17 112 c 1,6,-1
 44 133 l 1,7,8
 79 84 79 84 127.5 58 c 128,-1,9
 176 32 176 32 247 32 c 0,10,11
 403 35 403 35 422 154 c 0,12,13
 424 173 424 173 424 190 c 0,14,15
 424 284 424 284 303 331 c 2,16,-1
 242 355 l 1,17,18
 99 416 99 416 99 526 c 0,19,20
 99 585 99 585 126.5 623.5 c 128,-1,21
 154 662 154 662 202 680 c 128,-1,22
 250 698 250 698 309 698 c 0,23,24
 451 698 451 698 514 601 c 1,25,-1
 487 582 l 1,26,27
 428 666 428 666 308 666 c 0,28,29
 228 666 228 666 182.5 632.5 c 128,-1,30
 137 599 137 599 135 525 c 0,31,32
 135 431 135 431 256 386 c 0,33,34
 331 356 331 356 375 330.5 c 128,-1,35
 419 305 419 305 441 266 c 0,36,37
 460 232 460 232 460 190 c 0,38,39
 460 92 460 92 400 46 c 128,-1,40
 340 0 340 0 246 0 c 0,4,5
EndSplineSet
EndChar

StartChar: percent
Encoding: 37 37 6
Width: 887
Flags: W
LayerCount: 2
Fore
SplineSet
177 0 m 1,0,-1
 782 698 l 1,1,-1
 745 698 l 1,2,-1
 140 0 l 1,3,-1
 177 0 l 1,0,-1
237 324 m 0,4,5
 330 324 330 324 377 409 c 0,6,7
 417 481 417 481 417 576 c 0,8,9
 417 634 417 634 386.5 672 c 128,-1,10
 356 710 356 710 299 710 c 0,11,12
 206 710 206 710 159 625 c 0,13,14
 119 553 119 553 119 458 c 0,15,16
 119 400 119 400 149.5 362 c 128,-1,17
 180 324 180 324 237 324 c 0,4,5
239 349 m 0,18,19
 192 349 192 349 170.5 379.5 c 128,-1,20
 149 410 149 410 149 455 c 0,21,22
 149 478 149 478 153.5 500 c 128,-1,23
 158 522 158 522 162 542 c 0,24,25
 191 685 191 685 297 685 c 0,26,27
 344 685 344 685 365.5 654.5 c 128,-1,28
 387 624 387 624 387 579 c 0,29,30
 387 557 387 557 383 535 c 128,-1,31
 379 513 379 513 374 492 c 0,32,33
 345 349 345 349 239 349 c 0,18,19
622 -12 m 0,34,35
 715 -12 715 -12 762 73 c 0,36,37
 802 143 802 143 802 239 c 0,38,39
 802 298 802 298 771.5 336 c 128,-1,40
 741 374 741 374 684 374 c 0,41,42
 592 374 592 374 544 290 c 0,43,44
 503 219 503 219 503 123 c 0,45,46
 503 64 503 64 534 26 c 128,-1,47
 565 -12 565 -12 622 -12 c 0,34,35
624 13 m 0,48,49
 577 13 577 13 555.5 43.5 c 128,-1,50
 534 74 534 74 534 119 c 0,51,52
 534 142 534 142 538 164 c 128,-1,53
 542 186 542 186 546 207 c 0,54,55
 575 349 575 349 682 349 c 0,56,57
 728 349 728 349 750 318.5 c 128,-1,58
 772 288 772 288 772 243 c 0,59,60
 772 221 772 221 768 199 c 128,-1,61
 764 177 764 177 759 156 c 0,62,63
 730 13 730 13 624 13 c 0,48,49
EndSplineSet
EndChar

StartChar: ampersand
Encoding: 38 38 7
Width: 675
GlyphClass: 3
Flags: W
LayerCount: 2
Fore
SplineSet
225 -12 m 0,0,1
 296 -12 296 -12 357.5 20.5 c 128,-1,2
 419 53 419 53 462 108 c 1,3,-1
 547 0 l 1,4,-1
 587 0 l 1,5,-1
 482 135 l 1,6,7
 534 218 534 218 557 324 c 1,8,-1
 642 324 l 1,9,-1
 649 355 l 1,10,-1
 534 355 l 1,11,12
 512 246 512 246 463 160 c 1,13,-1
 301 366 l 1,14,15
 424 426 424 426 478 475 c 0,16,17
 530 520 530 520 530 590 c 0,18,19
 530 645 530 645 491 677.5 c 128,-1,20
 452 710 452 710 385 710 c 0,21,22
 294 710 294 710 243 654 c 128,-1,23
 192 598 192 598 192 521 c 0,24,25
 192 456 192 456 254 375 c 1,26,27
 143 322 143 322 94.5 265 c 128,-1,28
 46 208 46 208 46 140 c 0,29,30
 46 65 46 65 95 26.5 c 128,-1,31
 144 -12 144 -12 225 -12 c 0,0,1
283 389 m 1,32,33
 226 466 226 466 226 522 c 0,34,35
 226 530 226 530 228 539 c 2,36,-1
 232 564 l 2,37,38
 244 616 244 616 282.5 648 c 128,-1,39
 321 680 321 680 381 680 c 0,40,41
 435 680 435 680 465 655.5 c 128,-1,42
 495 631 495 631 495 586 c 0,43,44
 495 528 495 528 446 485 c 128,-1,45
 397 442 397 442 283 389 c 1,32,33
232 19 m 0,46,47
 163 19 163 19 122 48.5 c 128,-1,48
 81 78 81 78 81 140 c 0,49,50
 81 213 81 213 137 267 c 0,51,52
 181 307 181 307 271 352 c 1,53,-1
 444 132 l 1,54,55
 406 81 406 81 352 50 c 128,-1,56
 298 19 298 19 232 19 c 0,46,47
EndSplineSet
EndChar

StartChar: quotesingle
Encoding: 39 39 8
Width: 223
Flags: W
LayerCount: 2
Fore
SplineSet
173 483 m 1,0,-1
 224 740 l 1,1,-1
 192 740 l 1,2,-1
 141 483 l 1,3,-1
 173 483 l 1,0,-1
EndSplineSet
EndChar

StartChar: parenleft
Encoding: 40 40 9
Width: 330
Flags: W
LayerCount: 2
Fore
SplineSet
247 -138 m 1,0,1
 131 6 131 6 131 222 c 0,2,3
 131 269 131 269 139 311 c 2,4,-1
 147 357 l 2,5,6
 171 479 171 479 239.5 585 c 128,-1,7
 308 691 308 691 405 760 c 1,8,-1
 367 760 l 1,9,10
 256 680 256 680 180 539 c 0,11,12
 100 388 100 388 100 224 c 0,13,14
 100 109 100 109 131.5 17 c 128,-1,15
 163 -75 163 -75 215 -138 c 1,16,-1
 247 -138 l 1,0,1
EndSplineSet
EndChar

StartChar: parenright
Encoding: 41 41 10
Width: 330
GlyphClass: 3
Flags: W
LayerCount: 2
Fore
SplineSet
-18 -138 m 1,0,1
 93 -58 93 -58 170 84 c 0,2,3
 249 234 249 234 249 398 c 0,4,5
 249 514 249 514 218 605.5 c 128,-1,6
 187 697 187 697 135 760 c 1,7,-1
 103 760 l 1,8,9
 218 616 218 616 218 400 c 0,10,11
 218 354 218 354 211 312 c 2,12,-1
 202 265 l 2,13,14
 178 143 178 143 109.5 37.5 c 128,-1,15
 41 -68 41 -68 -55 -138 c 1,16,-1
 -18 -138 l 1,0,1
EndSplineSet
EndChar

StartChar: asterisk
Encoding: 42 42 11
Width: 384
Flags: W
LayerCount: 2
Fore
SplineSet
137 423 m 1,0,-1
 252 552 l 1,1,-1
 318 424 l 1,2,-1
 344 441 l 1,3,-1
 276 566 l 1,4,-1
 431 612 l 1,5,-1
 425 642 l 1,6,-1
 272 591 l 1,7,-1
 304 747 l 1,8,-1
 272 747 l 1,9,-1
 244 592 l 1,10,-1
 108 642 l 1,11,-1
 95 612 l 1,12,-1
 232 569 l 1,13,-1
 113 442 l 1,14,-1
 137 423 l 1,0,-1
EndSplineSet
EndChar

StartChar: plus
Encoding: 43 43 12
Width: 600
Flags: W
LayerCount: 2
Fore
SplineSet
278 62 m 1,0,-1
 324 290 l 1,1,-1
 542 290 l 1,2,-1
 548 320 l 1,3,-1
 330 320 l 1,4,-1
 376 549 l 1,5,-1
 343 549 l 1,6,-1
 297 320 l 1,7,-1
 78 320 l 1,8,-1
 72 290 l 1,9,-1
 291 290 l 1,10,-1
 245 62 l 1,11,-1
 278 62 l 1,0,-1
EndSplineSet
EndChar

StartChar: comma
Encoding: 44 44 13
Width: 248
GlyphClass: 3
Flags: W
LayerCount: 2
Fore
SplineSet
2 -144 m 1,0,1
 43 -110 43 -110 72 -65 c 128,-1,2
 101 -20 101 -20 111 22 c 2,3,-1
 112 29 l 2,4,5
 114 37 114 37 114 44 c 0,6,7
 114 68 114 68 83 68 c 0,8,9
 63 68 63 68 55 59.5 c 128,-1,10
 47 51 47 51 45 39 c 0,11,12
 45 38 45 38 44.5 35.5 c 128,-1,13
 44 33 44 33 43 28 c 128,-1,14
 42 23 42 23 42 18 c 0,15,16
 42 -3 42 -3 71 -5 c 1,17,18
 44 -81 44 -81 -30 -144 c 1,19,-1
 2 -144 l 1,0,1
EndSplineSet
EndChar

StartChar: hyphen
Encoding: 45 45 14
Width: 388
Flags: W
LayerCount: 2
Fore
SplineSet
318 287 m 1,0,-1
 325 322 l 1,1,-1
 90 322 l 1,2,-1
 83 287 l 1,3,-1
 318 287 l 1,0,-1
EndSplineSet
EndChar

StartChar: period
Encoding: 46 46 15
Width: 248
Flags: W
LayerCount: 2
Fore
SplineSet
73 -7 m 0,0,1
 106 -7 106 -7 111 22 c 0,2,3
 114 36 114 36 114 44 c 0,4,5
 114 68 114 68 83 68 c 0,6,7
 50 68 50 68 45 39 c 0,8,9
 42 25 42 25 42 17 c 0,10,11
 42 -7 42 -7 73 -7 c 0,0,1
EndSplineSet
EndChar

StartChar: slash
Encoding: 47 47 16
Width: 319
GlyphClass: 3
Flags: W
LayerCount: 2
Fore
SplineSet
-43 -151 m 1,0,-1
 384 740 l 1,1,-1
 352 740 l 1,2,-1
 -75 -151 l 1,3,-1
 -43 -151 l 1,0,-1
EndSplineSet
EndChar

StartChar: zero
Encoding: 48 48 17
Width: 600
GlyphClass: 5
Flags: W
LayerCount: 2
Fore
SplineSet
254 -12 m 0,0,1
 356 -12 356 -12 430 69 c 0,2,3
 496 146 496 146 528 259 c 0,4,5
 558 375 558 375 558 477 c 0,6,7
 558 710 558 710 377 710 c 0,8,9
 274 710 274 710 202 629 c 0,10,11
 134 552 134 552 104 440 c 0,12,13
 73 323 73 323 73 221 c 0,14,15
 73 -12 73 -12 254 -12 c 0,0,1
256 20 m 0,16,17
 176 20 176 20 142.5 72.5 c 128,-1,18
 109 125 109 125 109 218 c 0,19,20
 109 266 109 266 119 325 c 2,21,-1
 133 395 l 2,22,23
 160 530 160 530 222 604 c 128,-1,24
 284 678 284 678 375 678 c 0,25,26
 455 678 455 678 488.5 625.5 c 128,-1,27
 522 573 522 573 522 480 c 0,28,29
 522 432 522 432 512 373 c 2,30,-1
 498 303 l 2,31,32
 471 168 471 168 409 94 c 128,-1,33
 347 20 347 20 256 20 c 0,16,17
EndSplineSet
EndChar

StartChar: one
Encoding: 49 49 18
Width: 600
Flags: W
LayerCount: 2
Fore
SplineSet
315 0 m 1,0,-1
 279 0 l 1,1,-1
 410 660 l 1,2,-1
 243 573 l 1,3,-1
 250 612 l 1,4,-1
 414 698 l 1,5,-1
 454 698 l 1,6,-1
 315 0 l 1,0,-1
EndSplineSet
EndChar

StartChar: two
Encoding: 50 50 19
Width: 600
Flags: W
LayerCount: 2
Fore
SplineSet
468 0 m 1,0,-1
 474 32 l 1,1,-1
 80 32 l 1,2,-1
 376 278 l 2,3,4
 458 344 458 344 499 408 c 128,-1,5
 540 472 540 472 540 551 c 0,6,7
 540 619 540 619 498 665 c 0,8,9
 454 710 454 710 368 710 c 0,10,11
 205 710 205 710 142 554 c 1,12,-1
 173 542 l 1,13,14
 227 677 227 677 365 677 c 0,15,16
 439 677 439 677 471 640.5 c 128,-1,17
 503 604 503 604 503 551 c 0,18,19
 503 531 503 531 498 506 c 2,20,-1
 495 489 l 1,21,22
 472 398 472 398 353 301 c 2,23,-1
 41 40 l 1,24,-1
 33 0 l 1,25,-1
 468 0 l 1,0,-1
EndSplineSet
EndChar

StartChar: three
Encoding: 51 51 20
Width: 600
Flags: W
LayerCount: 2
Fore
SplineSet
245 -12 m 0,0,1
 353 -12 353 -12 418.5 51 c 128,-1,2
 484 114 484 114 484 217 c 0,3,4
 484 278 484 278 451 317 c 128,-1,5
 418 356 418 356 365 363 c 1,6,-1
 366 366 l 1,7,8
 443 379 443 379 488.5 429 c 128,-1,9
 534 479 534 479 534 559 c 0,10,11
 534 630 534 630 485 670 c 128,-1,12
 436 710 436 710 362 710 c 0,13,14
 215 710 215 710 150 599 c 1,15,-1
 177 581 l 1,16,17
 206 632 206 632 248.5 654.5 c 128,-1,18
 291 677 291 677 357 677 c 0,19,20
 422 677 422 677 459 645 c 128,-1,21
 496 613 496 613 496 555 c 2,22,-1
 495 539 l 1,23,24
 472 382 472 382 304 382 c 2,25,-1
 216 382 l 1,26,-1
 209 350 l 1,27,-1
 299 350 l 2,28,29
 374 350 374 350 411 314 c 128,-1,30
 448 278 448 278 448 219 c 0,31,32
 448 202 448 202 441 167 c 0,33,34
 409 21 409 21 248 21 c 0,35,36
 106 21 106 21 68 117 c 1,37,-1
 39 99 l 1,38,39
 63 45 63 45 116 16.5 c 128,-1,40
 169 -12 169 -12 245 -12 c 0,0,1
EndSplineSet
EndChar

StartChar: four
Encoding: 52 52 21
Width: 600
GlyphClass: 2
Flags: W
LayerCount: 2
Fore
SplineSet
384 0 m 1,0,-1
 415 155 l 1,1,-1
 527 155 l 1,2,-1
 533 185 l 1,3,-1
 421 185 l 1,4,-1
 524 698 l 1,5,-1
 474 698 l 1,6,-1
 33 189 l 1,7,-1
 27 155 l 1,8,-1
 380 155 l 1,9,-1
 349 0 l 1,10,-1
 384 0 l 1,0,-1
386 185 m 1,11,-1
 69 185 l 1,12,-1
 477 656 l 1,13,-1
 480 656 l 1,14,-1
 386 185 l 1,11,-1
EndSplineSet
EndChar

StartChar: five
Encoding: 53 53 22
Width: 600
Flags: W
LayerCount: 2
Fore
SplineSet
261 -12 m 0,0,1
 374 -12 374 -12 441.5 58 c 128,-1,2
 509 128 509 128 509 248 c 0,3,4
 509 328 509 328 464 373 c 128,-1,5
 419 418 419 418 334 418 c 0,6,7
 226 418 226 418 171 345 c 1,8,-1
 167 346 l 1,9,-1
 252 666 l 1,10,-1
 568 666 l 1,11,-1
 574 698 l 1,12,-1
 228 698 l 1,13,-1
 129 321 l 1,14,-1
 164 317 l 1,15,16
 199 351 199 351 235.5 368.5 c 128,-1,17
 272 386 272 386 327 386 c 0,18,19
 402 386 402 386 437 349 c 128,-1,20
 472 312 472 312 472 248 c 0,21,22
 472 237 472 237 470.5 224 c 128,-1,23
 469 211 469 211 464 185 c 0,24,25
 449 107 449 107 399.5 64 c 128,-1,26
 350 21 350 21 262 21 c 0,27,28
 133 21 133 21 88 117 c 1,29,-1
 60 99 l 1,30,31
 84 45 84 45 137 16.5 c 128,-1,32
 190 -12 190 -12 261 -12 c 0,0,1
EndSplineSet
EndChar

StartChar: six
Encoding: 54 54 23
Width: 600
GlyphClass: 2
Flags: W
LayerCount: 2
Fore
SplineSet
267 -12 m 0,0,1
 377 -12 377 -12 447.5 62.5 c 128,-1,2
 518 137 518 137 518 245 c 0,3,4
 518 327 518 327 469 373.5 c 128,-1,5
 420 420 420 420 338 420 c 0,6,7
 203 420 203 420 140 305 c 1,8,-1
 137 306 l 1,9,10
 216 539 216 539 498 698 c 1,11,-1
 445 698 l 1,12,13
 290 614 290 614 188 475 c 0,14,15
 81 328 81 328 81 176 c 0,16,17
 81 91 81 91 126.5 39.5 c 128,-1,18
 172 -12 172 -12 267 -12 c 0,0,1
267 20 m 0,19,20
 191 20 191 20 153.5 60 c 128,-1,21
 116 100 116 100 116 166 c 0,22,23
 116 183 116 183 123 221 c 0,24,25
 138 295 138 295 193.5 341.5 c 128,-1,26
 249 388 249 388 331 388 c 0,27,28
 407 388 407 388 444.5 348 c 128,-1,29
 482 308 482 308 482 242 c 0,30,31
 482 224 482 224 475 187 c 0,32,33
 460 114 460 114 405 67 c 128,-1,34
 350 20 350 20 267 20 c 0,19,20
EndSplineSet
EndChar

StartChar: seven
Encoding: 55 55 24
Width: 600
Flags: W
LayerCount: 2
Fore
SplineSet
180 0 m 1,0,-1
 140 0 l 1,1,-1
 562 666 l 1,2,-1
 165 666 l 1,3,-1
 171 698 l 1,4,-1
 607 698 l 1,5,-1
 600 664 l 1,6,-1
 180 0 l 1,0,-1
EndSplineSet
EndChar

StartChar: eight
Encoding: 56 56 25
Width: 600
Flags: W
LayerCount: 2
Fore
SplineSet
250 -12 m 0,0,1
 364 -12 364 -12 436.5 50 c 128,-1,2
 509 112 509 112 509 212 c 0,3,4
 509 331 509 331 393 362 c 1,5,-1
 394 366 l 1,6,7
 467 384 467 384 510 435.5 c 128,-1,8
 553 487 553 487 553 559 c 0,9,10
 553 628 553 628 506 669 c 128,-1,11
 459 710 459 710 372 710 c 0,12,13
 270 710 270 710 204.5 654 c 128,-1,14
 139 598 139 598 139 506 c 0,15,16
 139 400 139 400 239 372 c 1,17,-1
 239 367 l 1,18,19
 150 353 150 353 101 297 c 0,20,21
 49 238 49 238 49 158 c 0,22,23
 49 81 49 81 101 34.5 c 128,-1,24
 153 -12 153 -12 250 -12 c 0,0,1
251 20 m 0,25,26
 170 20 170 20 127.5 56.5 c 128,-1,27
 85 93 85 93 85 153 c 2,28,-1
 86 171 l 1,29,-1
 87 177 l 1,30,31
 97 264 97 264 163 310 c 0,32,33
 223 350 223 350 307 350 c 0,34,35
 388 350 388 350 430.5 313.5 c 128,-1,36
 473 277 473 277 473 217 c 2,37,-1
 472 200 l 1,38,-1
 471 195 l 1,39,40
 462 107 462 107 395 61 c 0,41,42
 335 20 335 20 251 20 c 0,25,26
324 382 m 0,43,44
 180 382 180 382 175 500 c 1,45,-1
 176 516 l 1,46,-1
 177 522 l 1,47,48
 186 603 186 603 243 643 c 0,49,50
 292 678 292 678 368 678 c 0,51,52
 512 678 512 678 517 560 c 1,53,-1
 516 544 l 1,54,-1
 515 538 l 1,55,56
 506 457 506 457 449 417 c 0,57,58
 400 382 400 382 324 382 c 0,43,44
EndSplineSet
EndChar

StartChar: nine
Encoding: 57 57 26
Width: 600
GlyphClass: 1
Flags: W
LayerCount: 2
Fore
SplineSet
187 0 m 1,0,1
 342 85 342 85 445 223 c 0,2,3
 551 369 551 369 551 522 c 0,4,5
 551 607 551 607 505.5 658.5 c 128,-1,6
 460 710 460 710 365 710 c 0,7,8
 256 710 256 710 185 635.5 c 128,-1,9
 114 561 114 561 114 453 c 0,10,11
 114 371 114 371 163 324.5 c 128,-1,12
 212 278 212 278 294 278 c 0,13,14
 429 278 429 278 492 393 c 1,15,-1
 495 392 l 1,16,17
 417 159 417 159 134 0 c 1,18,-1
 187 0 l 1,0,1
301 310 m 0,19,20
 225 310 225 310 187.5 350 c 128,-1,21
 150 390 150 390 150 456 c 0,22,23
 150 473 150 473 157 511 c 0,24,25
 172 585 172 585 227.5 631.5 c 128,-1,26
 283 678 283 678 365 678 c 0,27,28
 441 678 441 678 478.5 638 c 128,-1,29
 516 598 516 598 516 532 c 0,30,31
 516 514 516 514 509 477 c 0,32,33
 494 404 494 404 439 357 c 128,-1,34
 384 310 384 310 301 310 c 0,19,20
EndSplineSet
EndChar

StartChar: colon
Encoding: 58 58 27
Width: 266
Flags: W
LayerCount: 2
Fore
SplineSet
80 -7 m 0,0,1
 113 -7 113 -7 118 22 c 0,2,3
 121 36 121 36 121 44 c 0,4,5
 121 68 121 68 90 68 c 0,6,7
 57 68 57 68 52 39 c 0,8,9
 49 25 49 25 49 17 c 0,10,11
 49 -7 49 -7 80 -7 c 0,0,1
168 425 m 0,12,13
 201 425 201 425 206 454 c 0,14,15
 209 468 209 468 209 476 c 0,16,17
 209 500 209 500 178 500 c 0,18,19
 145 500 145 500 140 471 c 0,20,21
 137 457 137 457 137 449 c 0,22,23
 137 425 137 425 168 425 c 0,12,13
EndSplineSet
EndChar

StartChar: semicolon
Encoding: 59 59 28
Width: 266
GlyphClass: 2
Flags: W
LayerCount: 2
Fore
SplineSet
9 -144 m 1,0,1
 50 -110 50 -110 79 -65 c 128,-1,2
 108 -20 108 -20 118 22 c 2,3,-1
 119 29 l 2,4,5
 121 37 121 37 121 44 c 0,6,7
 121 68 121 68 90 68 c 0,8,9
 70 68 70 68 62 59.5 c 128,-1,10
 54 51 54 51 52 39 c 0,11,12
 52 38 52 38 51.5 35.5 c 128,-1,13
 51 33 51 33 50 28 c 128,-1,14
 49 23 49 23 49 18 c 0,15,16
 49 -3 49 -3 78 -5 c 1,17,18
 51 -81 51 -81 -23 -144 c 1,19,-1
 9 -144 l 1,0,1
168 425 m 0,20,21
 201 425 201 425 206 454 c 0,22,23
 209 468 209 468 209 476 c 0,24,25
 209 500 209 500 178 500 c 0,26,27
 145 500 145 500 140 471 c 0,28,29
 137 457 137 457 137 449 c 0,30,31
 137 425 137 425 168 425 c 0,20,21
EndSplineSet
EndChar

StartChar: less
Encoding: 60 60 29
Width: 600
Flags: W
LayerCount: 2
Fore
SplineSet
469 26 m 1,0,-1
 476 61 l 1,1,-1
 133 295 l 1,2,-1
 134 299 l 1,3,-1
 570 531 l 1,4,-1
 577 571 l 1,5,-1
 102 315 l 1,6,-1
 96 283 l 1,7,-1
 469 26 l 1,0,-1
EndSplineSet
EndChar

StartChar: equal
Encoding: 61 61 30
Width: 600
GlyphClass: 2
Flags: W
LayerCount: 2
Fore
SplineSet
553 382 m 1,0,-1
 559 412 l 1,1,-1
 89 412 l 1,2,-1
 83 382 l 1,3,-1
 553 382 l 1,0,-1
516 199 m 1,4,-1
 522 229 l 1,5,-1
 52 229 l 1,6,-1
 46 199 l 1,7,-1
 516 199 l 1,4,-1
EndSplineSet
EndChar

StartChar: greater
Encoding: 62 62 31
Width: 600
GlyphClass: 5
Flags: W
LayerCount: 2
Fore
SplineSet
40 26 m 1,0,-1
 515 283 l 1,1,-1
 522 315 l 1,2,-1
 149 571 l 1,3,-1
 142 536 l 1,4,-1
 484 303 l 1,5,-1
 484 300 l 1,6,-1
 48 66 l 1,7,-1
 40 26 l 1,0,-1
EndSplineSet
EndChar

StartChar: question
Encoding: 63 63 32
Width: 457
GlyphClass: 3
Flags: W
LayerCount: 2
Fore
SplineSet
211 184 m 1,0,-1
 239 327 l 1,1,2
 358 341 358 341 415.5 401 c 128,-1,3
 473 461 473 461 473 553 c 0,4,5
 473 625 473 625 427 667.5 c 128,-1,6
 381 710 381 710 302 710 c 0,7,8
 149 710 149 710 90 557 c 1,9,-1
 120 546 l 1,10,11
 145 607 145 607 186.5 642.5 c 128,-1,12
 228 678 228 678 299 678 c 0,13,14
 433 678 433 678 437 552 c 0,15,16
 437 529 437 529 432 508 c 0,17,18
 411 369 411 369 210 355 c 1,19,-1
 177 184 l 1,20,-1
 211 184 l 1,0,-1
159 -7 m 0,21,22
 192 -7 192 -7 197 22 c 0,23,24
 200 36 200 36 200 44 c 0,25,26
 200 68 200 68 169 68 c 0,27,28
 136 68 136 68 131 39 c 0,29,30
 128 25 128 25 128 17 c 0,31,32
 128 -7 128 -7 159 -7 c 0,21,22
EndSplineSet
EndChar

StartChar: at
Encoding: 64 64 33
Width: 876
Flags: W
LayerCount: 2
Fore
SplineSet
595 -121 m 1,0,-1
 601 -93 l 1,1,-1
 366 -93 l 2,2,3
 240 -93 240 -93 167.5 -18.5 c 128,-1,4
 95 56 95 56 95 188 c 0,5,6
 95 226 95 226 104 271 c 2,7,-1
 116 325 l 2,8,9
 151 482 151 482 262 581 c 0,10,11
 316 629 316 629 383 655.5 c 128,-1,12
 450 682 450 682 524 682 c 0,13,14
 650 682 650 682 725 611 c 128,-1,15
 800 540 800 540 800 414 c 0,16,17
 800 380 800 380 793 345 c 2,18,-1
 784 297 l 2,19,20
 765 202 765 202 722.5 149.5 c 128,-1,21
 680 97 680 97 628 97 c 0,22,23
 574 97 574 97 574 143 c 0,24,25
 574 157 574 157 577 172 c 2,26,-1
 641 497 l 1,27,-1
 610 497 l 1,28,-1
 596 425 l 1,29,-1
 593 425 l 1,30,31
 584 461 584 461 553.5 484.5 c 128,-1,32
 523 508 523 508 476 508 c 0,33,34
 395 508 395 508 340.5 454 c 128,-1,35
 286 400 286 400 265 291 c 0,36,37
 257 246 257 246 257 214 c 0,38,39
 257 145 257 145 293 107 c 128,-1,40
 329 69 329 69 392 69 c 0,41,42
 446 69 446 69 483.5 95.5 c 128,-1,43
 521 122 521 122 540 155 c 1,44,-1
 543 155 l 1,45,-1
 543 143 l 2,46,47
 543 73 543 73 624 69 c 0,48,49
 663 69 663 69 695 89 c 0,50,51
 760 129 760 129 794 221 c 0,52,53
 830 328 830 328 830 413 c 0,54,55
 830 552 830 552 745 633 c 0,56,57
 660 710 660 710 528 710 c 0,58,59
 360 710 360 710 238 598 c 128,-1,60
 116 486 116 486 78 301 c 0,61,62
 66 238 66 238 66 188 c 0,63,64
 66 40 66 40 145.5 -40.5 c 128,-1,65
 225 -121 225 -121 363 -121 c 2,66,-1
 595 -121 l 1,0,-1
400 98 m 0,67,68
 292 98 292 98 290 212 c 0,69,70
 290 236 290 236 295 262.5 c 128,-1,71
 300 289 300 289 305 314 c 0,72,73
 320 391 320 391 364.5 435 c 128,-1,74
 409 479 409 479 476 479 c 0,75,76
 530 479 530 479 562 446 c 0,77,78
 585 421 585 421 585 385 c 0,79,80
 585 374 585 374 583 362 c 2,81,-1
 554 220 l 2,82,83
 542 170 542 170 498 134 c 128,-1,84
 454 98 454 98 400 98 c 0,67,68
EndSplineSet
EndChar

StartChar: A
Encoding: 65 65 34
Width: 601
GlyphClass: 5
Flags: W
LayerCount: 2
Fore
SplineSet
526 0 m 1,0,-1
 400 698 l 1,1,-1
 352 698 l 1,2,-1
 -16 0 l 1,3,-1
 23 0 l 1,4,-1
 142 227 l 1,5,-1
 449 227 l 1,6,-1
 489 0 l 1,7,-1
 526 0 l 1,0,-1
444 259 m 1,8,-1
 158 259 l 1,9,-1
 368 661 l 1,10,-1
 372 661 l 1,11,-1
 444 259 l 1,8,-1
EndSplineSet
EndChar

StartChar: B
Encoding: 66 66 35
Width: 611
GlyphClass: 7
Flags: W
LayerCount: 2
Fore
SplineSet
324 0 m 2,0,1
 422 0 422 0 480 62 c 128,-1,2
 538 124 538 124 538 230 c 0,3,4
 538 282 538 282 512 318 c 128,-1,5
 486 354 486 354 436 366 c 1,6,-1
 437 369 l 1,7,8
 513 388 513 388 543 442.5 c 128,-1,9
 573 497 573 497 573 558 c 0,10,11
 573 625 573 625 533.5 661.5 c 128,-1,12
 494 698 494 698 419 698 c 2,13,-1
 190 698 l 1,14,-1
 52 0 l 1,15,-1
 324 0 l 2,0,1
325 32 m 2,16,-1
 94 32 l 1,17,-1
 156 350 l 1,18,-1
 376 350 l 2,19,20
 437 350 437 350 471 315 c 0,21,22
 501 281 501 281 501 231 c 0,23,24
 501 206 501 206 492 165 c 0,25,26
 480 104 480 104 438.5 68 c 128,-1,27
 397 32 397 32 325 32 c 2,16,-1
367 382 m 2,28,-1
 163 382 l 1,29,-1
 219 666 l 1,30,-1
 416 666 l 2,31,32
 479 666 479 666 507.5 637 c 128,-1,33
 536 608 536 608 536 559 c 0,34,35
 536 541 536 541 532 520 c 2,36,-1
 528 495 l 1,37,38
 501 382 501 382 367 382 c 2,28,-1
EndSplineSet
EndChar

StartChar: C
Encoding: 67 67 36
Width: 597
Flags: W
LayerCount: 2
Fore
SplineSet
291 -12 m 0,0,1
 446 -12 446 -12 528 145 c 1,2,-1
 497 160 l 1,3,4
 460 91 460 91 411.5 56 c 128,-1,5
 363 21 363 21 292 21 c 0,6,7
 200 21 200 21 151 76.5 c 128,-1,8
 102 132 102 132 102 226 c 0,9,10
 102 267 102 267 111 325 c 2,11,-1
 125 394 l 2,12,13
 151 524 151 524 222.5 600.5 c 128,-1,14
 294 677 294 677 394 677 c 0,15,16
 469 677 469 677 507.5 644 c 128,-1,17
 546 611 546 611 562 553 c 1,18,-1
 595 565 l 1,19,20
 557 710 557 710 396 710 c 0,21,22
 309 710 309 710 247 665.5 c 128,-1,23
 185 621 185 621 145 549 c 128,-1,24
 105 477 105 477 85.5 393 c 128,-1,25
 66 309 66 309 66 231 c 0,26,27
 66 113 66 113 128.5 50.5 c 128,-1,28
 191 -12 191 -12 291 -12 c 0,0,1
EndSplineSet
EndChar

StartChar: D
Encoding: 68 68 37
Width: 649
Flags: W
LayerCount: 2
Fore
SplineSet
280 0 m 2,0,1
 365 0 365 0 427.5 39.5 c 128,-1,2
 490 79 490 79 531 145 c 128,-1,3
 572 211 572 211 592 292.5 c 128,-1,4
 612 374 612 374 612 458 c 0,5,6
 612 573 612 573 553 635.5 c 128,-1,7
 494 698 494 698 379 698 c 2,8,-1
 190 698 l 1,9,-1
 50 0 l 1,10,-1
 280 0 l 2,0,1
281 32 m 2,11,-1
 93 32 l 1,12,-1
 219 666 l 1,13,-1
 376 666 l 2,14,15
 476 666 476 666 526 612.5 c 128,-1,16
 576 559 576 559 576 465 c 0,17,18
 576 425 576 425 567 367 c 2,19,-1
 554 300 l 2,20,21
 532 185 532 185 463 110 c 0,22,23
 389 32 389 32 281 32 c 2,11,-1
EndSplineSet
EndChar

StartChar: E
Encoding: 69 69 38
Width: 556
Flags: W
LayerCount: 2
Fore
SplineSet
440 0 m 1,0,-1
 447 32 l 1,1,-1
 92 32 l 1,2,-1
 153 338 l 1,3,-1
 487 338 l 1,4,-1
 493 370 l 1,5,-1
 160 370 l 1,6,-1
 220 666 l 1,7,-1
 570 666 l 1,8,-1
 576 698 l 1,9,-1
 190 698 l 1,10,-1
 50 0 l 1,11,-1
 440 0 l 1,0,-1
EndSplineSet
EndChar

StartChar: F
Encoding: 70 70 39
Width: 531
GlyphClass: 2
Flags: W
LayerCount: 2
Fore
SplineSet
86 0 m 1,0,-1
 153 338 l 1,1,-1
 478 338 l 1,2,-1
 484 370 l 1,3,-1
 159 370 l 1,4,-1
 219 666 l 1,5,-1
 561 666 l 1,6,-1
 568 698 l 1,7,-1
 190 698 l 1,8,-1
 50 0 l 1,9,-1
 86 0 l 1,0,-1
EndSplineSet
EndChar

StartChar: G
Encoding: 71 71 40
Width: 660
Flags: W
LayerCount: 2
Fore
SplineSet
291 -12 m 0,0,1
 442 -12 442 -12 512 111 c 1,2,-1
 515 111 l 1,3,-1
 493 0 l 1,4,-1
 527 0 l 1,5,-1
 594 339 l 1,6,-1
 389 339 l 1,7,-1
 382 306 l 1,8,-1
 552 306 l 1,9,-1
 533 211 l 2,10,11
 511 112 511 112 444 67 c 0,12,13
 381 21 381 21 297 21 c 0,14,15
 202 21 202 21 152 76 c 128,-1,16
 102 131 102 131 102 228 c 0,17,18
 102 269 102 269 111 325 c 2,19,-1
 124 392 l 2,20,21
 150 525 150 525 223 600 c 0,22,23
 294 677 294 677 400 677 c 0,24,25
 482 677 482 677 524.5 644 c 128,-1,26
 567 611 567 611 584 553 c 1,27,-1
 617 565 l 1,28,29
 578 710 578 710 403 710 c 0,30,31
 289 710 289 710 209 632 c 0,32,33
 134 557 134 557 100 447 c 0,34,35
 66 345 66 345 66 231 c 0,36,37
 66 113 66 113 128.5 50.5 c 128,-1,38
 191 -12 191 -12 291 -12 c 0,0,1
EndSplineSet
EndChar

StartChar: H
Encoding: 72 72 41
Width: 681
GlyphClass: 5
Flags: W
LayerCount: 2
Fore
SplineSet
528 0 m 1,0,-1
 668 698 l 1,1,-1
 632 698 l 1,2,-1
 566 370 l 1,3,-1
 160 370 l 1,4,-1
 226 698 l 1,5,-1
 190 698 l 1,6,-1
 50 0 l 1,7,-1
 86 0 l 1,8,-1
 154 338 l 1,9,-1
 560 338 l 1,10,-1
 492 0 l 1,11,-1
 528 0 l 1,0,-1
EndSplineSet
EndChar

StartChar: I
Encoding: 73 73 42
Width: 238
Flags: W
LayerCount: 2
Fore
SplineSet
86 0 m 1,0,-1
 226 698 l 1,1,-1
 190 698 l 1,2,-1
 50 0 l 1,3,-1
 86 0 l 1,0,-1
EndSplineSet
EndChar

StartChar: J
Encoding: 74 74 43
Width: 465
Flags: W
LayerCount: 2
Fore
SplineSet
149 -12 m 0,0,1
 76 -12 76 -12 35 26 c 128,-1,2
 -6 64 -6 64 -10 126 c 1,3,-1
 23 134 l 1,4,5
 38 21 38 21 150 21 c 0,6,7
 287 21 287 21 320 187 c 2,8,-1
 422 698 l 1,9,-1
 458 698 l 1,10,-1
 355 180 l 2,11,12
 336 87 336 87 282.5 37.5 c 128,-1,13
 229 -12 229 -12 149 -12 c 0,0,1
EndSplineSet
EndChar

StartChar: K
Encoding: 75 75 44
Width: 576
GlyphClass: 1
Flags: W
LayerCount: 2
Fore
SplineSet
509 0 m 1,0,-1
 318 400 l 1,1,-1
 641 698 l 1,2,-1
 594 698 l 1,3,-1
 148 288 l 1,4,-1
 145 288 l 1,5,-1
 226 698 l 1,6,-1
 190 698 l 1,7,-1
 50 0 l 1,8,-1
 86 0 l 1,9,-1
 134 234 l 1,10,-1
 290 377 l 1,11,-1
 471 0 l 1,12,-1
 509 0 l 1,0,-1
EndSplineSet
EndChar

StartChar: L
Encoding: 76 76 45
Width: 473
GlyphClass: 7
Flags: W
LayerCount: 2
Fore
SplineSet
403 0 m 1,0,-1
 409 32 l 1,1,-1
 93 32 l 1,2,-1
 226 698 l 1,3,-1
 190 698 l 1,4,-1
 50 0 l 1,5,-1
 403 0 l 1,0,-1
EndSplineSet
EndChar

StartChar: M
Encoding: 77 77 46
Width: 781
GlyphClass: 5
Flags: W
LayerCount: 2
Fore
SplineSet
628 0 m 1,0,-1
 768 698 l 1,1,-1
 715 698 l 1,2,-1
 397 288 l 1,3,-1
 394 288 l 1,4,-1
 240 698 l 1,5,-1
 190 698 l 1,6,-1
 50 0 l 1,7,-1
 85 0 l 1,8,-1
 216 652 l 1,9,-1
 220 652 l 1,10,-1
 384 219 l 1,11,-1
 721 652 l 1,12,-1
 724 652 l 1,13,-1
 593 0 l 1,14,-1
 628 0 l 1,0,-1
EndSplineSet
EndChar

StartChar: N
Encoding: 78 78 47
Width: 681
GlyphClass: 7
Flags: W
LayerCount: 2
Fore
SplineSet
528 0 m 1,0,-1
 668 698 l 1,1,-1
 633 698 l 1,2,-1
 504 49 l 1,3,-1
 501 49 l 1,4,-1
 235 698 l 1,5,-1
 190 698 l 1,6,-1
 50 0 l 1,7,-1
 85 0 l 1,8,-1
 214 649 l 1,9,-1
 217 649 l 1,10,-1
 483 0 l 1,11,-1
 528 0 l 1,0,-1
EndSplineSet
EndChar

StartChar: O
Encoding: 79 79 48
Width: 663
GlyphClass: 7
Flags: W
LayerCount: 2
Fore
SplineSet
293 -12 m 0,0,1
 406 -12 406 -12 487 67 c 0,2,3
 561 142 561 142 595.5 254.5 c 128,-1,4
 630 367 630 367 630 469 c 0,5,6
 630 585 630 585 567 647.5 c 128,-1,7
 504 710 504 710 403 710 c 0,8,9
 291 710 291 710 210 631 c 0,10,11
 135 556 135 556 101 446 c 0,12,13
 66 331 66 331 66 229 c 0,14,15
 66 111 66 111 129.5 49.5 c 128,-1,16
 193 -12 193 -12 293 -12 c 0,0,1
295 21 m 0,17,18
 201 21 201 21 151.5 75.5 c 128,-1,19
 102 130 102 130 102 224 c 0,20,21
 102 265 102 265 111 323 c 2,22,-1
 124 389 l 2,23,24
 151 523 151 523 224.5 600 c 128,-1,25
 298 677 298 677 401 677 c 0,26,27
 495 677 495 677 544.5 622.5 c 128,-1,28
 594 568 594 568 594 474 c 0,29,30
 594 434 594 434 585 375 c 2,31,-1
 572 309 l 2,32,33
 545 176 545 176 472 98.5 c 128,-1,34
 399 21 399 21 295 21 c 0,17,18
EndSplineSet
EndChar

StartChar: P
Encoding: 80 80 49
Width: 583
GlyphClass: 7
Flags: W
LayerCount: 2
Fore
SplineSet
86 0 m 1,0,-1
 150 316 l 1,1,-1
 381 316 l 2,2,3
 482 316 482 316 539 377.5 c 128,-1,4
 596 439 596 439 596 545 c 0,5,6
 596 611 596 611 557 654.5 c 128,-1,7
 518 698 518 698 441 698 c 2,8,-1
 190 698 l 1,9,-1
 50 0 l 1,10,-1
 86 0 l 1,0,-1
385 348 m 2,11,-1
 156 348 l 1,12,-1
 219 666 l 1,13,-1
 438 666 l 2,14,15
 503 666 503 666 531.5 632 c 128,-1,16
 560 598 560 598 560 549 c 0,17,18
 560 522 560 522 551 479 c 0,19,20
 539 420 539 420 497.5 384 c 128,-1,21
 456 348 456 348 385 348 c 2,11,-1
EndSplineSet
EndChar

StartChar: Q
Encoding: 81 81 50
Width: 663
GlyphClass: 1
Flags: W
LayerCount: 2
Fore
SplineSet
295 21 m 0,0,1
 201 21 201 21 151.5 75.5 c 128,-1,2
 102 130 102 130 102 224 c 0,3,4
 102 265 102 265 111 323 c 2,5,-1
 124 389 l 2,6,7
 151 523 151 523 224.5 600 c 128,-1,8
 298 677 298 677 401 677 c 0,9,10
 495 677 495 677 544.5 622.5 c 128,-1,11
 594 568 594 568 594 474 c 0,12,13
 594 434 594 434 585 375 c 2,14,-1
 572 309 l 2,15,16
 545 176 545 176 472 98.5 c 128,-1,17
 399 21 399 21 295 21 c 0,0,1
487 67 m 0,19,20
 561 142 561 142 595.5 254.5 c 128,-1,21
 630 367 630 367 630 469 c 0,22,23
 630 585 630 585 567 647.5 c 128,-1,24
 504 710 504 710 403 710 c 0,25,26
 291 710 291 710 210 631 c 0,27,28
 135 556 135 556 101 446 c 0,29,30
 66 331 66 331 66 229 c 0,31,32
 66 111 66 111 129.5 49.5 c 128,-1,33
 193 -12 193 -12 293 -12 c 0,34,35
 346 -12 346 -12 391 5 c 1,36,-1
 566 -109 l 1,37,-1
 588 -79 l 1,38,-1
 430 24 l 1,39,18
 460 41 460 41 487 67 c 0,19,20
EndSplineSet
EndChar

StartChar: R
Encoding: 82 82 51
Width: 629
GlyphClass: 1
Flags: W
LayerCount: 2
Fore
SplineSet
510 0 m 1,0,-1
 390 318 l 1,1,2
 490 323 490 323 543 383 c 128,-1,3
 596 443 596 443 596 545 c 0,4,5
 596 611 596 611 557 654.5 c 128,-1,6
 518 698 518 698 441 698 c 2,7,-1
 190 698 l 1,8,-1
 50 0 l 1,9,-1
 86 0 l 1,10,-1
 149 316 l 1,11,-1
 354 316 l 1,12,-1
 472 0 l 1,13,-1
 510 0 l 1,0,-1
385 348 m 2,14,-1
 156 348 l 1,15,-1
 219 666 l 1,16,-1
 438 666 l 2,17,18
 503 666 503 666 531.5 632 c 128,-1,19
 560 598 560 598 560 549 c 0,20,21
 560 522 560 522 551 479 c 0,22,23
 539 420 539 420 497.5 384 c 128,-1,24
 456 348 456 348 385 348 c 2,14,-1
EndSplineSet
EndChar

StartChar: S
Encoding: 83 83 52
Width: 555
GlyphClass: 7
Flags: W
LayerCount: 2
Fore
SplineSet
245 -12 m 0,0,1
 347 -12 347 -12 407 38 c 128,-1,2
 467 88 467 88 467 185 c 0,3,4
 467 228 467 228 447 263 c 0,5,6
 417 318 417 318 319 361 c 2,7,-1
 256 387 l 1,8,9
 131 434 131 434 131 531 c 0,10,11
 132 606 132 606 178.5 641.5 c 128,-1,12
 225 677 225 677 309 677 c 0,13,14
 434 677 434 677 495 590 c 1,15,-1
 523 610 l 1,16,17
 457 710 457 710 311 710 c 0,18,19
 214 710 214 710 153.5 665 c 128,-1,20
 93 620 93 620 93 532 c 0,21,22
 93 418 93 418 241 355 c 2,23,-1
 304 330 l 2,24,25
 429 282 429 282 429 185 c 0,26,27
 429 167 429 167 427 147 c 0,28,29
 408 24 408 24 246 21 c 0,30,31
 170 21 170 21 121 49 c 128,-1,32
 72 77 72 77 36 126 c 1,33,-1
 8 104 l 1,34,35
 93 -12 93 -12 245 -12 c 0,0,1
EndSplineSet
EndChar

StartChar: T
Encoding: 84 84 53
Width: 550
GlyphClass: 1
Flags: W
LayerCount: 2
Fore
SplineSet
242 0 m 1,0,-1
 375 666 l 1,1,-1
 616 666 l 1,2,-1
 622 698 l 1,3,-1
 105 698 l 1,4,-1
 99 666 l 1,5,-1
 339 666 l 1,6,-1
 206 0 l 1,7,-1
 242 0 l 1,0,-1
EndSplineSet
EndChar

StartChar: U
Encoding: 85 85 54
Width: 643
GlyphClass: 3
Flags: W
LayerCount: 2
Fore
SplineSet
275 -12 m 0,0,1
 400 -12 400 -12 461.5 51 c 128,-1,2
 523 114 523 114 552 272 c 2,3,-1
 637 698 l 1,4,-1
 601 698 l 1,5,-1
 516 274 l 2,6,7
 489 134 489 134 436.5 77.5 c 128,-1,8
 384 21 384 21 277 21 c 0,9,10
 196 21 196 21 157 57.5 c 128,-1,11
 118 94 118 94 118 160 c 0,12,13
 118 202 118 202 133 271 c 2,14,-1
 218 698 l 1,15,-1
 182 698 l 1,16,-1
 99 280 l 2,17,18
 82 211 82 211 82 158 c 0,19,20
 82 74 82 74 133 31 c 128,-1,21
 184 -12 184 -12 275 -12 c 0,0,1
EndSplineSet
EndChar

StartChar: V
Encoding: 86 86 55
Width: 572
Flags: W
LayerCount: 2
Fore
SplineSet
258 0 m 1,0,-1
 635 698 l 1,1,-1
 596 698 l 1,2,-1
 243 39 l 1,3,-1
 240 39 l 1,4,-1
 152 698 l 1,5,-1
 116 698 l 1,6,-1
 212 0 l 1,7,-1
 258 0 l 1,0,-1
EndSplineSet
EndChar

StartChar: W
Encoding: 87 87 56
Width: 864
Flags: W
LayerCount: 2
Fore
SplineSet
605 0 m 1,0,-1
 930 698 l 1,1,-1
 892 698 l 1,2,-1
 593 49 l 1,3,-1
 590 49 l 1,4,-1
 544 698 l 1,5,-1
 497 698 l 1,6,-1
 189 48 l 1,7,-1
 186 48 l 1,8,-1
 153 698 l 1,9,-1
 117 698 l 1,10,-1
 154 0 l 1,11,-1
 200 0 l 1,12,-1
 511 653 l 1,13,-1
 514 653 l 1,14,-1
 560 0 l 1,15,-1
 605 0 l 1,0,-1
EndSplineSet
EndChar

StartChar: X
Encoding: 88 88 57
Width: 562
Flags: W
LayerCount: 2
Fore
SplineSet
481 0 m 1,0,-1
 319 352 l 1,1,-1
 614 698 l 1,2,-1
 570 698 l 1,3,-1
 304 384 l 1,4,-1
 301 384 l 1,5,-1
 157 698 l 1,6,-1
 118 698 l 1,7,-1
 275 356 l 1,8,-1
 -28 0 l 1,9,-1
 16 0 l 1,10,-1
 291 324 l 1,11,-1
 295 324 l 1,12,-1
 443 0 l 1,13,-1
 481 0 l 1,0,-1
EndSplineSet
EndChar

StartChar: Y
Encoding: 89 89 58
Width: 549
Flags: W
LayerCount: 2
Fore
SplineSet
241 0 m 1,0,-1
 299 289 l 1,1,-1
 619 698 l 1,2,-1
 577 698 l 1,3,-1
 289 329 l 1,4,-1
 285 329 l 1,5,-1
 145 698 l 1,6,-1
 108 698 l 1,7,-1
 263 289 l 1,8,-1
 205 0 l 1,9,-1
 241 0 l 1,0,-1
EndSplineSet
EndChar

StartChar: Z
Encoding: 90 90 59
Width: 548
Flags: W
LayerCount: 2
Fore
SplineSet
464 0 m 1,0,-1
 471 32 l 1,1,-1
 29 32 l 1,2,-1
 579 663 l 1,3,-1
 586 698 l 1,4,-1
 139 698 l 1,5,-1
 133 666 l 1,6,-1
 536 666 l 1,7,-1
 -13 35 l 1,8,-1
 -20 0 l 1,9,-1
 464 0 l 1,0,-1
EndSplineSet
EndChar

StartChar: bracketleft
Encoding: 91 91 60
Width: 306
Flags: W
LayerCount: 2
Fore
SplineSet
159 -138 m 1,0,-1
 165 -110 l 1,1,-1
 65 -110 l 1,2,-1
 233 732 l 1,3,-1
 333 732 l 1,4,-1
 340 760 l 1,5,-1
 207 760 l 1,6,-1
 27 -138 l 1,7,-1
 159 -138 l 1,0,-1
EndSplineSet
EndChar

StartChar: backslash
Encoding: 92 92 61
Width: 319
Flags: W
LayerCount: 2
Fore
SplineSet
232 -151 m 1,0,-1
 160 740 l 1,1,-1
 130 740 l 1,2,-1
 202 -151 l 1,3,-1
 232 -151 l 1,0,-1
EndSplineSet
EndChar

StartChar: bracketright
Encoding: 93 93 62
Width: 306
Flags: W
LayerCount: 2
Fore
SplineSet
121 -138 m 1,0,-1
 301 760 l 1,1,-1
 169 760 l 1,2,-1
 163 732 l 1,3,-1
 264 732 l 1,4,-1
 95 -110 l 1,5,-1
 -5 -110 l 1,6,-1
 -11 -138 l 1,7,-1
 121 -138 l 1,0,-1
EndSplineSet
EndChar

StartChar: asciicircum
Encoding: 94 94 63
Width: 600
Flags: W
LayerCount: 2
Fore
SplineSet
514 316 m 1,0,-1
 542 330 l 1,1,-1
 400 698 l 1,2,-1
 363 698 l 1,3,-1
 74 332 l 1,4,-1
 101 316 l 1,5,-1
 376 663 l 1,6,-1
 378 663 l 1,7,-1
 514 316 l 1,0,-1
EndSplineSet
EndChar

StartChar: underscore
Encoding: 95 95 64
Width: 556
Flags: W
LayerCount: 2
Fore
SplineSet
449 -146 m 1,0,-1
 455 -117 l 1,1,-1
 -48 -117 l 1,2,-1
 -55 -146 l 1,3,-1
 449 -146 l 1,0,-1
EndSplineSet
EndChar

StartChar: grave
Encoding: 96 96 65
Width: 600
Flags: W
LayerCount: 2
Fore
SplineSet
317 587 m 1,0,-1
 340 598 l 1,1,-1
 264 757 l 1,2,-1
 233 741 l 1,3,-1
 317 587 l 1,0,-1
EndSplineSet
EndChar

StartChar: a
Encoding: 97 97 66
Width: 571
Flags: W
LayerCount: 2
Fore
SplineSet
220 -12 m 0,0,1
 282 -12 282 -12 324 20.5 c 128,-1,2
 366 53 366 53 397 111 c 1,3,-1
 400 111 l 1,4,5
 387 48 387 48 386 43 c 128,-1,6
 385 38 385 38 385 29 c 0,7,8
 385 1 385 1 419 0 c 2,9,-1
 495 0 l 1,10,-1
 501 31 l 1,11,-1
 419 31 l 1,12,-1
 514 508 l 1,13,-1
 480 508 l 1,14,-1
 462 417 l 1,15,-1
 459 417 l 1,16,17
 445 465 445 465 406.5 492.5 c 128,-1,18
 368 520 368 520 308 520 c 0,19,20
 247 520 247 520 200.5 492 c 128,-1,21
 154 464 154 464 122 415 c 0,22,23
 58 310 58 310 58 178 c 0,24,25
 58 94 58 94 101 42 c 0,26,27
 142 -12 142 -12 220 -12 c 0,0,1
225 19 m 256,28,29
 160 19 160 19 125 65 c 0,30,31
 93 111 93 111 93 175 c 0,32,33
 93 216 93 216 99 242 c 2,34,-1
 107 286 l 2,35,36
 126 381 126 381 177 435 c 128,-1,37
 228 489 228 489 309 489 c 0,38,39
 351 489 351 489 380.5 475.5 c 128,-1,40
 410 462 410 462 426 441 c 0,41,42
 450 408 450 408 450 370 c 0,43,44
 450 357 450 357 447 344 c 2,45,-1
 420 211 l 2,46,47
 397 111 397 111 334 61 c 1,48,49
 290 19 290 19 225 19 c 256,28,29
EndSplineSet
EndChar

StartChar: b
Encoding: 98 98 67
Width: 563
Flags: W
LayerCount: 2
Fore
SplineSet
255 -12 m 0,0,1
 316 -12 316 -12 363 16 c 128,-1,2
 410 44 410 44 442 93 c 0,3,4
 505 198 505 198 505 330 c 0,5,6
 505 414 505 414 463 467 c 128,-1,7
 421 520 421 520 343 520 c 0,8,9
 281 520 281 520 239.5 487.5 c 128,-1,10
 198 455 198 455 166 397 c 1,11,-1
 163 397 l 1,12,-1
 231 740 l 1,13,-1
 197 740 l 1,14,-1
 49 0 l 1,15,-1
 83 0 l 1,16,-1
 101 91 l 1,17,-1
 104 91 l 1,18,19
 118 43 118 43 156.5 15.5 c 128,-1,20
 195 -12 195 -12 255 -12 c 0,0,1
254 19 m 0,21,22
 175 19 175 19 138 67 c 0,23,24
 113 101 113 101 113 138 c 0,25,26
 113 151 113 151 116 164 c 2,27,-1
 143 297 l 2,28,29
 167 398 167 398 229 447 c 1,30,31
 274 489 274 489 338 489 c 0,32,33
 406 489 406 489 438 443.5 c 128,-1,34
 470 398 470 398 470 333 c 0,35,36
 470 293 470 293 464 266 c 2,37,-1
 456 222 l 2,38,39
 437 127 437 127 386 73 c 128,-1,40
 335 19 335 19 254 19 c 0,21,22
EndSplineSet
EndChar

StartChar: c
Encoding: 99 99 68
Width: 481
Flags: W
LayerCount: 2
Fore
SplineSet
226 -12 m 0,0,1
 350 -12 350 -12 426 117 c 1,2,-1
 398 131 l 1,3,4
 365 77 365 77 323.5 48 c 128,-1,5
 282 19 282 19 228 19 c 0,6,7
 162 19 162 19 125 68 c 0,8,9
 92 116 92 116 92 186 c 0,10,11
 92 203 92 203 93 215.5 c 128,-1,12
 94 228 94 228 108 301 c 0,13,14
 126 390 126 390 176 440 c 128,-1,15
 226 490 226 490 299 490 c 0,16,17
 348 490 348 490 381.5 465.5 c 128,-1,18
 415 441 415 441 427 393 c 1,19,-1
 456 404 l 1,20,21
 444 456 444 456 403.5 488 c 128,-1,22
 363 520 363 520 301 520 c 0,23,24
 186 520 186 520 122 423.5 c 128,-1,25
 58 327 58 327 58 189 c 0,26,27
 58 99 58 99 101 43.5 c 128,-1,28
 144 -12 144 -12 226 -12 c 0,0,1
EndSplineSet
EndChar

StartChar: d
Encoding: 100 100 69
Width: 571
Flags: W
LayerCount: 2
Fore
SplineSet
220 -12 m 0,0,1
 282 -12 282 -12 324 20.5 c 128,-1,2
 366 53 366 53 397 111 c 1,3,-1
 400 111 l 1,4,5
 387 48 387 48 386 43 c 128,-1,6
 385 38 385 38 385 29 c 0,7,8
 385 1 385 1 419 0 c 2,9,-1
 495 0 l 1,10,-1
 501 31 l 1,11,-1
 418 31 l 1,12,-1
 560 740 l 1,13,-1
 526 740 l 1,14,-1
 462 417 l 1,15,-1
 459 417 l 1,16,17
 445 465 445 465 406.5 492.5 c 128,-1,18
 368 520 368 520 308 520 c 0,19,20
 247 520 247 520 200.5 492 c 128,-1,21
 154 464 154 464 122 415 c 0,22,23
 58 310 58 310 58 178 c 0,24,25
 58 94 58 94 101 42 c 0,26,27
 142 -12 142 -12 220 -12 c 0,0,1
225 19 m 256,28,29
 160 19 160 19 125 65 c 0,30,31
 93 111 93 111 93 175 c 0,32,33
 93 216 93 216 99 242 c 2,34,-1
 107 286 l 2,35,36
 126 381 126 381 177 435 c 128,-1,37
 228 489 228 489 309 489 c 0,38,39
 351 489 351 489 380.5 475.5 c 128,-1,40
 410 462 410 462 426 441 c 0,41,42
 450 408 450 408 450 370 c 0,43,44
 450 357 450 357 447 344 c 2,45,-1
 420 211 l 2,46,47
 397 111 397 111 334 61 c 1,48,49
 290 19 290 19 225 19 c 256,28,29
EndSplineSet
EndChar

StartChar: e
Encoding: 101 101 70
Width: 506
Flags: W
LayerCount: 2
Fore
SplineSet
239 -12 m 0,0,1
 369 -12 369 -12 448 117 c 1,2,-1
 421 134 l 1,3,4
 391 80 391 80 345 49.5 c 128,-1,5
 299 19 299 19 240 19 c 0,6,7
 92 19 92 19 92 187 c 0,8,9
 92 198 92 198 95 230 c 1,10,11
 326 237 326 237 402 286 c 0,12,13
 471 327 471 327 471 394 c 0,14,15
 471 454 471 454 426 487 c 128,-1,16
 381 520 381 520 311 520 c 0,17,18
 255 520 255 520 208.5 494.5 c 128,-1,19
 162 469 162 469 129 424 c 0,20,21
 58 328 58 328 58 191 c 0,22,23
 58 88 58 88 104.5 38 c 128,-1,24
 151 -12 151 -12 239 -12 c 0,0,1
99 259 m 1,25,-1
 103 279 l 2,26,27
 120 373 120 373 174.5 431.5 c 128,-1,28
 229 490 229 490 307 490 c 0,29,30
 372 490 372 490 403.5 464.5 c 128,-1,31
 435 439 435 439 435 394 c 0,32,33
 435 368 435 368 421.5 345 c 128,-1,34
 408 322 408 322 373 304 c 0,35,36
 305 265 305 265 99 259 c 1,25,-1
EndSplineSet
EndChar

StartChar: f
Encoding: 102 102 71
Width: 288
Flags: W
LayerCount: 2
Fore
SplineSet
15 -200 m 2,0,1
 45 -200 45 -200 57 -187.5 c 128,-1,2
 69 -175 69 -175 74 -148 c 2,3,-1
 198 477 l 1,4,-1
 302 477 l 1,5,-1
 308 508 l 1,6,-1
 204 508 l 1,7,-1
 243 709 l 1,8,-1
 349 709 l 1,9,-1
 355 740 l 1,10,-1
 265 740 l 2,11,12
 235 740 235 740 222.5 727.5 c 128,-1,13
 210 715 210 715 205 688 c 2,14,-1
 170 508 l 1,15,-1
 74 508 l 1,16,-1
 68 477 l 1,17,-1
 164 477 l 1,18,-1
 36 -169 l 1,19,-1
 -59 -169 l 1,20,-1
 -65 -200 l 1,21,-1
 15 -200 l 2,0,1
EndSplineSet
EndChar

StartChar: g
Encoding: 103 103 72
Width: 554
Flags: W
LayerCount: 2
Fore
SplineSet
180 -212 m 0,0,1
 70 -212 70 -212 16 -140 c 1,2,-1
 41 -118 l 1,3,4
 85 -181 85 -181 180 -181 c 0,5,6
 342 -181 342 -181 377 -9 c 2,7,-1
 400 111 l 1,8,-1
 397 111 l 1,9,10
 366 53 366 53 324 20.5 c 128,-1,11
 282 -12 282 -12 220 -12 c 0,12,13
 143 -12 143 -12 100.5 41.5 c 128,-1,14
 58 95 58 95 58 178 c 0,15,16
 58 266 58 266 86.5 344 c 128,-1,17
 115 422 115 422 171 471 c 128,-1,18
 227 520 227 520 308 520 c 0,19,20
 427 520 427 520 459 417 c 1,21,-1
 462 417 l 1,22,-1
 480 508 l 1,23,-1
 515 508 l 1,24,-1
 410 -16 l 2,25,26
 390 -114 390 -114 331.5 -163 c 128,-1,27
 273 -212 273 -212 180 -212 c 0,0,1
225 19 m 0,28,29
 288 19 288 19 334 61 c 0,30,31
 396 111 396 111 420 211 c 2,32,-1
 447 344 l 2,33,34
 450 357 450 357 450 369 c 0,35,36
 450 390 450 390 440.5 417 c 128,-1,37
 431 444 431 444 398.5 466.5 c 128,-1,38
 366 489 366 489 309 489 c 0,39,40
 229 489 229 489 177.5 435 c 128,-1,41
 126 381 126 381 107 286 c 2,42,-1
 99 242 l 2,43,44
 93 214 93 214 93 175 c 0,45,46
 93 111 93 111 124.5 65 c 128,-1,47
 156 19 156 19 225 19 c 0,28,29
EndSplineSet
EndChar

StartChar: h
Encoding: 104 104 73
Width: 552
Flags: W
LayerCount: 2
Fore
SplineSet
484 0 m 1,0,-1
 490 31 l 1,1,-1
 408 31 l 1,2,-1
 466 320 l 2,3,4
 473 356 473 356 473 386 c 0,5,6
 473 449 473 449 439 484.5 c 128,-1,7
 405 520 405 520 340 520 c 0,8,9
 280 520 280 520 238 490.5 c 128,-1,10
 196 461 196 461 167 404 c 1,11,-1
 164 404 l 1,12,-1
 230 740 l 1,13,-1
 196 740 l 1,14,-1
 49 0 l 1,15,-1
 83 0 l 1,16,-1
 144 306 l 1,17,18
 166 390 166 390 208 432 c 0,19,20
 258 489 258 489 332 489 c 0,21,22
 439 489 439 489 439 380 c 0,23,24
 439 357 439 357 432 320 c 0,25,26
 375 36 375 36 375 28 c 0,27,28
 375 0 375 0 407 0 c 2,29,-1
 484 0 l 1,0,-1
EndSplineSet
EndChar

StartChar: i
Encoding: 105 105 74
Width: 242
Flags: W
LayerCount: 2
Fore
SplineSet
200 664 m 0,0,1
 236 664 236 664 236 705 c 0,2,3
 236 726 236 726 211 726 c 0,4,5
 180 726 180 726 178 702 c 0,6,7
 175 693 175 693 175 685 c 0,8,9
 175 664 175 664 200 664 c 0,0,1
165 0 m 1,10,-1
 171 31 l 1,11,-1
 89 31 l 1,12,-1
 184 508 l 1,13,-1
 150 508 l 1,14,15
 56 36 56 36 56 28 c 0,16,17
 56 0 56 0 89 0 c 2,18,-1
 165 0 l 1,10,-1
EndSplineSet
EndChar

StartChar: j
Encoding: 106 106 75
Width: 234
Flags: W
LayerCount: 2
Fore
SplineSet
-5 -200 m 2,0,1
 24 -200 24 -200 36 -189 c 128,-1,2
 48 -178 48 -178 53 -151 c 2,3,-1
 185 508 l 1,4,-1
 151 508 l 1,5,-1
 15 -169 l 1,6,-1
 -69 -169 l 1,7,-1
 -76 -200 l 1,8,-1
 -5 -200 l 2,0,1
201 664 m 0,9,10
 230 664 230 664 234 688 c 2,11,-1
 237 700 l 1,12,-1
 237 706 l 2,13,14
 237 726 237 726 211 726 c 0,15,16
 175 726 175 726 175 685 c 0,17,18
 175 664 175 664 201 664 c 0,9,10
EndSplineSet
EndChar

StartChar: k
Encoding: 107 107 76
Width: 488
Flags: W
LayerCount: 2
Fore
SplineSet
438 0 m 1,0,-1
 444 31 l 1,1,-1
 385 31 l 1,2,-1
 252 296 l 1,3,-1
 492 508 l 1,4,-1
 449 508 l 1,5,6
 292 370 292 370 134 234 c 1,7,-1
 130 234 l 1,8,-1
 231 740 l 1,9,-1
 197 740 l 1,10,-1
 49 0 l 1,11,-1
 83 0 l 1,12,-1
 121 187 l 1,13,-1
 226 276 l 1,14,-1
 349 29 l 2,15,16
 357 13 357 13 365.5 6.5 c 128,-1,17
 374 0 374 0 391 0 c 2,18,-1
 438 0 l 1,0,-1
EndSplineSet
EndChar

StartChar: l
Encoding: 108 108 77
Width: 242
Flags: W
LayerCount: 2
Fore
SplineSet
167 0 m 1,0,-1
 173 31 l 1,1,-1
 90 31 l 1,2,-1
 231 740 l 1,3,-1
 197 740 l 1,4,5
 57 36 57 36 57 28 c 0,6,7
 57 0 57 0 90 0 c 2,8,-1
 167 0 l 1,0,-1
EndSplineSet
EndChar

StartChar: m
Encoding: 109 109 78
Width: 844
Flags: W
LayerCount: 2
Fore
SplineSet
776 0 m 1,0,-1
 783 31 l 1,1,-1
 700 31 l 1,2,-1
 758 321 l 2,3,4
 765 356 765 356 765 386 c 0,5,6
 765 450 765 450 732.5 485 c 128,-1,7
 700 520 700 520 638 520 c 0,8,9
 577 520 577 520 533 488 c 128,-1,10
 489 456 489 456 463 399 c 1,11,-1
 459 399 l 1,12,13
 457 452 457 452 425.5 486 c 128,-1,14
 394 520 394 520 334 520 c 0,15,16
 224 520 224 520 167 404 c 1,17,-1
 164 404 l 1,18,-1
 185 508 l 1,19,-1
 151 508 l 1,20,-1
 49 0 l 1,21,-1
 83 0 l 1,22,-1
 144 306 l 1,23,24
 165 386 165 386 209 432 c 0,25,26
 258 489 258 489 325 489 c 0,27,28
 425 489 425 489 425 383 c 0,29,30
 425 371 425 371 423 352.5 c 128,-1,31
 421 334 421 334 354 0 c 1,32,-1
 388 0 l 1,33,-1
 451 312 l 2,34,35
 469 388 469 388 510 432 c 0,36,37
 561 489 561 489 629 489 c 0,38,39
 731 489 731 489 731 381 c 0,40,41
 731 357 731 357 724 320 c 0,42,43
 666 37 666 37 666 28 c 0,44,45
 666 0 666 0 700 0 c 2,46,-1
 776 0 l 1,0,-1
EndSplineSet
EndChar

StartChar: n
Encoding: 110 110 79
Width: 552
Flags: W
LayerCount: 2
Fore
SplineSet
484 0 m 1,0,-1
 490 31 l 1,1,-1
 408 31 l 1,2,-1
 466 320 l 2,3,4
 473 356 473 356 473 386 c 0,5,6
 473 449 473 449 439.5 484.5 c 128,-1,7
 406 520 406 520 341 520 c 0,8,9
 280 520 280 520 238 490.5 c 128,-1,10
 196 461 196 461 167 404 c 1,11,-1
 164 404 l 1,12,-1
 185 508 l 1,13,-1
 151 508 l 1,14,-1
 49 0 l 1,15,-1
 83 0 l 1,16,-1
 144 306 l 2,17,18
 160 378 160 378 208 432 c 0,19,20
 260 489 260 489 332 489 c 0,21,22
 438 489 438 489 438 382 c 0,23,24
 438 352 438 352 432 320 c 0,25,26
 375 36 375 36 375 28 c 0,27,28
 375 0 375 0 407 0 c 2,29,-1
 484 0 l 1,0,-1
EndSplineSet
EndChar

StartChar: o
Encoding: 111 111 80
Width: 538
Flags: W
LayerCount: 2
Fore
SplineSet
227 -12 m 0,0,1
 288 -12 288 -12 335.5 15.5 c 128,-1,2
 383 43 383 43 416 91 c 0,3,4
 481 194 481 194 481 332 c 0,5,6
 481 415 481 415 436 467.5 c 128,-1,7
 391 520 391 520 311 520 c 0,8,9
 192 520 192 520 123 417 c 0,10,11
 57 314 57 314 57 176 c 0,12,13
 57 94 57 94 102.5 41 c 128,-1,14
 148 -12 148 -12 227 -12 c 0,0,1
231 19 m 0,15,16
 159 19 159 19 125 63 c 128,-1,17
 91 107 91 107 91 171 c 0,18,19
 91 207 91 207 96 237 c 2,20,-1
 105 285 l 1,21,22
 151 489 151 489 307 489 c 0,23,24
 379 489 379 489 413 444 c 128,-1,25
 447 399 447 399 447 337 c 0,26,27
 447 301 447 301 442 271 c 2,28,-1
 433 223 l 1,29,30
 387 19 387 19 231 19 c 0,15,16
EndSplineSet
EndChar

StartChar: p
Encoding: 112 112 81
Width: 564
Flags: W
LayerCount: 2
Fore
SplineSet
44 -200 m 1,0,-1
 102 91 l 1,1,-1
 104 91 l 1,2,3
 118 43 118 43 156.5 15.5 c 128,-1,4
 195 -12 195 -12 255 -12 c 0,5,6
 316 -12 316 -12 363 16 c 128,-1,7
 410 44 410 44 442 93 c 0,8,9
 505 198 505 198 505 330 c 0,10,11
 505 414 505 414 463 467 c 128,-1,12
 421 520 421 520 343 520 c 0,13,14
 281 520 281 520 239.5 487.5 c 128,-1,15
 198 455 198 455 166 397 c 1,16,-1
 163 397 l 1,17,-1
 186 508 l 1,18,-1
 151 508 l 1,19,-1
 10 -200 l 1,20,-1
 44 -200 l 1,0,-1
254 19 m 0,21,22
 175 19 175 19 138 67 c 0,23,24
 113 101 113 101 113 138 c 0,25,26
 113 151 113 151 116 164 c 2,27,-1
 143 297 l 2,28,29
 167 398 167 398 229 447 c 1,30,31
 274 489 274 489 338 489 c 0,32,33
 406 489 406 489 438 443.5 c 128,-1,34
 470 398 470 398 470 333 c 0,35,36
 470 293 470 293 464 266 c 2,37,-1
 456 222 l 2,38,39
 437 127 437 127 386 73 c 128,-1,40
 335 19 335 19 254 19 c 0,21,22
EndSplineSet
EndChar

StartChar: q
Encoding: 113 113 82
Width: 563
Flags: W
LayerCount: 2
Fore
SplineSet
372 -200 m 1,0,-1
 514 508 l 1,1,-1
 480 508 l 1,2,-1
 462 417 l 1,3,-1
 459 417 l 1,4,5
 445 465 445 465 406.5 492.5 c 128,-1,6
 368 520 368 520 308 520 c 0,7,8
 247 520 247 520 200.5 492 c 128,-1,9
 154 464 154 464 122 415 c 0,10,11
 58 310 58 310 58 178 c 0,12,13
 58 94 58 94 101 42 c 0,14,15
 142 -12 142 -12 220 -12 c 0,16,17
 282 -12 282 -12 324 20.5 c 128,-1,18
 366 53 366 53 397 111 c 1,19,-1
 400 111 l 1,20,-1
 338 -200 l 1,21,-1
 372 -200 l 1,0,-1
225 19 m 256,22,23
 160 19 160 19 125 65 c 0,24,25
 93 111 93 111 93 175 c 0,26,27
 93 216 93 216 99 242 c 2,28,-1
 107 286 l 2,29,30
 126 381 126 381 177 435 c 128,-1,31
 228 489 228 489 309 489 c 0,32,33
 351 489 351 489 380.5 475.5 c 128,-1,34
 410 462 410 462 426 441 c 0,35,36
 450 408 450 408 450 370 c 0,37,38
 450 357 450 357 447 344 c 2,39,-1
 420 211 l 2,40,41
 397 111 397 111 334 61 c 1,42,43
 290 19 290 19 225 19 c 256,22,23
EndSplineSet
EndChar

StartChar: r
Encoding: 114 114 83
Width: 344
Flags: W
LayerCount: 2
Fore
SplineSet
83 0 m 1,0,-1
 142 296 l 2,1,2
 157 372 157 372 206 423.5 c 128,-1,3
 255 475 255 475 328 475 c 2,4,-1
 358 475 l 1,5,-1
 365 508 l 1,6,-1
 334 508 l 2,7,8
 267 508 267 508 228 476.5 c 128,-1,9
 189 445 189 445 166 397 c 1,10,-1
 162 397 l 1,11,-1
 185 508 l 1,12,-1
 151 508 l 1,13,-1
 49 0 l 1,14,-1
 83 0 l 1,0,-1
EndSplineSet
EndChar

StartChar: s
Encoding: 115 115 84
Width: 468
Flags: W
LayerCount: 2
Fore
SplineSet
212 -12 m 0,0,1
 293 -12 293 -12 339.5 25.5 c 128,-1,2
 386 63 386 63 386 134 c 0,3,4
 386 225 386 225 264 267 c 2,5,-1
 224 282 l 2,6,7
 123 319 123 319 123 385 c 0,8,9
 123 437 123 437 158.5 463 c 128,-1,10
 194 489 194 489 254 489 c 0,11,12
 313 489 313 489 346 469 c 128,-1,13
 379 449 379 449 400 422 c 1,14,-1
 425 445 l 1,15,16
 362 520 362 520 255 520 c 0,17,18
 185 520 185 520 137 486 c 128,-1,19
 89 452 89 452 89 383 c 0,20,21
 89 294 89 294 211 251 c 2,22,-1
 252 236 l 2,23,24
 351 200 351 200 351 131 c 0,25,26
 351 22 351 22 213 19 c 0,27,28
 105 19 105 19 48 103 c 1,29,-1
 21 83 l 1,30,31
 86 -12 86 -12 212 -12 c 0,0,1
EndSplineSet
EndChar

StartChar: t
Encoding: 116 116 85
Width: 306
Flags: W
LayerCount: 2
Fore
SplineSet
212 0 m 1,0,-1
 218 31 l 1,1,-1
 108 31 l 1,2,-1
 197 477 l 1,3,-1
 315 477 l 1,4,-1
 321 508 l 1,5,-1
 203 508 l 1,6,-1
 232 652 l 1,7,-1
 198 652 l 1,8,-1
 175 539 l 2,9,10
 172 522 172 522 165 515 c 128,-1,11
 158 508 158 508 141 508 c 2,12,-1
 78 508 l 1,13,-1
 72 477 l 1,14,-1
 163 477 l 1,15,16
 79 56 79 56 77 47 c 128,-1,17
 75 38 75 38 75 30 c 0,18,19
 75 0 75 0 109 0 c 2,20,-1
 212 0 l 1,0,-1
EndSplineSet
EndChar

StartChar: u
Encoding: 117 117 86
Width: 551
Flags: W
LayerCount: 2
Fore
SplineSet
203 -12 m 0,0,1
 264 -12 264 -12 305.5 17.5 c 128,-1,2
 347 47 347 47 376 104 c 1,3,-1
 379 104 l 1,4,5
 368 50 368 50 367 43.5 c 128,-1,6
 366 37 366 37 366 29 c 0,7,8
 366 1 366 1 399 0 c 2,9,-1
 475 0 l 1,10,-1
 481 31 l 1,11,-1
 399 31 l 1,12,-1
 494 508 l 1,13,-1
 460 508 l 1,14,-1
 399 202 l 1,15,16
 378 119 378 119 335 76 c 0,17,18
 285 19 285 19 211 19 c 0,19,20
 105 19 105 19 105 128 c 0,21,22
 105 138 105 138 107 155 c 0,23,24
 110 177 110 177 176 508 c 1,25,-1
 142 508 l 1,26,-1
 78 188 l 2,27,28
 71 152 71 152 71 123 c 0,29,30
 71 59 71 59 105 23.5 c 128,-1,31
 139 -12 139 -12 203 -12 c 0,0,1
EndSplineSet
EndChar

StartChar: v
Encoding: 118 118 87
Width: 466
Flags: W
LayerCount: 2
Fore
SplineSet
200 0 m 1,0,-1
 487 508 l 1,1,-1
 450 508 l 1,2,-1
 187 38 l 1,3,-1
 184 38 l 1,4,-1
 105 508 l 1,5,-1
 72 508 l 1,6,-1
 159 0 l 1,7,-1
 200 0 l 1,0,-1
EndSplineSet
EndChar

StartChar: w
Encoding: 119 119 88
Width: 723
Flags: W
LayerCount: 2
Fore
SplineSet
488 0 m 1,0,-1
 739 508 l 1,1,-1
 704 508 l 1,2,-1
 475 41 l 1,3,-1
 472 41 l 1,4,-1
 425 508 l 1,5,-1
 390 508 l 1,6,-1
 154 40 l 1,7,-1
 151 40 l 1,8,-1
 111 508 l 1,9,-1
 78 508 l 1,10,-1
 124 0 l 1,11,-1
 167 0 l 1,12,-1
 397 455 l 1,13,-1
 400 455 l 1,14,-1
 446 0 l 1,15,-1
 488 0 l 1,0,-1
EndSplineSet
EndChar

StartChar: x
Encoding: 120 120 89
Width: 478
Flags: W
LayerCount: 2
Fore
SplineSet
393 0 m 1,0,-1
 260 255 l 1,1,-1
 484 508 l 1,2,-1
 442 508 l 1,3,-1
 245 282 l 1,4,-1
 242 282 l 1,5,-1
 123 508 l 1,6,-1
 86 508 l 1,7,-1
 217 259 l 1,8,-1
 -10 0 l 1,9,-1
 32 0 l 1,10,-1
 232 232 l 1,11,-1
 235 232 l 1,12,-1
 356 0 l 1,13,-1
 393 0 l 1,0,-1
EndSplineSet
EndChar

StartChar: y
Encoding: 121 121 90
Width: 466
Flags: W
LayerCount: 2
Fore
SplineSet
53 -200 m 2,0,1
 73 -200 73 -200 85 -191 c 128,-1,2
 97 -182 97 -182 108 -161 c 2,3,-1
 487 508 l 1,4,-1
 450 508 l 1,5,-1
 188 38 l 1,6,-1
 184 38 l 1,7,-1
 105 508 l 1,8,-1
 72 508 l 1,9,-1
 161 -6 l 1,10,-1
 69 -170 l 1,11,-1
 -17 -170 l 1,12,-1
 -23 -200 l 1,13,-1
 53 -200 l 2,0,1
EndSplineSet
EndChar

StartChar: z
Encoding: 122 122 91
Width: 434
Flags: W
LayerCount: 2
Fore
SplineSet
351 0 m 1,0,-1
 357 31 l 1,1,-1
 44 31 l 1,2,-1
 430 477 l 1,3,-1
 436 508 l 1,4,-1
 96 508 l 1,5,-1
 90 478 l 1,6,-1
 391 478 l 1,7,-1
 4 31 l 1,8,-1
 -2 0 l 1,9,-1
 351 0 l 1,0,-1
EndSplineSet
EndChar

StartChar: braceleft
Encoding: 123 123 92
Width: 319
Flags: W
LayerCount: 2
Fore
SplineSet
176 -138 m 1,0,-1
 183 -109 l 1,1,-1
 81 -109 l 1,2,-1
 142 195 l 2,3,4
 145 212 145 212 145 225 c 0,5,6
 145 299 145 299 65 302 c 1,7,-1
 69 318 l 1,8,9
 168 326 168 326 188 427 c 2,10,-1
 249 731 l 1,11,-1
 350 731 l 1,12,-1
 356 760 l 1,13,-1
 259 760 l 2,14,15
 222 760 222 760 215 720 c 2,16,-1
 156 426 l 2,17,18
 140 339 140 339 44 339 c 1,19,-1
 32 283 l 1,20,21
 70 283 70 283 91.5 270 c 128,-1,22
 113 257 113 257 113 223 c 0,23,24
 113 211 113 211 110 196 c 0,25,26
 50 -105 50 -105 50 -110 c 0,27,28
 50 -138 50 -138 81 -138 c 2,29,-1
 176 -138 l 1,0,-1
EndSplineSet
EndChar

StartChar: bar
Encoding: 124 124 93
Width: 249
Flags: W
LayerCount: 2
Fore
SplineSet
61 -138 m 1,0,-1
 241 760 l 1,1,-1
 211 760 l 1,2,-1
 31 -138 l 1,3,-1
 61 -138 l 1,0,-1
EndSplineSet
EndChar

StartChar: braceright
Encoding: 125 125 94
Width: 319
Flags: W
LayerCount: 2
Fore
SplineSet
83 -138 m 2,0,1
 119 -138 119 -138 126 -98 c 2,2,-1
 186 196 l 2,3,4
 202 283 202 283 298 283 c 1,5,-1
 309 339 l 1,6,7
 272 339 272 339 250 352 c 128,-1,8
 228 365 228 365 228 399 c 0,9,10
 228 411 228 411 231 426 c 0,11,12
 292 727 292 727 292 732 c 0,13,14
 292 760 292 760 262 760 c 2,15,-1
 165 760 l 1,16,-1
 159 731 l 1,17,-1
 261 731 l 1,18,-1
 200 427 l 2,19,20
 197 411 197 411 197 397 c 0,21,22
 197 324 197 324 276 319 c 1,23,-1
 272 303 l 1,24,25
 174 296 174 296 154 195 c 2,26,-1
 93 -109 l 1,27,-1
 -8 -109 l 1,28,-1
 -14 -138 l 1,29,-1
 83 -138 l 2,0,1
EndSplineSet
EndChar

StartChar: asciitilde
Encoding: 126 126 95
Width: 600
Flags: W
LayerCount: 2
Fore
SplineSet
422 251 m 0,0,1
 493 251 493 251 544 300 c 1,2,-1
 529 322 l 1,3,4
 484 282 484 282 428 282 c 0,5,6
 400 282 400 282 376.5 291 c 128,-1,7
 353 300 353 300 316 318.5 c 128,-1,8
 279 337 279 337 253.5 347 c 128,-1,9
 228 357 228 357 198 357 c 0,10,11
 128 357 128 357 76 308 c 1,12,-1
 91 286 l 1,13,14
 137 326 137 326 192 326 c 0,15,16
 220 326 220 326 243.5 317 c 128,-1,17
 267 308 267 308 302 290 c 0,18,19
 341 271 341 271 366.5 261 c 128,-1,20
 392 251 392 251 422 251 c 0,0,1
EndSplineSet
EndChar

StartChar: exclamdown
Encoding: 161 161 97
Width: 253
Flags: W
LayerCount: 2
Fore
SplineSet
56 -190 m 1,0,-1
 108 74 l 1,1,-1
 150 330 l 1,2,-1
 132 330 l 1,3,-1
 71 74 l 1,4,-1
 19 -190 l 1,5,-1
 56 -190 l 1,0,-1
165 440 m 0,6,7
 198 440 198 440 203 469 c 0,8,9
 206 483 206 483 206 491 c 0,10,11
 206 515 206 515 175 515 c 0,12,13
 142 515 142 515 137 486 c 0,14,15
 134 472 134 472 134 464 c 0,16,17
 134 440 134 440 165 440 c 0,6,7
EndSplineSet
EndChar

StartChar: cent
Encoding: 162 162 98
Width: 492
Flags: W
LayerCount: 2
Fore
SplineSet
204 -114 m 1,0,-1
 224 -12 l 1,1,-1
 226 -12 l 2,2,3
 347 -12 347 -12 425 117 c 1,4,-1
 398 131 l 1,5,6
 333 21 333 21 230 18 c 1,7,-1
 324 488 l 1,8,9
 404 476 404 476 426 393 c 1,10,-1
 457 404 l 1,11,12
 433 498 433 498 330 518 c 1,13,-1
 351 622 l 1,14,-1
 319 622 l 1,15,-1
 299 520 l 1,16,17
 180 515 180 515 119 421 c 128,-1,18
 58 327 58 327 58 189 c 0,19,20
 58 110 58 110 92 56.5 c 128,-1,21
 126 3 126 3 194 -9 c 1,22,-1
 173 -114 l 1,23,-1
 204 -114 l 1,0,-1
200 21 m 1,24,25
 142 31 142 31 116.5 77.5 c 128,-1,26
 91 124 91 124 91 185 c 0,27,28
 91 202 91 202 92.5 214 c 128,-1,29
 94 226 94 226 108 301 c 0,30,31
 144 478 144 478 293 489 c 1,32,-1
 200 21 l 1,24,25
EndSplineSet
EndChar

StartChar: sterling
Encoding: 163 163 99
Width: 579
Flags: W
LayerCount: 2
Fore
SplineSet
460 0 m 1,0,-1
 467 32 l 1,1,-1
 75 32 l 1,2,-1
 77 35 l 1,3,4
 203 100 203 100 213 264 c 0,5,6
 213 285 213 285 210 306 c 1,7,-1
 414 306 l 1,8,-1
 420 337 l 1,9,-1
 208 337 l 1,10,11
 196 414 196 414 196 484 c 0,12,13
 196 576 196 576 251.5 627 c 128,-1,14
 307 678 307 678 389 678 c 0,15,16
 505 678 505 678 548 574 c 1,17,-1
 580 592 l 1,18,19
 528 710 528 710 391 710 c 0,20,21
 294 710 294 710 227 650 c 0,22,23
 160 587 160 587 160 486 c 0,24,25
 160 416 160 416 172 337 c 1,26,-1
 86 337 l 1,27,-1
 80 306 l 1,28,-1
 175 306 l 1,29,30
 177 276 177 276 177 264 c 0,31,32
 177 192 177 192 143 134 c 128,-1,33
 109 76 109 76 40 43 c 1,34,-1
 31 0 l 1,35,-1
 460 0 l 1,0,-1
EndSplineSet
EndChar

StartChar: yen
Encoding: 165 165 100
Width: 573
Flags: W
LayerCount: 2
Fore
SplineSet
253 0 m 1,0,-1
 286 163 l 1,1,-1
 477 163 l 1,2,-1
 484 193 l 1,3,-1
 292 193 l 1,4,-1
 318 321 l 1,5,-1
 510 321 l 1,6,-1
 516 351 l 1,7,-1
 342 351 l 1,8,-1
 620 698 l 1,9,-1
 578 698 l 1,10,-1
 306 357 l 1,11,-1
 303 357 l 1,12,-1
 169 698 l 1,13,-1
 131 698 l 1,14,-1
 270 351 l 1,15,-1
 98 351 l 1,16,-1
 92 321 l 1,17,-1
 282 321 l 1,18,-1
 256 193 l 1,19,-1
 66 193 l 1,20,-1
 59 163 l 1,21,-1
 250 163 l 1,22,-1
 217 0 l 1,23,-1
 253 0 l 1,0,-1
EndSplineSet
EndChar

StartChar: brokenbar
Encoding: 166 166 101
Width: 249
Flags: W
LayerCount: 2
Fore
SplineSet
169 402 m 1,0,-1
 241 760 l 1,1,-1
 211 760 l 1,2,-1
 139 402 l 1,3,-1
 169 402 l 1,0,-1
61 -138 m 1,4,-1
 133 220 l 1,5,-1
 103 220 l 1,6,-1
 31 -138 l 1,7,-1
 61 -138 l 1,4,-1
EndSplineSet
EndChar

StartChar: section
Encoding: 167 167 102
Width: 562
Flags: W
LayerCount: 2
Fore
SplineSet
199 -154 m 0,0,1
 283 -154 283 -154 338 -112 c 128,-1,2
 393 -70 393 -70 393 8 c 0,3,4
 393 85 393 85 334 124 c 1,5,-1
 335 128 l 1,6,7
 480 168 480 168 480 287 c 0,8,9
 480 338 480 338 453 366.5 c 128,-1,10
 426 395 426 395 369 413 c 2,11,-1
 297 437 l 2,12,13
 252 451 252 451 228.5 477.5 c 128,-1,14
 205 504 205 504 205 550 c 0,15,16
 205 613 205 613 248.5 646 c 128,-1,17
 292 679 292 679 362 679 c 0,18,19
 451 679 451 679 493 632 c 1,20,-1
 517 656 l 1,21,22
 461 710 461 710 365 710 c 0,23,24
 281 710 281 710 226 668 c 128,-1,25
 171 626 171 626 171 548 c 0,26,27
 171 472 171 472 229 432 c 1,28,-1
 229 428 l 1,29,30
 84 385 84 385 84 268 c 0,31,32
 84 217 84 217 111 189 c 128,-1,33
 138 161 138 161 195 142 c 2,34,-1
 267 118 l 2,35,36
 312 104 312 104 335.5 77.5 c 128,-1,37
 359 51 359 51 359 6 c 0,38,39
 359 -57 359 -57 315.5 -90.5 c 128,-1,40
 272 -124 272 -124 202 -124 c 0,41,42
 114 -124 114 -124 71 -76 c 1,43,-1
 47 -100 l 1,44,45
 97 -154 97 -154 199 -154 c 0,0,1
312 136 m 1,46,-1
 286 145 l 1,47,-1
 213 169 l 2,48,49
 162 185 162 185 140.5 208.5 c 128,-1,50
 119 232 119 232 119 275 c 0,51,52
 119 329 119 329 154 364 c 128,-1,53
 189 399 189 399 252 420 c 1,54,-1
 351 387 l 2,55,56
 402 371 402 371 423.5 347.5 c 128,-1,57
 445 324 445 324 445 281 c 0,58,59
 445 227 445 227 410 192 c 128,-1,60
 375 157 375 157 312 136 c 1,46,-1
EndSplineSet
EndChar

StartChar: dieresis
Encoding: 168 168 103
Width: 600
Flags: W
LayerCount: 2
Fore
SplineSet
230 636 m 0,0,1
 245 636 245 636 251.5 643 c 128,-1,2
 258 650 258 650 261 661 c 128,-1,3
 264 672 264 672 264 677 c 0,4,5
 264 698 264 698 239 698 c 0,6,7
 224 698 224 698 217.5 691.5 c 128,-1,8
 211 685 211 685 208 673.5 c 128,-1,9
 205 662 205 662 205 657 c 0,10,11
 205 636 205 636 230 636 c 0,0,1
412 636 m 0,12,13
 427 636 427 636 433.5 643 c 128,-1,14
 440 650 440 650 443 661 c 128,-1,15
 446 672 446 672 446 677 c 0,16,17
 446 698 446 698 421 698 c 0,18,19
 406 698 406 698 399.5 691.5 c 128,-1,20
 393 685 393 685 390 673.5 c 128,-1,21
 387 662 387 662 387 657 c 0,22,23
 387 636 387 636 412 636 c 0,12,13
EndSplineSet
EndChar

StartChar: copyright
Encoding: 169 169 104
Width: 721
Flags: W
LayerCount: 2
Fore
SplineSet
327 -12 m 0,0,1
 488 -12 488 -12 598 106 c 0,2,3
 650 163 650 163 679 240.5 c 128,-1,4
 708 318 708 318 708 412 c 0,5,6
 708 549 708 549 630 629.5 c 128,-1,7
 552 710 552 710 421 710 c 0,8,9
 261 710 261 710 151 592 c 0,10,11
 99 535 99 535 69.5 457 c 128,-1,12
 40 379 40 379 40 285 c 0,13,14
 40 149 40 149 119 69 c 0,15,16
 197 -12 197 -12 327 -12 c 0,0,1
328 15 m 0,17,18
 207 15 207 15 139 90 c 128,-1,19
 71 165 71 165 71 285 c 0,20,21
 71 327 71 327 86 402 c 0,22,23
 112 521 112 521 201 601.5 c 128,-1,24
 290 682 290 682 420 682 c 0,25,26
 542 682 542 682 609.5 607 c 128,-1,27
 677 532 677 532 677 412 c 0,28,29
 677 374 677 374 662 295 c 0,30,31
 637 178 637 178 549 98 c 0,32,33
 459 15 459 15 328 15 c 0,17,18
348 150 m 0,34,35
 394 150 394 150 429.5 174 c 128,-1,36
 465 198 465 198 486 233 c 1,37,-1
 463 248 l 1,38,39
 422 179 422 179 351 179 c 0,40,41
 254 179 254 179 249 299 c 0,42,43
 249 326 249 326 258 371 c 0,44,45
 273 442 273 442 312 479 c 128,-1,46
 351 516 351 516 405 516 c 0,47,48
 475 516 475 516 499 450 c 1,49,-1
 526 460 l 1,50,51
 515 494 515 494 485 518.5 c 128,-1,52
 455 543 455 543 407 543 c 0,53,54
 323 543 323 543 269.5 475.5 c 128,-1,55
 216 408 216 408 216 301 c 0,56,57
 216 227 216 227 253 188.5 c 128,-1,58
 290 150 290 150 348 150 c 0,34,35
EndSplineSet
EndChar

StartChar: ordfeminine
Encoding: 170 170 105
Width: 363
Flags: W
LayerCount: 2
Fore
SplineSet
170 363 m 0,0,1
 251 363 251 363 291 419 c 1,2,-1
 293 419 l 1,3,-1
 287 388 l 2,4,5
 287 370 287 370 311 370 c 2,6,-1
 355 370 l 1,7,-1
 361 396 l 1,8,-1
 316 396 l 1,9,10
 358 611 358 611 358 620 c 0,11,12
 358 710 358 710 254 710 c 0,13,14
 168 710 168 710 124 643 c 1,15,-1
 144 629 l 1,16,17
 181 685 181 685 251 685 c 0,18,19
 289 685 289 685 309 670 c 128,-1,20
 329 655 329 655 329 620 c 0,21,22
 329 610 329 610 327 598 c 2,23,-1
 318 549 l 1,24,-1
 227 549 l 2,25,26
 145 549 145 549 111 518 c 128,-1,27
 77 487 77 487 77 440 c 0,28,29
 77 405 77 405 101 384 c 128,-1,30
 125 363 125 363 170 363 c 0,0,1
175 388 m 0,31,32
 108 388 108 388 107 441 c 0,33,34
 107 525 107 525 223 525 c 2,35,-1
 313 525 l 1,36,-1
 302 472 l 2,37,38
 293 431 293 431 256 409.5 c 128,-1,39
 219 388 219 388 175 388 c 0,31,32
EndSplineSet
EndChar

StartChar: guillemotleft
Encoding: 171 171 106
Width: 472
Flags: W
LayerCount: 2
Fore
SplineSet
200 99 m 1,0,-1
 216 121 l 1,1,-1
 78 288 l 1,2,-1
 284 456 l 1,3,-1
 276 483 l 1,4,-1
 46 309 l 1,5,-1
 40 276 l 1,6,-1
 200 99 l 1,0,-1
382 99 m 1,7,-1
 398 121 l 1,8,-1
 260 288 l 1,9,-1
 466 456 l 1,10,-1
 458 483 l 1,11,-1
 228 309 l 1,12,-1
 222 276 l 1,13,-1
 382 99 l 1,7,-1
EndSplineSet
EndChar

StartChar: logicalnot
Encoding: 172 172 107
Width: 601
Flags: W
LayerCount: 2
Fore
SplineSet
492 98 m 1,0,-1
 537 320 l 1,1,-1
 78 320 l 1,2,-1
 72 290 l 1,3,-1
 499 290 l 1,4,-1
 460 98 l 1,5,-1
 492 98 l 1,0,-1
EndSplineSet
EndChar

StartChar: u00AD
Encoding: 173 173 108
Width: 388
Flags: W
LayerCount: 2
Fore
SplineSet
318 287 m 1,0,-1
 325 322 l 1,1,-1
 90 322 l 1,2,-1
 83 287 l 1,3,-1
 318 287 l 1,0,-1
EndSplineSet
EndChar

StartChar: registered
Encoding: 174 174 109
Width: 467
Flags: W
LayerCount: 2
Fore
SplineSet
254 298 m 0,0,1
 314 298 314 298 357.5 320.5 c 128,-1,2
 401 343 401 343 429 379.5 c 128,-1,3
 457 416 457 416 470.5 458.5 c 128,-1,4
 484 501 484 501 484 542 c 0,5,6
 484 616 484 616 436 663 c 128,-1,7
 388 710 388 710 311 710 c 0,8,9
 251 710 251 710 207.5 687.5 c 128,-1,10
 164 665 164 665 136.5 628.5 c 128,-1,11
 109 592 109 592 95.5 549.5 c 128,-1,12
 82 507 82 507 82 466 c 0,13,14
 82 393 82 393 130 345.5 c 128,-1,15
 178 298 178 298 254 298 c 0,0,1
257 319 m 0,16,17
 188 319 188 319 146.5 360 c 128,-1,18
 105 401 105 401 105 467 c 0,19,20
 105 484 105 484 113 525 c 0,21,22
 128 597 128 597 179 643 c 128,-1,23
 230 689 230 689 308 689 c 0,24,25
 377 689 377 689 418.5 648 c 128,-1,26
 460 607 460 607 460 541 c 0,27,28
 460 515 460 515 453 483 c 0,29,30
 436 411 436 411 385.5 365 c 128,-1,31
 335 319 335 319 257 319 c 0,16,17
348 398 m 1,32,-1
 313 488 l 1,33,34
 338 490 338 490 355 508.5 c 128,-1,35
 372 527 372 527 372 561 c 0,36,37
 372 608 372 608 318 609 c 2,38,-1
 238 609 l 1,39,-1
 196 398 l 1,40,-1
 218 398 l 1,41,-1
 235 486 l 1,42,-1
 292 486 l 1,43,-1
 325 398 l 1,44,-1
 348 398 l 1,32,-1
296 505 m 2,45,-1
 239 505 l 1,46,-1
 256 590 l 1,47,-1
 314 590 l 2,48,49
 349 590 349 590 349 562 c 0,50,51
 349 556 349 556 346 540 c 0,52,53
 342 519 342 519 329.5 512 c 128,-1,54
 317 505 317 505 296 505 c 2,45,-1
EndSplineSet
EndChar

StartChar: macron
Encoding: 175 175 110
Width: 600
Flags: W
LayerCount: 2
Fore
SplineSet
452 653 m 1,0,-1
 458 683 l 1,1,-1
 197 683 l 1,2,-1
 191 653 l 1,3,-1
 452 653 l 1,0,-1
EndSplineSet
EndChar

StartChar: degree
Encoding: 176 176 111
Width: 463
Flags: W
LayerCount: 2
Fore
SplineSet
269 372 m 0,0,1
 346 372 346 372 398 425 c 128,-1,2
 450 478 450 478 450 560 c 0,3,4
 450 626 450 626 410 668 c 128,-1,5
 370 710 370 710 308 710 c 0,6,7
 232 710 232 710 179.5 657.5 c 128,-1,8
 127 605 127 605 127 522 c 0,9,10
 127 456 127 456 167.5 414 c 128,-1,11
 208 372 208 372 269 372 c 0,0,1
273 402 m 0,12,13
 218 402 218 402 189 436.5 c 128,-1,14
 160 471 160 471 160 524 c 0,15,16
 160 590 160 590 201.5 635 c 128,-1,17
 243 680 243 680 304 680 c 0,18,19
 359 680 359 680 388 645.5 c 128,-1,20
 417 611 417 611 417 558 c 0,21,22
 417 492 417 492 376 447 c 128,-1,23
 335 402 335 402 273 402 c 0,12,13
EndSplineSet
EndChar

StartChar: plusminus
Encoding: 177 177 112
Width: 600
Flags: W
LayerCount: 2
Fore
SplineSet
291 124 m 1,0,-1
 336 350 l 1,1,-1
 554 350 l 1,2,-1
 560 380 l 1,3,-1
 342 380 l 1,4,-1
 387 606 l 1,5,-1
 354 606 l 1,6,-1
 308 380 l 1,7,-1
 90 380 l 1,8,-1
 84 350 l 1,9,-1
 303 350 l 1,10,-1
 258 124 l 1,11,-1
 291 124 l 1,0,-1
484 0 m 1,12,-1
 490 30 l 1,13,-1
 20 30 l 1,14,-1
 14 0 l 1,15,-1
 484 0 l 1,12,-1
EndSplineSet
EndChar

StartChar: u00B2
Encoding: 178 178 113
Width: 338
Flags: W
LayerCount: 2
Fore
SplineSet
309 329 m 1,0,-1
 314 354 l 1,1,-1
 90 354 l 1,2,-1
 229 450 l 2,3,4
 287 489 287 489 319.5 525 c 128,-1,5
 352 561 352 561 352 608 c 0,6,7
 352 650 352 650 322.5 677 c 128,-1,8
 293 704 293 704 242 704 c 0,9,10
 144 704 144 704 104 615 c 1,11,-1
 129 605 l 1,12,13
 161 679 161 679 239 679 c 0,14,15
 319 679 319 679 321 607 c 0,16,17
 321 600 321 600 318 583 c 0,18,19
 305 529 305 529 213 468 c 2,20,-1
 58 358 l 1,21,-1
 52 329 l 1,22,-1
 309 329 l 1,0,-1
EndSplineSet
EndChar

StartChar: u00B3
Encoding: 179 179 114
Width: 344
Flags: W
LayerCount: 2
Fore
SplineSet
188 323 m 0,0,1
 252 323 252 323 289.5 356 c 128,-1,2
 327 389 327 389 327 444 c 0,3,4
 327 509 327 509 265 519 c 1,5,-1
 265 521 l 1,6,7
 355 538 355 538 355 616 c 0,8,9
 355 656 355 656 328.5 680 c 128,-1,10
 302 704 302 704 250 704 c 0,11,12
 165 704 165 704 124 649 c 1,13,-1
 143 633 l 1,14,15
 163 656 163 656 187 667.5 c 128,-1,16
 211 679 211 679 247 679 c 0,17,18
 287 679 287 679 306 662 c 128,-1,19
 325 645 325 645 325 616 c 0,20,21
 325 606 325 606 324 601 c 2,22,-1
 323 598 l 1,23,24
 313 533 313 533 215 533 c 2,25,-1
 169 533 l 1,26,-1
 165 508 l 1,27,-1
 215 508 l 2,28,29
 260 508 260 508 279 491.5 c 128,-1,30
 298 475 298 475 298 444 c 0,31,32
 298 432 298 432 297 427 c 2,33,-1
 296 424 l 1,34,35
 280 348 280 348 189 348 c 0,36,37
 146 348 146 348 123 361.5 c 128,-1,38
 100 375 100 375 88 398 c 1,39,-1
 67 383 l 1,40,41
 96 323 96 323 188 323 c 0,0,1
EndSplineSet
EndChar

StartChar: acute
Encoding: 180 180 115
Width: 600
Flags: W
LayerCount: 2
Fore
SplineSet
298 587 m 1,0,-1
 439 739 l 1,1,-1
 410 758 l 1,2,-1
 276 601 l 1,3,-1
 298 587 l 1,0,-1
EndSplineSet
EndChar

StartChar: mu
Encoding: 181 181 116
Width: 558
Flags: W
LayerCount: 2
Fore
SplineSet
43 -200 m 1,0,-1
 75 -44 l 1,1,-1
 92 74 l 1,2,-1
 94 74 l 1,3,4
 117 -12 117 -12 213 -12 c 0,5,6
 276 -12 276 -12 316 18 c 128,-1,7
 356 48 356 48 384 105 c 1,8,-1
 387 105 l 1,9,-1
 379 65 l 2,10,11
 374 39 374 39 374 31 c 0,12,13
 374 0 374 0 410 0 c 128,-1,14
 446 0 446 0 483 0 c 1,15,-1
 489 31 l 1,16,-1
 407 31 l 1,17,-1
 502 508 l 1,18,-1
 468 508 l 1,19,-1
 407 202 l 1,20,21
 387 124 387 124 343 76 c 0,22,23
 293 19 293 19 219 19 c 0,24,25
 113 19 113 19 113 128 c 0,26,27
 113 138 113 138 115 155 c 0,28,29
 118 177 118 177 184 508 c 1,30,-1
 150 508 l 1,31,-1
 9 -200 l 1,32,-1
 43 -200 l 1,0,-1
EndSplineSet
EndChar

StartChar: paragraph
Encoding: 182 182 117
Width: 599
Flags: W
LayerCount: 2
Fore
SplineSet
357 -149 m 1,0,-1
 521 669 l 1,1,-1
 589 669 l 1,2,-1
 595 698 l 1,3,-1
 344 698 l 2,4,5
 238 698 238 698 168 639.5 c 128,-1,6
 98 581 98 581 98 483 c 0,7,8
 98 411 98 411 144.5 367 c 128,-1,9
 191 323 191 323 261 323 c 1,10,-1
 166 -149 l 1,11,-1
 199 -149 l 1,12,-1
 363 669 l 1,13,-1
 488 669 l 1,14,-1
 325 -149 l 1,15,-1
 357 -149 l 1,0,-1
EndSplineSet
EndChar

StartChar: periodcentered
Encoding: 183 183 118
Width: 302
Flags: W
LayerCount: 2
Fore
SplineSet
152 267 m 0,0,1
 185 267 185 267 190 296 c 0,2,3
 193 310 193 310 193 318 c 0,4,5
 193 342 193 342 162 342 c 0,6,7
 129 342 129 342 124 313 c 0,8,9
 121 299 121 299 121 291 c 0,10,11
 121 267 121 267 152 267 c 0,0,1
EndSplineSet
EndChar

StartChar: cedilla
Encoding: 184 184 119
Width: 600
Flags: W
LayerCount: 2
Fore
SplineSet
275 -203 m 0,0,1
 320 -203 320 -203 346.5 -180 c 128,-1,2
 373 -157 373 -157 373 -123 c 0,3,4
 373 -70 373 -70 315 -69 c 0,5,6
 304 -69 304 -69 292 -71 c 2,7,-1
 286 -72 l 1,8,-1
 284 -70 l 1,9,-1
 316 7 l 1,10,-1
 290 7 l 1,11,-1
 254 -82 l 1,12,-1
 289 -84 l 2,13,14
 319 -86 319 -86 330.5 -96.5 c 128,-1,15
 342 -107 342 -107 342 -124 c 0,16,17
 342 -147 342 -147 323.5 -162 c 128,-1,18
 305 -177 305 -177 275 -177 c 0,19,20
 233 -177 233 -177 214 -150 c 1,21,-1
 194 -170 l 1,22,23
 215 -203 215 -203 275 -203 c 0,0,1
EndSplineSet
EndChar

StartChar: u00B9
Encoding: 185 185 120
Width: 305
Flags: W
LayerCount: 2
Fore
SplineSet
210 329 m 1,0,-1
 182 329 l 1,1,-1
 249 671 l 1,2,-1
 161 629 l 1,3,-1
 166 657 l 1,4,-1
 251 698 l 1,5,-1
 283 698 l 1,6,-1
 210 329 l 1,0,-1
EndSplineSet
EndChar

StartChar: ordmasculine
Encoding: 186 186 121
Width: 370
Flags: W
LayerCount: 2
Fore
SplineSet
211 363 m 0,0,1
 293 363 293 363 341 432 c 0,2,3
 385 500 385 500 385 582 c 0,4,5
 385 639 385 639 353.5 674.5 c 128,-1,6
 322 710 322 710 269 710 c 0,7,8
 188 710 188 710 139 642 c 1,9,10
 95 574 95 574 95 491 c 0,11,12
 95 434 95 434 126.5 398.5 c 128,-1,13
 158 363 158 363 211 363 c 0,0,1
214 388 m 0,14,15
 167 388 167 388 145.5 417 c 128,-1,16
 124 446 124 446 124 489 c 0,17,18
 124 506 124 506 128 521 c 2,19,-1
 136 562 l 2,20,21
 147 616 147 616 180 650.5 c 128,-1,22
 213 685 213 685 266 685 c 0,23,24
 313 685 313 685 334.5 656 c 128,-1,25
 356 627 356 627 356 584 c 0,26,27
 356 568 356 568 352 552 c 2,28,-1
 344 511 l 2,29,30
 333 457 333 457 300 422.5 c 128,-1,31
 267 388 267 388 214 388 c 0,14,15
EndSplineSet
EndChar

StartChar: guillemotright
Encoding: 187 187 122
Width: 472
Flags: W
LayerCount: 2
Fore
SplineSet
207 99 m 1,0,-1
 437 274 l 1,1,-1
 444 307 l 1,2,-1
 284 483 l 1,3,-1
 267 462 l 1,4,-1
 405 294 l 1,5,-1
 199 126 l 1,6,-1
 207 99 l 1,0,-1
25 99 m 1,7,-1
 255 274 l 1,8,-1
 262 307 l 1,9,-1
 102 483 l 1,10,-1
 85 462 l 1,11,-1
 223 294 l 1,12,-1
 17 126 l 1,13,-1
 25 99 l 1,7,-1
EndSplineSet
EndChar

StartChar: onequarter
Encoding: 188 188 123
Width: 789
Flags: W
LayerCount: 2
Fore
SplineSet
129 0 m 1,0,-1
 735 698 l 1,1,-1
 701 698 l 1,2,-1
 95 0 l 1,3,-1
 129 0 l 1,0,-1
657 0 m 1,4,-1
 674 85 l 1,5,-1
 737 85 l 1,6,-1
 742 109 l 1,7,-1
 680 109 l 1,8,-1
 731 369 l 1,9,-1
 692 369 l 1,10,-1
 446 112 l 1,11,-1
 441 85 l 1,12,-1
 646 85 l 1,13,-1
 629 0 l 1,14,-1
 657 0 l 1,4,-1
651 109 m 1,15,-1
 477 109 l 1,16,-1
 694 337 l 1,17,-1
 697 337 l 1,18,-1
 651 109 l 1,15,-1
210 329 m 1,19,-1
 182 329 l 1,20,-1
 249 671 l 1,21,-1
 161 629 l 1,22,-1
 166 657 l 1,23,-1
 251 698 l 1,24,-1
 283 698 l 1,25,-1
 210 329 l 1,19,-1
EndSplineSet
EndChar

StartChar: onehalf
Encoding: 189 189 124
Width: 806
Flags: W
LayerCount: 2
Fore
SplineSet
129 0 m 1,0,-1
 735 698 l 1,1,-1
 701 698 l 1,2,-1
 95 0 l 1,3,-1
 129 0 l 1,0,-1
713 0 m 1,4,-1
 718 25 l 1,5,-1
 494 25 l 1,6,-1
 633 121 l 2,7,8
 691 160 691 160 723.5 196 c 128,-1,9
 756 232 756 232 756 279 c 0,10,11
 756 321 756 321 726.5 348 c 128,-1,12
 697 375 697 375 646 375 c 0,13,14
 548 375 548 375 508 286 c 1,15,-1
 533 276 l 1,16,17
 565 350 565 350 643 350 c 0,18,19
 723 350 723 350 725 278 c 0,20,21
 725 271 725 271 722 254 c 0,22,23
 709 200 709 200 617 139 c 2,24,-1
 462 29 l 1,25,-1
 456 0 l 1,26,-1
 713 0 l 1,4,-1
210 329 m 1,27,-1
 182 329 l 1,28,-1
 249 671 l 1,29,-1
 161 629 l 1,30,-1
 166 657 l 1,31,-1
 251 698 l 1,32,-1
 283 698 l 1,33,-1
 210 329 l 1,27,-1
EndSplineSet
EndChar

StartChar: threequarters
Encoding: 190 190 125
Width: 814
Flags: W
LayerCount: 2
Fore
SplineSet
188 323 m 0,0,1
 252 323 252 323 289.5 356 c 128,-1,2
 327 389 327 389 327 444 c 0,3,4
 327 509 327 509 265 519 c 1,5,-1
 265 521 l 1,6,7
 355 538 355 538 355 616 c 0,8,9
 355 656 355 656 328.5 680 c 128,-1,10
 302 704 302 704 250 704 c 0,11,12
 165 704 165 704 124 649 c 1,13,-1
 143 633 l 1,14,15
 163 656 163 656 187 667.5 c 128,-1,16
 211 679 211 679 247 679 c 0,17,18
 287 679 287 679 306 662 c 128,-1,19
 325 645 325 645 325 616 c 0,20,21
 325 606 325 606 324 601 c 2,22,-1
 323 598 l 1,23,24
 313 533 313 533 215 533 c 2,25,-1
 169 533 l 1,26,-1
 165 508 l 1,27,-1
 215 508 l 2,28,29
 260 508 260 508 279 491.5 c 128,-1,30
 298 475 298 475 298 444 c 0,31,32
 298 432 298 432 297 427 c 2,33,-1
 296 424 l 1,34,35
 280 348 280 348 189 348 c 0,36,37
 146 348 146 348 123 361.5 c 128,-1,38
 100 375 100 375 88 398 c 1,39,-1
 67 383 l 1,40,41
 96 323 96 323 188 323 c 0,0,1
154 0 m 1,42,-1
 760 698 l 1,43,-1
 726 698 l 1,44,-1
 120 0 l 1,45,-1
 154 0 l 1,42,-1
682 0 m 1,46,-1
 699 85 l 1,47,-1
 762 85 l 1,48,-1
 767 109 l 1,49,-1
 705 109 l 1,50,-1
 756 369 l 1,51,-1
 717 369 l 1,52,-1
 471 112 l 1,53,-1
 466 85 l 1,54,-1
 671 85 l 1,55,-1
 654 0 l 1,56,-1
 682 0 l 1,46,-1
676 109 m 1,57,-1
 502 109 l 1,58,-1
 719 337 l 1,59,-1
 722 337 l 1,60,-1
 676 109 l 1,57,-1
EndSplineSet
EndChar

StartChar: questiondown
Encoding: 191 191 126
Width: 457
Flags: W
LayerCount: 2
Fore
SplineSet
159 -202 m 0,0,1
 312 -202 312 -202 371 -49 c 1,2,-1
 341 -38 l 1,3,4
 316 -99 316 -99 274.5 -134.5 c 128,-1,5
 233 -170 233 -170 162 -170 c 0,6,7
 29 -170 29 -170 24 -44 c 0,8,9
 24 -21 24 -21 29 0 c 0,10,11
 50 140 50 140 251 153 c 1,12,-1
 284 324 l 1,13,-1
 250 324 l 1,14,-1
 222 181 l 1,15,16
 103 167 103 167 45.5 107 c 128,-1,17
 -12 47 -12 47 -12 -45 c 0,18,19
 -12 -117 -12 -117 34 -159.5 c 128,-1,20
 80 -202 80 -202 159 -202 c 0,0,1
292 440 m 0,21,22
 325 440 325 440 330 469 c 0,23,24
 333 483 333 483 333 491 c 0,25,26
 333 515 333 515 302 515 c 0,27,28
 269 515 269 515 264 486 c 0,29,30
 261 472 261 472 261 464 c 0,31,32
 261 440 261 440 292 440 c 0,21,22
EndSplineSet
EndChar

StartChar: Agrave
Encoding: 192 192 127
Width: 601
Flags: W
LayerCount: 2
Fore
SplineSet
526 0 m 1,0,-1
 400 698 l 1,1,-1
 352 698 l 1,2,-1
 -16 0 l 1,3,-1
 23 0 l 1,4,-1
 142 227 l 1,5,-1
 449 227 l 1,6,-1
 489 0 l 1,7,-1
 526 0 l 1,0,-1
444 259 m 1,8,-1
 158 259 l 1,9,-1
 368 661 l 1,10,-1
 372 661 l 1,11,-1
 444 259 l 1,8,-1
393 765 m 1,12,-1
 416 777 l 1,13,-1
 340 936 l 1,14,-1
 309 920 l 1,15,-1
 393 765 l 1,12,-1
EndSplineSet
EndChar

StartChar: Aacute
Encoding: 193 193 128
Width: 601
Flags: W
LayerCount: 2
Fore
SplineSet
526 0 m 1,0,-1
 400 698 l 1,1,-1
 352 698 l 1,2,-1
 -16 0 l 1,3,-1
 23 0 l 1,4,-1
 142 227 l 1,5,-1
 449 227 l 1,6,-1
 489 0 l 1,7,-1
 526 0 l 1,0,-1
444 259 m 1,8,-1
 158 259 l 1,9,-1
 368 661 l 1,10,-1
 372 661 l 1,11,-1
 444 259 l 1,8,-1
387 764 m 1,12,-1
 528 917 l 1,13,-1
 499 936 l 1,14,-1
 365 779 l 1,15,-1
 387 764 l 1,12,-1
EndSplineSet
EndChar

StartChar: Acircumflex
Encoding: 194 194 129
Width: 601
Flags: W
LayerCount: 2
Fore
SplineSet
526 0 m 1,0,-1
 400 698 l 1,1,-1
 352 698 l 1,2,-1
 -16 0 l 1,3,-1
 23 0 l 1,4,-1
 142 227 l 1,5,-1
 449 227 l 1,6,-1
 489 0 l 1,7,-1
 526 0 l 1,0,-1
444 259 m 1,8,-1
 158 259 l 1,9,-1
 368 661 l 1,10,-1
 372 661 l 1,11,-1
 444 259 l 1,8,-1
518 775 m 1,12,-1
 540 790 l 1,13,-1
 439 926 l 1,14,-1
 399 926 l 1,15,-1
 251 791 l 1,16,-1
 271 775 l 1,17,-1
 417 899 l 1,18,-1
 518 775 l 1,12,-1
EndSplineSet
EndChar

StartChar: Atilde
Encoding: 195 195 130
Width: 601
Flags: W
LayerCount: 2
Fore
SplineSet
526 0 m 1,0,-1
 400 698 l 1,1,-1
 352 698 l 1,2,-1
 -16 0 l 1,3,-1
 23 0 l 1,4,-1
 142 227 l 1,5,-1
 449 227 l 1,6,-1
 489 0 l 1,7,-1
 526 0 l 1,0,-1
444 259 m 1,8,-1
 158 259 l 1,9,-1
 368 661 l 1,10,-1
 372 661 l 1,11,-1
 444 259 l 1,8,-1
478 802 m 0,12,13
 525 802 525 802 566 845 c 1,14,-1
 551 863 l 1,15,16
 520 831 520 831 485 831 c 0,17,18
 468 831 468 831 454 837 c 128,-1,19
 440 843 440 843 420 857 c 128,-1,20
 400 871 400 871 384.5 878.5 c 128,-1,21
 369 886 369 886 348 886 c 0,22,23
 302 886 302 886 260 843 c 1,24,-1
 275 825 l 1,25,26
 307 857 307 857 341 857 c 0,27,28
 358 857 358 857 372 851 c 128,-1,29
 386 845 386 845 406 831 c 128,-1,30
 426 817 426 817 441.5 809.5 c 128,-1,31
 457 802 457 802 478 802 c 0,12,13
EndSplineSet
EndChar

StartChar: Adieresis
Encoding: 196 196 131
Width: 601
Flags: W
LayerCount: 2
Fore
SplineSet
526 0 m 1,0,-1
 400 698 l 1,1,-1
 352 698 l 1,2,-1
 -16 0 l 1,3,-1
 23 0 l 1,4,-1
 142 227 l 1,5,-1
 449 227 l 1,6,-1
 489 0 l 1,7,-1
 526 0 l 1,0,-1
444 259 m 1,8,-1
 158 259 l 1,9,-1
 368 661 l 1,10,-1
 372 661 l 1,11,-1
 444 259 l 1,8,-1
309 814 m 0,12,13
 324 814 324 814 330.5 821 c 128,-1,14
 337 828 337 828 340 839 c 128,-1,15
 343 850 343 850 343 855 c 0,16,17
 343 876 343 876 318 876 c 0,18,19
 303 876 303 876 296.5 869.5 c 128,-1,20
 290 863 290 863 287 851.5 c 128,-1,21
 284 840 284 840 284 835 c 0,22,23
 284 814 284 814 309 814 c 0,12,13
491 814 m 0,24,25
 506 814 506 814 512.5 821 c 128,-1,26
 519 828 519 828 522 839 c 128,-1,27
 525 850 525 850 525 855 c 0,28,29
 525 876 525 876 500 876 c 0,30,31
 485 876 485 876 478.5 869.5 c 128,-1,32
 472 863 472 863 469 851.5 c 128,-1,33
 466 840 466 840 466 835 c 0,34,35
 466 814 466 814 491 814 c 0,24,25
EndSplineSet
EndChar

StartChar: Aring
Encoding: 197 197 132
Width: 601
Flags: W
LayerCount: 2
Fore
SplineSet
526 0 m 1,0,-1
 400 698 l 1,1,-1
 352 698 l 1,2,-1
 -16 0 l 1,3,-1
 23 0 l 1,4,-1
 142 227 l 1,5,-1
 449 227 l 1,6,-1
 489 0 l 1,7,-1
 526 0 l 1,0,-1
444 259 m 1,8,-1
 158 259 l 1,9,-1
 368 661 l 1,10,-1
 372 661 l 1,11,-1
 444 259 l 1,8,-1
395 764 m 0,12,13
 446 764 446 764 476 795.5 c 128,-1,14
 506 827 506 827 506 879 c 0,15,16
 506 908 506 908 486.5 932.5 c 128,-1,17
 467 957 467 957 423 957 c 0,18,19
 372 957 372 957 342 925.5 c 128,-1,20
 312 894 312 894 312 842 c 0,21,22
 312 814 312 814 330.5 789 c 128,-1,23
 349 764 349 764 395 764 c 0,12,13
399 789 m 0,24,25
 341 789 341 789 339 840 c 0,26,27
 339 845 339 845 340.5 850.5 c 128,-1,28
 342 856 342 856 343 868 c 0,29,30
 349 900 349 900 369.5 916 c 128,-1,31
 390 932 390 932 419 932 c 0,32,33
 478 932 478 932 479 881 c 0,34,35
 479 874 479 874 478 869.5 c 128,-1,36
 477 865 477 865 475 853 c 0,37,38
 469 821 469 821 448.5 805 c 128,-1,39
 428 789 428 789 399 789 c 0,24,25
EndSplineSet
EndChar

StartChar: AE
Encoding: 198 198 133
Width: 884
Flags: W
LayerCount: 2
Fore
SplineSet
769 0 m 1,0,-1
 775 32 l 1,1,-1
 421 32 l 1,2,-1
 482 338 l 1,3,-1
 816 338 l 1,4,-1
 822 370 l 1,5,-1
 489 370 l 1,6,-1
 549 666 l 1,7,-1
 898 666 l 1,8,-1
 905 698 l 1,9,-1
 487 698 l 1,10,-1
 -26 0 l 1,11,-1
 15 0 l 1,12,-1
 182 227 l 1,13,-1
 425 227 l 1,14,-1
 379 0 l 1,15,-1
 769 0 l 1,0,-1
431 258 m 1,16,-1
 205 258 l 1,17,-1
 503 667 l 1,18,-1
 513 667 l 1,19,-1
 431 258 l 1,16,-1
EndSplineSet
EndChar

StartChar: Ccedilla
Encoding: 199 199 134
Width: 597
Flags: W
LayerCount: 2
Fore
SplineSet
265 -203 m 0,0,1
 309 -203 309 -203 335.5 -180 c 128,-1,2
 362 -157 362 -157 362 -123 c 0,3,4
 362 -70 362 -70 305 -69 c 0,5,6
 293 -69 293 -69 283 -71 c 2,7,-1
 275 -72 l 1,8,-1
 273 -70 l 1,9,-1
 297 -12 l 1,10,11
 443 -12 443 -12 528 145 c 1,12,-1
 497 160 l 1,13,14
 460 91 460 91 411.5 56 c 128,-1,15
 363 21 363 21 292 21 c 0,16,17
 200 21 200 21 151 76.5 c 128,-1,18
 102 132 102 132 102 226 c 0,19,20
 102 267 102 267 111 325 c 2,21,-1
 125 394 l 2,22,23
 151 524 151 524 222.5 600.5 c 128,-1,24
 294 677 294 677 394 677 c 0,25,26
 469 677 469 677 507.5 644 c 128,-1,27
 546 611 546 611 562 553 c 1,28,-1
 595 565 l 1,29,30
 557 710 557 710 396 710 c 0,31,32
 309 710 309 710 247 665.5 c 128,-1,33
 185 621 185 621 145 549 c 128,-1,34
 105 477 105 477 85.5 393 c 128,-1,35
 66 309 66 309 66 231 c 0,36,37
 66 118 66 118 122.5 56.5 c 128,-1,38
 179 -5 179 -5 273 -12 c 1,39,-1
 244 -82 l 1,40,-1
 278 -84 l 2,41,42
 308 -86 308 -86 319.5 -96.5 c 128,-1,43
 331 -107 331 -107 331 -124 c 0,44,45
 331 -147 331 -147 312.5 -162 c 128,-1,46
 294 -177 294 -177 264 -177 c 0,47,48
 222 -177 222 -177 204 -150 c 1,49,-1
 183 -170 l 1,50,51
 205 -203 205 -203 265 -203 c 0,0,1
EndSplineSet
EndChar

StartChar: Egrave
Encoding: 200 200 135
Width: 556
Flags: W
LayerCount: 2
Fore
SplineSet
440 0 m 1,0,-1
 447 32 l 1,1,-1
 92 32 l 1,2,-1
 153 338 l 1,3,-1
 487 338 l 1,4,-1
 493 370 l 1,5,-1
 160 370 l 1,6,-1
 220 666 l 1,7,-1
 570 666 l 1,8,-1
 576 698 l 1,9,-1
 190 698 l 1,10,-1
 50 0 l 1,11,-1
 440 0 l 1,0,-1
397 765 m 1,12,-1
 420 777 l 1,13,-1
 344 936 l 1,14,-1
 313 920 l 1,15,-1
 397 765 l 1,12,-1
EndSplineSet
EndChar

StartChar: Eacute
Encoding: 201 201 136
Width: 556
Flags: W
LayerCount: 2
Fore
SplineSet
440 0 m 1,0,-1
 447 32 l 1,1,-1
 92 32 l 1,2,-1
 153 338 l 1,3,-1
 487 338 l 1,4,-1
 493 370 l 1,5,-1
 160 370 l 1,6,-1
 220 666 l 1,7,-1
 570 666 l 1,8,-1
 576 698 l 1,9,-1
 190 698 l 1,10,-1
 50 0 l 1,11,-1
 440 0 l 1,0,-1
391 764 m 1,12,-1
 532 917 l 1,13,-1
 503 936 l 1,14,-1
 369 779 l 1,15,-1
 391 764 l 1,12,-1
EndSplineSet
EndChar

StartChar: Ecircumflex
Encoding: 202 202 137
Width: 556
Flags: W
LayerCount: 2
Fore
SplineSet
440 0 m 1,0,-1
 447 32 l 1,1,-1
 92 32 l 1,2,-1
 153 338 l 1,3,-1
 487 338 l 1,4,-1
 493 370 l 1,5,-1
 160 370 l 1,6,-1
 220 666 l 1,7,-1
 570 666 l 1,8,-1
 576 698 l 1,9,-1
 190 698 l 1,10,-1
 50 0 l 1,11,-1
 440 0 l 1,0,-1
522 775 m 1,12,-1
 544 790 l 1,13,-1
 443 926 l 1,14,-1
 403 926 l 1,15,-1
 255 791 l 1,16,-1
 275 775 l 1,17,-1
 421 899 l 1,18,-1
 522 775 l 1,12,-1
EndSplineSet
EndChar

StartChar: Edieresis
Encoding: 203 203 138
Width: 556
Flags: W
LayerCount: 2
Fore
SplineSet
440 0 m 1,0,-1
 447 32 l 1,1,-1
 92 32 l 1,2,-1
 153 338 l 1,3,-1
 487 338 l 1,4,-1
 493 370 l 1,5,-1
 160 370 l 1,6,-1
 220 666 l 1,7,-1
 570 666 l 1,8,-1
 576 698 l 1,9,-1
 190 698 l 1,10,-1
 50 0 l 1,11,-1
 440 0 l 1,0,-1
313 814 m 0,12,13
 328 814 328 814 334.5 821 c 128,-1,14
 341 828 341 828 344 839 c 128,-1,15
 347 850 347 850 347 855 c 0,16,17
 347 876 347 876 322 876 c 0,18,19
 307 876 307 876 300.5 869.5 c 128,-1,20
 294 863 294 863 291 851.5 c 128,-1,21
 288 840 288 840 288 835 c 0,22,23
 288 814 288 814 313 814 c 0,12,13
495 814 m 0,24,25
 510 814 510 814 516.5 821 c 128,-1,26
 523 828 523 828 526 839 c 128,-1,27
 529 850 529 850 529 855 c 0,28,29
 529 876 529 876 504 876 c 0,30,31
 489 876 489 876 482.5 869.5 c 128,-1,32
 476 863 476 863 473 851.5 c 128,-1,33
 470 840 470 840 470 835 c 0,34,35
 470 814 470 814 495 814 c 0,24,25
EndSplineSet
EndChar

StartChar: Igrave
Encoding: 204 204 139
Width: 238
Flags: W
LayerCount: 2
Fore
SplineSet
225 765 m 1,0,-1
 248 777 l 1,1,-1
 172 936 l 1,2,-1
 141 920 l 1,3,-1
 225 765 l 1,0,-1
86 0 m 1,4,-1
 226 698 l 1,5,-1
 190 698 l 1,6,-1
 50 0 l 1,7,-1
 86 0 l 1,4,-1
EndSplineSet
EndChar

StartChar: Iacute
Encoding: 205 205 140
Width: 238
Flags: W
LayerCount: 2
Fore
SplineSet
219 764 m 1,0,-1
 360 917 l 1,1,-1
 331 936 l 1,2,-1
 197 779 l 1,3,-1
 219 764 l 1,0,-1
86 0 m 1,4,-1
 226 698 l 1,5,-1
 190 698 l 1,6,-1
 50 0 l 1,7,-1
 86 0 l 1,4,-1
EndSplineSet
EndChar

StartChar: Icircumflex
Encoding: 206 206 141
Width: 238
Flags: W
LayerCount: 2
Fore
SplineSet
350 775 m 1,0,-1
 372 790 l 1,1,-1
 271 926 l 1,2,-1
 231 926 l 1,3,-1
 83 791 l 1,4,-1
 103 775 l 1,5,-1
 249 899 l 1,6,-1
 350 775 l 1,0,-1
86 0 m 1,7,-1
 226 698 l 1,8,-1
 190 698 l 1,9,-1
 50 0 l 1,10,-1
 86 0 l 1,7,-1
EndSplineSet
EndChar

StartChar: Idieresis
Encoding: 207 207 142
Width: 238
Flags: W
LayerCount: 2
Fore
SplineSet
141 814 m 0,0,1
 156 814 156 814 162.5 821 c 128,-1,2
 169 828 169 828 172 839 c 128,-1,3
 175 850 175 850 175 855 c 0,4,5
 175 876 175 876 150 876 c 0,6,7
 135 876 135 876 128.5 869.5 c 128,-1,8
 122 863 122 863 119 851.5 c 128,-1,9
 116 840 116 840 116 835 c 0,10,11
 116 814 116 814 141 814 c 0,0,1
323 814 m 0,12,13
 338 814 338 814 344.5 821 c 128,-1,14
 351 828 351 828 354 839 c 128,-1,15
 357 850 357 850 357 855 c 0,16,17
 357 876 357 876 332 876 c 0,18,19
 317 876 317 876 310.5 869.5 c 128,-1,20
 304 863 304 863 301 851.5 c 128,-1,21
 298 840 298 840 298 835 c 0,22,23
 298 814 298 814 323 814 c 0,12,13
86 0 m 1,24,-1
 226 698 l 1,25,-1
 190 698 l 1,26,-1
 50 0 l 1,27,-1
 86 0 l 1,24,-1
EndSplineSet
EndChar

StartChar: Eth
Encoding: 208 208 143
Width: 652
Flags: W
LayerCount: 2
Fore
SplineSet
283 0 m 2,0,1
 368 0 368 0 430.5 39.5 c 128,-1,2
 493 79 493 79 534 145 c 128,-1,3
 575 211 575 211 595 292.5 c 128,-1,4
 615 374 615 374 615 458 c 0,5,6
 615 573 615 573 555.5 635.5 c 128,-1,7
 496 698 496 698 382 698 c 2,8,-1
 193 698 l 1,9,-1
 130 383 l 1,10,-1
 46 383 l 1,11,-1
 40 353 l 1,12,-1
 124 353 l 1,13,-1
 53 0 l 1,14,-1
 283 0 l 2,0,1
284 32 m 2,15,-1
 96 32 l 1,16,-1
 160 353 l 1,17,-1
 319 353 l 1,18,-1
 325 383 l 1,19,-1
 166 383 l 1,20,-1
 222 666 l 1,21,-1
 379 666 l 2,22,23
 479 666 479 666 529 612.5 c 128,-1,24
 579 559 579 559 579 465 c 0,25,26
 579 425 579 425 570 367 c 2,27,-1
 557 300 l 2,28,29
 535 185 535 185 466 110 c 0,30,31
 392 32 392 32 284 32 c 2,15,-1
EndSplineSet
EndChar

StartChar: Ntilde
Encoding: 209 209 144
Width: 681
Flags: W
LayerCount: 2
Fore
SplineSet
528 0 m 1,0,-1
 668 698 l 1,1,-1
 633 698 l 1,2,-1
 504 49 l 1,3,-1
 501 49 l 1,4,-1
 235 698 l 1,5,-1
 190 698 l 1,6,-1
 50 0 l 1,7,-1
 85 0 l 1,8,-1
 214 649 l 1,9,-1
 217 649 l 1,10,-1
 483 0 l 1,11,-1
 528 0 l 1,0,-1
539 802 m 0,12,13
 586 802 586 802 627 845 c 1,14,-1
 612 863 l 1,15,16
 581 831 581 831 546 831 c 0,17,18
 529 831 529 831 515 837 c 128,-1,19
 501 843 501 843 481 857 c 128,-1,20
 461 871 461 871 445.5 878.5 c 128,-1,21
 430 886 430 886 409 886 c 0,22,23
 363 886 363 886 321 843 c 1,24,-1
 336 825 l 1,25,26
 368 857 368 857 402 857 c 0,27,28
 419 857 419 857 433 851 c 128,-1,29
 447 845 447 845 467 831 c 128,-1,30
 487 817 487 817 502.5 809.5 c 128,-1,31
 518 802 518 802 539 802 c 0,12,13
EndSplineSet
EndChar

StartChar: Ograve
Encoding: 210 210 145
Width: 663
Flags: W
LayerCount: 2
Fore
SplineSet
293 -12 m 0,0,1
 406 -12 406 -12 487 67 c 0,2,3
 561 142 561 142 595.5 254.5 c 128,-1,4
 630 367 630 367 630 469 c 0,5,6
 630 585 630 585 567 647.5 c 128,-1,7
 504 710 504 710 403 710 c 0,8,9
 291 710 291 710 210 631 c 0,10,11
 135 556 135 556 101 446 c 0,12,13
 66 331 66 331 66 229 c 0,14,15
 66 111 66 111 129.5 49.5 c 128,-1,16
 193 -12 193 -12 293 -12 c 0,0,1
295 21 m 0,17,18
 201 21 201 21 151.5 75.5 c 128,-1,19
 102 130 102 130 102 224 c 0,20,21
 102 265 102 265 111 323 c 2,22,-1
 124 389 l 2,23,24
 151 523 151 523 224.5 600 c 128,-1,25
 298 677 298 677 401 677 c 0,26,27
 495 677 495 677 544.5 622.5 c 128,-1,28
 594 568 594 568 594 474 c 0,29,30
 594 434 594 434 585 375 c 2,31,-1
 572 309 l 2,32,33
 545 176 545 176 472 98.5 c 128,-1,34
 399 21 399 21 295 21 c 0,17,18
435 765 m 1,35,-1
 458 777 l 1,36,-1
 382 936 l 1,37,-1
 351 920 l 1,38,-1
 435 765 l 1,35,-1
EndSplineSet
EndChar

StartChar: Oacute
Encoding: 211 211 146
Width: 663
Flags: W
LayerCount: 2
Fore
SplineSet
293 -12 m 0,0,1
 406 -12 406 -12 487 67 c 0,2,3
 561 142 561 142 595.5 254.5 c 128,-1,4
 630 367 630 367 630 469 c 0,5,6
 630 585 630 585 567 647.5 c 128,-1,7
 504 710 504 710 403 710 c 0,8,9
 291 710 291 710 210 631 c 0,10,11
 135 556 135 556 101 446 c 0,12,13
 66 331 66 331 66 229 c 0,14,15
 66 111 66 111 129.5 49.5 c 128,-1,16
 193 -12 193 -12 293 -12 c 0,0,1
295 21 m 0,17,18
 201 21 201 21 151.5 75.5 c 128,-1,19
 102 130 102 130 102 224 c 0,20,21
 102 265 102 265 111 323 c 2,22,-1
 124 389 l 2,23,24
 151 523 151 523 224.5 600 c 128,-1,25
 298 677 298 677 401 677 c 0,26,27
 495 677 495 677 544.5 622.5 c 128,-1,28
 594 568 594 568 594 474 c 0,29,30
 594 434 594 434 585 375 c 2,31,-1
 572 309 l 2,32,33
 545 176 545 176 472 98.5 c 128,-1,34
 399 21 399 21 295 21 c 0,17,18
429 764 m 1,35,-1
 570 917 l 1,36,-1
 541 936 l 1,37,-1
 407 779 l 1,38,-1
 429 764 l 1,35,-1
EndSplineSet
EndChar

StartChar: Ocircumflex
Encoding: 212 212 147
Width: 663
Flags: W
LayerCount: 2
Fore
SplineSet
293 -12 m 0,0,1
 406 -12 406 -12 487 67 c 0,2,3
 561 142 561 142 595.5 254.5 c 128,-1,4
 630 367 630 367 630 469 c 0,5,6
 630 585 630 585 567 647.5 c 128,-1,7
 504 710 504 710 403 710 c 0,8,9
 291 710 291 710 210 631 c 0,10,11
 135 556 135 556 101 446 c 0,12,13
 66 331 66 331 66 229 c 0,14,15
 66 111 66 111 129.5 49.5 c 128,-1,16
 193 -12 193 -12 293 -12 c 0,0,1
295 21 m 0,17,18
 201 21 201 21 151.5 75.5 c 128,-1,19
 102 130 102 130 102 224 c 0,20,21
 102 265 102 265 111 323 c 2,22,-1
 124 389 l 2,23,24
 151 523 151 523 224.5 600 c 128,-1,25
 298 677 298 677 401 677 c 0,26,27
 495 677 495 677 544.5 622.5 c 128,-1,28
 594 568 594 568 594 474 c 0,29,30
 594 434 594 434 585 375 c 2,31,-1
 572 309 l 2,32,33
 545 176 545 176 472 98.5 c 128,-1,34
 399 21 399 21 295 21 c 0,17,18
560 775 m 1,35,-1
 582 790 l 1,36,-1
 481 926 l 1,37,-1
 441 926 l 1,38,-1
 293 791 l 1,39,-1
 313 775 l 1,40,-1
 459 899 l 1,41,-1
 560 775 l 1,35,-1
EndSplineSet
EndChar

StartChar: Otilde
Encoding: 213 213 148
Width: 663
Flags: W
LayerCount: 2
Fore
SplineSet
293 -12 m 0,0,1
 406 -12 406 -12 487 67 c 0,2,3
 561 142 561 142 595.5 254.5 c 128,-1,4
 630 367 630 367 630 469 c 0,5,6
 630 585 630 585 567 647.5 c 128,-1,7
 504 710 504 710 403 710 c 0,8,9
 291 710 291 710 210 631 c 0,10,11
 135 556 135 556 101 446 c 0,12,13
 66 331 66 331 66 229 c 0,14,15
 66 111 66 111 129.5 49.5 c 128,-1,16
 193 -12 193 -12 293 -12 c 0,0,1
295 21 m 0,17,18
 201 21 201 21 151.5 75.5 c 128,-1,19
 102 130 102 130 102 224 c 0,20,21
 102 265 102 265 111 323 c 2,22,-1
 124 389 l 2,23,24
 151 523 151 523 224.5 600 c 128,-1,25
 298 677 298 677 401 677 c 0,26,27
 495 677 495 677 544.5 622.5 c 128,-1,28
 594 568 594 568 594 474 c 0,29,30
 594 434 594 434 585 375 c 2,31,-1
 572 309 l 2,32,33
 545 176 545 176 472 98.5 c 128,-1,34
 399 21 399 21 295 21 c 0,17,18
520 802 m 0,35,36
 567 802 567 802 608 845 c 1,37,-1
 593 863 l 1,38,39
 562 831 562 831 527 831 c 0,40,41
 510 831 510 831 496 837 c 128,-1,42
 482 843 482 843 462 857 c 128,-1,43
 442 871 442 871 426.5 878.5 c 128,-1,44
 411 886 411 886 390 886 c 0,45,46
 344 886 344 886 302 843 c 1,47,-1
 317 825 l 1,48,49
 349 857 349 857 383 857 c 0,50,51
 400 857 400 857 414 851 c 128,-1,52
 428 845 428 845 448 831 c 128,-1,53
 468 817 468 817 483.5 809.5 c 128,-1,54
 499 802 499 802 520 802 c 0,35,36
EndSplineSet
EndChar

StartChar: Odieresis
Encoding: 214 214 149
Width: 663
Flags: W
LayerCount: 2
Fore
SplineSet
293 -12 m 0,0,1
 406 -12 406 -12 487 67 c 0,2,3
 561 142 561 142 595.5 254.5 c 128,-1,4
 630 367 630 367 630 469 c 0,5,6
 630 585 630 585 567 647.5 c 128,-1,7
 504 710 504 710 403 710 c 0,8,9
 291 710 291 710 210 631 c 0,10,11
 135 556 135 556 101 446 c 0,12,13
 66 331 66 331 66 229 c 0,14,15
 66 111 66 111 129.5 49.5 c 128,-1,16
 193 -12 193 -12 293 -12 c 0,0,1
295 21 m 0,17,18
 201 21 201 21 151.5 75.5 c 128,-1,19
 102 130 102 130 102 224 c 0,20,21
 102 265 102 265 111 323 c 2,22,-1
 124 389 l 2,23,24
 151 523 151 523 224.5 600 c 128,-1,25
 298 677 298 677 401 677 c 0,26,27
 495 677 495 677 544.5 622.5 c 128,-1,28
 594 568 594 568 594 474 c 0,29,30
 594 434 594 434 585 375 c 2,31,-1
 572 309 l 2,32,33
 545 176 545 176 472 98.5 c 128,-1,34
 399 21 399 21 295 21 c 0,17,18
351 814 m 0,35,36
 366 814 366 814 372.5 821 c 128,-1,37
 379 828 379 828 382 839 c 128,-1,38
 385 850 385 850 385 855 c 0,39,40
 385 876 385 876 360 876 c 0,41,42
 345 876 345 876 338.5 869.5 c 128,-1,43
 332 863 332 863 329 851.5 c 128,-1,44
 326 840 326 840 326 835 c 0,45,46
 326 814 326 814 351 814 c 0,35,36
533 814 m 0,47,48
 548 814 548 814 554.5 821 c 128,-1,49
 561 828 561 828 564 839 c 128,-1,50
 567 850 567 850 567 855 c 0,51,52
 567 876 567 876 542 876 c 0,53,54
 527 876 527 876 520.5 869.5 c 128,-1,55
 514 863 514 863 511 851.5 c 128,-1,56
 508 840 508 840 508 835 c 0,57,58
 508 814 508 814 533 814 c 0,47,48
EndSplineSet
EndChar

StartChar: multiply
Encoding: 215 215 150
Width: 600
Flags: W
LayerCount: 2
Fore
SplineSet
96 105 m 1,0,-1
 307 283 l 1,1,-1
 446 106 l 1,2,-1
 470 126 l 1,3,-1
 331 304 l 1,4,-1
 540 481 l 1,5,-1
 522 504 l 1,6,-1
 312 328 l 1,7,-1
 174 504 l 1,8,-1
 149 483 l 1,9,-1
 288 307 l 1,10,-1
 77 128 l 1,11,-1
 96 105 l 1,0,-1
EndSplineSet
EndChar

StartChar: Oslash
Encoding: 216 216 151
Width: 663
Flags: W
LayerCount: 2
Fore
SplineSet
27 -36 m 1,0,-1
 116 65 l 1,1,2
 178 -12 178 -12 293 -12 c 0,3,4
 406 -12 406 -12 487 67 c 0,5,6
 561 142 561 142 595.5 254.5 c 128,-1,7
 630 367 630 367 630 469 c 0,8,9
 630 553 630 553 598 607 c 1,10,-1
 693 714 l 1,11,-1
 669 734 l 1,12,-1
 580 633 l 1,13,14
 519 710 519 710 403 710 c 0,15,16
 291 710 291 710 210 631 c 0,17,18
 135 556 135 556 101 446 c 0,19,20
 66 331 66 331 66 229 c 0,21,22
 66 145 66 145 98 91 c 1,23,-1
 3 -16 l 1,24,-1
 27 -36 l 1,0,-1
123 119 m 1,25,26
 102 163 102 163 102 224 c 0,27,28
 102 265 102 265 111 323 c 2,29,-1
 124 389 l 2,30,31
 151 523 151 523 224.5 600 c 128,-1,32
 298 677 298 677 401 677 c 0,33,34
 508 677 508 677 556 607 c 1,35,-1
 123 119 l 1,25,26
295 21 m 0,36,37
 189 21 189 21 140 91 c 1,38,-1
 573 579 l 1,39,40
 594 536 594 536 594 474 c 0,41,42
 594 434 594 434 585 375 c 2,43,-1
 572 309 l 2,44,45
 545 176 545 176 472 98.5 c 128,-1,46
 399 21 399 21 295 21 c 0,36,37
EndSplineSet
EndChar

StartChar: Ugrave
Encoding: 217 217 152
Width: 643
Flags: W
LayerCount: 2
Fore
SplineSet
275 -12 m 0,0,1
 400 -12 400 -12 461.5 51 c 128,-1,2
 523 114 523 114 552 272 c 2,3,-1
 637 698 l 1,4,-1
 601 698 l 1,5,-1
 516 274 l 2,6,7
 489 134 489 134 436.5 77.5 c 128,-1,8
 384 21 384 21 277 21 c 0,9,10
 196 21 196 21 157 57.5 c 128,-1,11
 118 94 118 94 118 160 c 0,12,13
 118 202 118 202 133 271 c 2,14,-1
 218 698 l 1,15,-1
 182 698 l 1,16,-1
 99 280 l 2,17,18
 82 211 82 211 82 158 c 0,19,20
 82 74 82 74 133 31 c 128,-1,21
 184 -12 184 -12 275 -12 c 0,0,1
426 765 m 1,22,-1
 449 777 l 1,23,-1
 373 936 l 1,24,-1
 342 920 l 1,25,-1
 426 765 l 1,22,-1
EndSplineSet
EndChar

StartChar: Uacute
Encoding: 218 218 153
Width: 643
Flags: W
LayerCount: 2
Fore
SplineSet
275 -12 m 0,0,1
 400 -12 400 -12 461.5 51 c 128,-1,2
 523 114 523 114 552 272 c 2,3,-1
 637 698 l 1,4,-1
 601 698 l 1,5,-1
 516 274 l 2,6,7
 489 134 489 134 436.5 77.5 c 128,-1,8
 384 21 384 21 277 21 c 0,9,10
 196 21 196 21 157 57.5 c 128,-1,11
 118 94 118 94 118 160 c 0,12,13
 118 202 118 202 133 271 c 2,14,-1
 218 698 l 1,15,-1
 182 698 l 1,16,-1
 99 280 l 2,17,18
 82 211 82 211 82 158 c 0,19,20
 82 74 82 74 133 31 c 128,-1,21
 184 -12 184 -12 275 -12 c 0,0,1
420 764 m 1,22,-1
 561 917 l 1,23,-1
 532 936 l 1,24,-1
 398 779 l 1,25,-1
 420 764 l 1,22,-1
EndSplineSet
EndChar

StartChar: Ucircumflex
Encoding: 219 219 154
Width: 643
Flags: W
LayerCount: 2
Fore
SplineSet
275 -12 m 0,0,1
 400 -12 400 -12 461.5 51 c 128,-1,2
 523 114 523 114 552 272 c 2,3,-1
 637 698 l 1,4,-1
 601 698 l 1,5,-1
 516 274 l 2,6,7
 489 134 489 134 436.5 77.5 c 128,-1,8
 384 21 384 21 277 21 c 0,9,10
 196 21 196 21 157 57.5 c 128,-1,11
 118 94 118 94 118 160 c 0,12,13
 118 202 118 202 133 271 c 2,14,-1
 218 698 l 1,15,-1
 182 698 l 1,16,-1
 99 280 l 2,17,18
 82 211 82 211 82 158 c 0,19,20
 82 74 82 74 133 31 c 128,-1,21
 184 -12 184 -12 275 -12 c 0,0,1
551 775 m 1,22,-1
 573 790 l 1,23,-1
 472 926 l 1,24,-1
 432 926 l 1,25,-1
 284 791 l 1,26,-1
 304 775 l 1,27,-1
 450 899 l 1,28,-1
 551 775 l 1,22,-1
EndSplineSet
EndChar

StartChar: Udieresis
Encoding: 220 220 155
Width: 643
Flags: W
LayerCount: 2
Fore
SplineSet
275 -12 m 0,0,1
 400 -12 400 -12 461.5 51 c 128,-1,2
 523 114 523 114 552 272 c 2,3,-1
 637 698 l 1,4,-1
 601 698 l 1,5,-1
 516 274 l 2,6,7
 489 134 489 134 436.5 77.5 c 128,-1,8
 384 21 384 21 277 21 c 0,9,10
 196 21 196 21 157 57.5 c 128,-1,11
 118 94 118 94 118 160 c 0,12,13
 118 202 118 202 133 271 c 2,14,-1
 218 698 l 1,15,-1
 182 698 l 1,16,-1
 99 280 l 2,17,18
 82 211 82 211 82 158 c 0,19,20
 82 74 82 74 133 31 c 128,-1,21
 184 -12 184 -12 275 -12 c 0,0,1
342 814 m 0,22,23
 357 814 357 814 363.5 821 c 128,-1,24
 370 828 370 828 373 839 c 128,-1,25
 376 850 376 850 376 855 c 0,26,27
 376 876 376 876 351 876 c 0,28,29
 336 876 336 876 329.5 869.5 c 128,-1,30
 323 863 323 863 320 851.5 c 128,-1,31
 317 840 317 840 317 835 c 0,32,33
 317 814 317 814 342 814 c 0,22,23
524 814 m 0,34,35
 539 814 539 814 545.5 821 c 128,-1,36
 552 828 552 828 555 839 c 128,-1,37
 558 850 558 850 558 855 c 0,38,39
 558 876 558 876 533 876 c 0,40,41
 518 876 518 876 511.5 869.5 c 128,-1,42
 505 863 505 863 502 851.5 c 128,-1,43
 499 840 499 840 499 835 c 0,44,45
 499 814 499 814 524 814 c 0,34,35
EndSplineSet
EndChar

StartChar: Yacute
Encoding: 221 221 156
Width: 549
Flags: W
LayerCount: 2
Fore
SplineSet
241 0 m 1,0,-1
 299 289 l 1,1,-1
 619 698 l 1,2,-1
 577 698 l 1,3,-1
 289 329 l 1,4,-1
 285 329 l 1,5,-1
 145 698 l 1,6,-1
 108 698 l 1,7,-1
 263 289 l 1,8,-1
 205 0 l 1,9,-1
 241 0 l 1,0,-1
371 764 m 1,10,-1
 512 917 l 1,11,-1
 483 936 l 1,12,-1
 349 779 l 1,13,-1
 371 764 l 1,10,-1
EndSplineSet
EndChar

StartChar: Thorn
Encoding: 222 222 157
Width: 591
Flags: W
LayerCount: 2
Fore
SplineSet
86 0 m 1,0,-1
 119 163 l 1,1,-1
 351 163 l 2,2,3
 452 163 452 163 509.5 225 c 128,-1,4
 567 287 567 287 567 393 c 0,5,6
 567 459 567 459 527.5 502 c 128,-1,7
 488 545 488 545 410 545 c 2,8,-1
 195 545 l 1,9,-1
 226 698 l 1,10,-1
 190 698 l 1,11,-1
 50 0 l 1,12,-1
 86 0 l 1,0,-1
355 195 m 2,13,-1
 125 195 l 1,14,-1
 189 513 l 1,15,-1
 407 513 l 2,16,17
 472 513 472 513 501 479 c 128,-1,18
 530 445 530 445 530 396 c 2,19,-1
 529 378 l 1,20,-1
 528 372 l 2,21,22
 526 356 526 356 520 326 c 0,23,24
 509 267 509 267 468 231 c 128,-1,25
 427 195 427 195 355 195 c 2,13,-1
EndSplineSet
EndChar

StartChar: germandbls
Encoding: 223 223 158
Width: 631
Flags: W
LayerCount: 2
Fore
SplineSet
391 -12 m 0,0,1
 465 -12 465 -12 517 28 c 0,2,3
 568 70 568 70 568 143 c 0,4,5
 568 199 568 199 539 224 c 128,-1,6
 510 249 510 249 465 263 c 2,7,-1
 418 279 l 2,8,9
 379 292 379 292 361 310.5 c 128,-1,10
 343 329 343 329 343 368 c 0,11,12
 343 481 343 481 534 481 c 2,13,-1
 557 481 l 1,14,-1
 565 521 l 2,15,16
 571 555 571 555 571 589 c 0,17,18
 571 665 571 665 529 708.5 c 128,-1,19
 487 752 487 752 411 752 c 0,20,21
 311 752 311 752 253 690 c 0,22,23
 192 628 192 628 172 523 c 2,24,-1
 169 508 l 1,25,-1
 76 508 l 1,26,-1
 70 478 l 1,27,-1
 163 478 l 1,28,-1
 69 0 l 1,29,-1
 102 0 l 1,30,-1
 206 522 l 2,31,32
 244 722 244 722 407 722 c 0,33,34
 473 722 473 722 505.5 687 c 128,-1,35
 538 652 538 652 538 589 c 0,36,37
 538 550 538 550 528 510 c 1,38,39
 431 510 431 510 370 474 c 128,-1,40
 309 438 309 438 309 367 c 0,41,42
 309 312 309 312 337 287 c 128,-1,43
 365 262 365 262 411 249 c 2,44,-1
 458 232 l 2,45,46
 497 220 497 220 515.5 200 c 128,-1,47
 534 180 534 180 534 142 c 0,48,49
 534 82 534 82 494.5 50 c 128,-1,50
 455 18 455 18 391 18 c 0,51,52
 286 18 286 18 229 105 c 1,53,-1
 203 85 l 1,54,55
 265 -12 265 -12 391 -12 c 0,0,1
EndSplineSet
EndChar

StartChar: agrave
Encoding: 224 224 159
Width: 571
Flags: W
LayerCount: 2
Fore
SplineSet
220 -12 m 0,0,1
 282 -12 282 -12 324 20.5 c 128,-1,2
 366 53 366 53 397 111 c 1,3,-1
 400 111 l 1,4,5
 387 48 387 48 386 43 c 128,-1,6
 385 38 385 38 385 29 c 0,7,8
 385 1 385 1 419 0 c 2,9,-1
 495 0 l 1,10,-1
 501 31 l 1,11,-1
 419 31 l 1,12,-1
 514 508 l 1,13,-1
 480 508 l 1,14,-1
 462 417 l 1,15,-1
 459 417 l 1,16,17
 445 465 445 465 406.5 492.5 c 128,-1,18
 368 520 368 520 308 520 c 0,19,20
 247 520 247 520 200.5 492 c 128,-1,21
 154 464 154 464 122 415 c 0,22,23
 58 310 58 310 58 178 c 0,24,25
 58 94 58 94 101 42 c 0,26,27
 142 -12 142 -12 220 -12 c 0,0,1
225 19 m 256,28,29
 160 19 160 19 125 65 c 0,30,31
 93 111 93 111 93 175 c 0,32,33
 93 216 93 216 99 242 c 2,34,-1
 107 286 l 2,35,36
 126 381 126 381 177 435 c 128,-1,37
 228 489 228 489 309 489 c 0,38,39
 351 489 351 489 380.5 475.5 c 128,-1,40
 410 462 410 462 426 441 c 0,41,42
 450 408 450 408 450 370 c 0,43,44
 450 357 450 357 447 344 c 2,45,-1
 420 211 l 2,46,47
 397 111 397 111 334 61 c 1,48,49
 290 19 290 19 225 19 c 256,28,29
347 587 m 1,50,-1
 370 598 l 1,51,-1
 294 757 l 1,52,-1
 263 741 l 1,53,-1
 347 587 l 1,50,-1
EndSplineSet
EndChar

StartChar: aacute
Encoding: 225 225 160
Width: 571
Flags: W
LayerCount: 2
Fore
SplineSet
220 -12 m 0,0,1
 282 -12 282 -12 324 20.5 c 128,-1,2
 366 53 366 53 397 111 c 1,3,-1
 400 111 l 1,4,5
 387 48 387 48 386 43 c 128,-1,6
 385 38 385 38 385 29 c 0,7,8
 385 1 385 1 419 0 c 2,9,-1
 495 0 l 1,10,-1
 501 31 l 1,11,-1
 419 31 l 1,12,-1
 514 508 l 1,13,-1
 480 508 l 1,14,-1
 462 417 l 1,15,-1
 459 417 l 1,16,17
 445 465 445 465 406.5 492.5 c 128,-1,18
 368 520 368 520 308 520 c 0,19,20
 247 520 247 520 200.5 492 c 128,-1,21
 154 464 154 464 122 415 c 0,22,23
 58 310 58 310 58 178 c 0,24,25
 58 94 58 94 101 42 c 0,26,27
 142 -12 142 -12 220 -12 c 0,0,1
225 19 m 256,28,29
 160 19 160 19 125 65 c 0,30,31
 93 111 93 111 93 175 c 0,32,33
 93 216 93 216 99 242 c 2,34,-1
 107 286 l 2,35,36
 126 381 126 381 177 435 c 128,-1,37
 228 489 228 489 309 489 c 0,38,39
 351 489 351 489 380.5 475.5 c 128,-1,40
 410 462 410 462 426 441 c 0,41,42
 450 408 450 408 450 370 c 0,43,44
 450 357 450 357 447 344 c 2,45,-1
 420 211 l 2,46,47
 397 111 397 111 334 61 c 1,48,49
 290 19 290 19 225 19 c 256,28,29
327 587 m 1,50,-1
 468 739 l 1,51,-1
 439 758 l 1,52,-1
 305 601 l 1,53,-1
 327 587 l 1,50,-1
EndSplineSet
EndChar

StartChar: acircumflex
Encoding: 226 226 161
Width: 571
Flags: W
LayerCount: 2
Fore
SplineSet
220 -12 m 0,0,1
 282 -12 282 -12 324 20.5 c 128,-1,2
 366 53 366 53 397 111 c 1,3,-1
 400 111 l 1,4,5
 387 48 387 48 386 43 c 128,-1,6
 385 38 385 38 385 29 c 0,7,8
 385 1 385 1 419 0 c 2,9,-1
 495 0 l 1,10,-1
 501 31 l 1,11,-1
 419 31 l 1,12,-1
 514 508 l 1,13,-1
 480 508 l 1,14,-1
 462 417 l 1,15,-1
 459 417 l 1,16,17
 445 465 445 465 406.5 492.5 c 128,-1,18
 368 520 368 520 308 520 c 0,19,20
 247 520 247 520 200.5 492 c 128,-1,21
 154 464 154 464 122 415 c 0,22,23
 58 310 58 310 58 178 c 0,24,25
 58 94 58 94 101 42 c 0,26,27
 142 -12 142 -12 220 -12 c 0,0,1
225 19 m 256,28,29
 160 19 160 19 125 65 c 0,30,31
 93 111 93 111 93 175 c 0,32,33
 93 216 93 216 99 242 c 2,34,-1
 107 286 l 2,35,36
 126 381 126 381 177 435 c 128,-1,37
 228 489 228 489 309 489 c 0,38,39
 351 489 351 489 380.5 475.5 c 128,-1,40
 410 462 410 462 426 441 c 0,41,42
 450 408 450 408 450 370 c 0,43,44
 450 357 450 357 447 344 c 2,45,-1
 420 211 l 2,46,47
 397 111 397 111 334 61 c 1,48,49
 290 19 290 19 225 19 c 256,28,29
469 597 m 1,50,-1
 491 612 l 1,51,-1
 390 748 l 1,52,-1
 350 748 l 1,53,-1
 202 614 l 1,54,-1
 222 597 l 1,55,-1
 367 721 l 1,56,-1
 469 597 l 1,50,-1
EndSplineSet
EndChar

StartChar: atilde
Encoding: 227 227 162
Width: 571
Flags: W
LayerCount: 2
Fore
SplineSet
220 -12 m 0,0,1
 282 -12 282 -12 324 20.5 c 128,-1,2
 366 53 366 53 397 111 c 1,3,-1
 400 111 l 1,4,5
 387 48 387 48 386 43 c 128,-1,6
 385 38 385 38 385 29 c 0,7,8
 385 1 385 1 419 0 c 2,9,-1
 495 0 l 1,10,-1
 501 31 l 1,11,-1
 419 31 l 1,12,-1
 514 508 l 1,13,-1
 480 508 l 1,14,-1
 462 417 l 1,15,-1
 459 417 l 1,16,17
 445 465 445 465 406.5 492.5 c 128,-1,18
 368 520 368 520 308 520 c 0,19,20
 247 520 247 520 200.5 492 c 128,-1,21
 154 464 154 464 122 415 c 0,22,23
 58 310 58 310 58 178 c 0,24,25
 58 94 58 94 101 42 c 0,26,27
 142 -12 142 -12 220 -12 c 0,0,1
225 19 m 256,28,29
 160 19 160 19 125 65 c 0,30,31
 93 111 93 111 93 175 c 0,32,33
 93 216 93 216 99 242 c 2,34,-1
 107 286 l 2,35,36
 126 381 126 381 177 435 c 128,-1,37
 228 489 228 489 309 489 c 0,38,39
 351 489 351 489 380.5 475.5 c 128,-1,40
 410 462 410 462 426 441 c 0,41,42
 450 408 450 408 450 370 c 0,43,44
 450 357 450 357 447 344 c 2,45,-1
 420 211 l 2,46,47
 397 111 397 111 334 61 c 1,48,49
 290 19 290 19 225 19 c 256,28,29
418 624 m 0,50,51
 465 624 465 624 506 667 c 1,52,-1
 491 685 l 1,53,54
 460 653 460 653 425 653 c 0,55,56
 408 653 408 653 394 659 c 128,-1,57
 380 665 380 665 360 679 c 128,-1,58
 340 693 340 693 324.5 700.5 c 128,-1,59
 309 708 309 708 288 708 c 0,60,61
 242 708 242 708 200 665 c 1,62,-1
 215 647 l 1,63,64
 247 679 247 679 281 679 c 0,65,66
 298 679 298 679 312 673 c 128,-1,67
 326 667 326 667 346 653 c 128,-1,68
 366 639 366 639 381.5 631.5 c 128,-1,69
 397 624 397 624 418 624 c 0,50,51
EndSplineSet
EndChar

StartChar: adieresis
Encoding: 228 228 163
Width: 571
Flags: W
LayerCount: 2
Fore
SplineSet
220 -12 m 0,0,1
 282 -12 282 -12 324 20.5 c 128,-1,2
 366 53 366 53 397 111 c 1,3,-1
 400 111 l 1,4,5
 387 48 387 48 386 43 c 128,-1,6
 385 38 385 38 385 29 c 0,7,8
 385 1 385 1 419 0 c 2,9,-1
 495 0 l 1,10,-1
 501 31 l 1,11,-1
 419 31 l 1,12,-1
 514 508 l 1,13,-1
 480 508 l 1,14,-1
 462 417 l 1,15,-1
 459 417 l 1,16,17
 445 465 445 465 406.5 492.5 c 128,-1,18
 368 520 368 520 308 520 c 0,19,20
 247 520 247 520 200.5 492 c 128,-1,21
 154 464 154 464 122 415 c 0,22,23
 58 310 58 310 58 178 c 0,24,25
 58 94 58 94 101 42 c 0,26,27
 142 -12 142 -12 220 -12 c 0,0,1
225 19 m 256,28,29
 160 19 160 19 125 65 c 0,30,31
 93 111 93 111 93 175 c 0,32,33
 93 216 93 216 99 242 c 2,34,-1
 107 286 l 2,35,36
 126 381 126 381 177 435 c 128,-1,37
 228 489 228 489 309 489 c 0,38,39
 351 489 351 489 380.5 475.5 c 128,-1,40
 410 462 410 462 426 441 c 0,41,42
 450 408 450 408 450 370 c 0,43,44
 450 357 450 357 447 344 c 2,45,-1
 420 211 l 2,46,47
 397 111 397 111 334 61 c 1,48,49
 290 19 290 19 225 19 c 256,28,29
260 636 m 0,50,51
 275 636 275 636 281.5 643 c 128,-1,52
 288 650 288 650 291 661 c 128,-1,53
 294 672 294 672 294 677 c 0,54,55
 294 698 294 698 269 698 c 0,56,57
 254 698 254 698 247.5 691.5 c 128,-1,58
 241 685 241 685 238 673.5 c 128,-1,59
 235 662 235 662 235 657 c 0,60,61
 235 636 235 636 260 636 c 0,50,51
442 636 m 0,62,63
 457 636 457 636 463.5 643 c 128,-1,64
 470 650 470 650 473 661 c 128,-1,65
 476 672 476 672 476 677 c 0,66,67
 476 698 476 698 451 698 c 0,68,69
 436 698 436 698 429.5 691.5 c 128,-1,70
 423 685 423 685 420 673.5 c 128,-1,71
 417 662 417 662 417 657 c 0,72,73
 417 636 417 636 442 636 c 0,62,63
EndSplineSet
EndChar

StartChar: aring
Encoding: 229 229 164
Width: 571
Flags: W
LayerCount: 2
Fore
SplineSet
220 -12 m 0,0,1
 282 -12 282 -12 324 20.5 c 128,-1,2
 366 53 366 53 397 111 c 1,3,-1
 400 111 l 1,4,5
 387 48 387 48 386 43 c 128,-1,6
 385 38 385 38 385 29 c 0,7,8
 385 1 385 1 419 0 c 2,9,-1
 495 0 l 1,10,-1
 501 31 l 1,11,-1
 419 31 l 1,12,-1
 514 508 l 1,13,-1
 480 508 l 1,14,-1
 462 417 l 1,15,-1
 459 417 l 1,16,17
 445 465 445 465 406.5 492.5 c 128,-1,18
 368 520 368 520 308 520 c 0,19,20
 247 520 247 520 200.5 492 c 128,-1,21
 154 464 154 464 122 415 c 0,22,23
 58 310 58 310 58 178 c 0,24,25
 58 94 58 94 101 42 c 0,26,27
 142 -12 142 -12 220 -12 c 0,0,1
225 19 m 256,28,29
 160 19 160 19 125 65 c 0,30,31
 93 111 93 111 93 175 c 0,32,33
 93 216 93 216 99 242 c 2,34,-1
 107 286 l 2,35,36
 126 381 126 381 177 435 c 128,-1,37
 228 489 228 489 309 489 c 0,38,39
 351 489 351 489 380.5 475.5 c 128,-1,40
 410 462 410 462 426 441 c 0,41,42
 450 408 450 408 450 370 c 0,43,44
 450 357 450 357 447 344 c 2,45,-1
 420 211 l 2,46,47
 397 111 397 111 334 61 c 1,48,49
 290 19 290 19 225 19 c 256,28,29
342 586 m 0,50,51
 393 586 393 586 423 617.5 c 128,-1,52
 453 649 453 649 453 701 c 0,53,54
 453 730 453 730 433.5 754.5 c 128,-1,55
 414 779 414 779 370 779 c 0,56,57
 319 779 319 779 289 747.5 c 128,-1,58
 259 716 259 716 259 664 c 0,59,60
 259 636 259 636 277.5 611 c 128,-1,61
 296 586 296 586 342 586 c 0,50,51
346 611 m 0,62,63
 288 611 288 611 286 662 c 0,64,65
 286 667 286 667 287.5 672.5 c 128,-1,66
 289 678 289 678 290 690 c 0,67,68
 296 722 296 722 316.5 738 c 128,-1,69
 337 754 337 754 366 754 c 0,70,71
 425 754 425 754 426 703 c 0,72,73
 426 696 426 696 425 691.5 c 128,-1,74
 424 687 424 687 422 675 c 0,75,76
 416 643 416 643 395.5 627 c 128,-1,77
 375 611 375 611 346 611 c 0,62,63
EndSplineSet
EndChar

StartChar: ae
Encoding: 230 230 165
Width: 847
Flags: W
LayerCount: 2
Fore
SplineSet
199 19 m 0,0,1
 79 19 79 19 76 106 c 0,2,3
 76 124 76 124 81 147 c 0,4,5
 92 225 92 225 242 232 c 2,6,-1
 403 240 l 1,7,-1
 389 159 l 2,8,9
 375 89 375 89 319.5 54 c 128,-1,10
 264 19 264 19 199 19 c 0,0,1
442 268 m 1,11,-1
 445 282 l 2,12,13
 462 374 462 374 516 432 c 128,-1,14
 570 490 570 490 649 490 c 0,15,16
 776 490 776 490 776 396 c 0,17,18
 776 340 776 340 715 310 c 0,19,20
 647 273 647 273 442 268 c 1,11,-1
579 -12 m 0,21,22
 709 -12 709 -12 789 118 c 1,23,-1
 762 134 l 1,24,25
 732 80 732 80 686 49.5 c 128,-1,26
 640 19 640 19 581 19 c 0,27,28
 507 19 507 19 469.5 65 c 128,-1,29
 432 111 432 111 432 186 c 0,30,31
 432 212 432 212 438 239 c 1,32,33
 662 245 662 245 739 290 c 0,34,35
 811 328 811 328 811 397 c 0,36,37
 811 457 811 457 766 488.5 c 128,-1,38
 721 520 721 520 652 520 c 0,39,40
 586 520 586 520 537.5 487.5 c 128,-1,41
 489 455 489 455 458 398 c 1,42,-1
 454 398 l 1,43,44
 450 450 450 450 414.5 485 c 128,-1,45
 379 520 379 520 302 520 c 0,46,47
 226 520 226 520 181 492.5 c 128,-1,48
 136 465 136 465 108 416 c 1,49,-1
 133 398 l 1,50,51
 162 445 162 445 198.5 467 c 128,-1,52
 235 489 235 489 298 489 c 0,53,54
 426 489 426 489 426 379 c 0,55,56
 426 357 426 357 422 333 c 2,57,-1
 409 267 l 1,58,-1
 244 259 l 2,59,60
 139 254 139 254 90 218.5 c 128,-1,61
 41 183 41 183 41 108 c 0,62,63
 41 -7 41 -7 194 -12 c 0,64,65
 268 -12 268 -12 325.5 25.5 c 128,-1,66
 383 63 383 63 403 128 c 1,67,-1
 407 128 l 1,68,69
 420 60 420 60 465 24 c 128,-1,70
 510 -12 510 -12 579 -12 c 0,21,22
EndSplineSet
EndChar

StartChar: ccedilla
Encoding: 231 231 166
Width: 481
Flags: W
LayerCount: 2
Fore
SplineSet
204 -203 m 0,0,1
 249 -203 249 -203 275.5 -180 c 128,-1,2
 302 -157 302 -157 302 -123 c 0,3,4
 302 -70 302 -70 244 -69 c 0,5,6
 233 -69 233 -69 221 -71 c 2,7,-1
 215 -72 l 1,8,-1
 213 -70 l 1,9,-1
 237 -12 l 1,10,11
 300 -8 300 -8 345.5 26 c 128,-1,12
 391 60 391 60 426 117 c 1,13,-1
 398 131 l 1,14,15
 365 77 365 77 323.5 48 c 128,-1,16
 282 19 282 19 228 19 c 0,17,18
 160 19 160 19 126 67 c 128,-1,19
 92 115 92 115 92 185 c 0,20,21
 92 202 92 202 93 215 c 128,-1,22
 94 228 94 228 108 301 c 0,23,24
 126 390 126 390 176 440 c 128,-1,25
 226 490 226 490 299 490 c 0,26,27
 348 490 348 490 381.5 465.5 c 128,-1,28
 415 441 415 441 427 393 c 1,29,-1
 456 404 l 1,30,31
 444 456 444 456 403.5 488 c 128,-1,32
 363 520 363 520 301 520 c 0,33,34
 186 520 186 520 122 423.5 c 128,-1,35
 58 327 58 327 58 189 c 0,36,37
 58 105 58 105 97.5 50 c 128,-1,38
 137 -5 137 -5 213 -12 c 1,39,-1
 183 -82 l 1,40,-1
 218 -84 l 2,41,42
 248 -86 248 -86 259.5 -96.5 c 128,-1,43
 271 -107 271 -107 271 -124 c 0,44,45
 271 -147 271 -147 252.5 -162 c 128,-1,46
 234 -177 234 -177 204 -177 c 0,47,48
 162 -177 162 -177 143 -150 c 1,49,-1
 123 -170 l 1,50,51
 144 -203 144 -203 204 -203 c 0,0,1
EndSplineSet
EndChar

StartChar: egrave
Encoding: 232 232 167
Width: 506
Flags: W
LayerCount: 2
Fore
SplineSet
239 -12 m 0,0,1
 369 -12 369 -12 448 117 c 1,2,-1
 421 134 l 1,3,4
 391 80 391 80 345 49.5 c 128,-1,5
 299 19 299 19 240 19 c 0,6,7
 92 19 92 19 92 187 c 0,8,9
 92 198 92 198 95 230 c 1,10,11
 326 237 326 237 402 286 c 0,12,13
 471 327 471 327 471 394 c 0,14,15
 471 454 471 454 426 487 c 128,-1,16
 381 520 381 520 311 520 c 0,17,18
 255 520 255 520 208.5 494.5 c 128,-1,19
 162 469 162 469 129 424 c 0,20,21
 58 328 58 328 58 191 c 0,22,23
 58 88 58 88 104.5 38 c 128,-1,24
 151 -12 151 -12 239 -12 c 0,0,1
99 259 m 1,25,-1
 103 279 l 2,26,27
 120 373 120 373 174.5 431.5 c 128,-1,28
 229 490 229 490 307 490 c 0,29,30
 372 490 372 490 403.5 464.5 c 128,-1,31
 435 439 435 439 435 394 c 0,32,33
 435 368 435 368 421.5 345 c 128,-1,34
 408 322 408 322 373 304 c 0,35,36
 305 265 305 265 99 259 c 1,25,-1
335 587 m 1,37,-1
 358 598 l 1,38,-1
 282 757 l 1,39,-1
 251 741 l 1,40,-1
 335 587 l 1,37,-1
EndSplineSet
EndChar

StartChar: eacute
Encoding: 233 233 168
Width: 506
Flags: W
LayerCount: 2
Fore
SplineSet
239 -12 m 0,0,1
 369 -12 369 -12 448 117 c 1,2,-1
 421 134 l 1,3,4
 391 80 391 80 345 49.5 c 128,-1,5
 299 19 299 19 240 19 c 0,6,7
 92 19 92 19 92 187 c 0,8,9
 92 198 92 198 95 230 c 1,10,11
 326 237 326 237 402 286 c 0,12,13
 471 327 471 327 471 394 c 0,14,15
 471 454 471 454 426 487 c 128,-1,16
 381 520 381 520 311 520 c 0,17,18
 255 520 255 520 208.5 494.5 c 128,-1,19
 162 469 162 469 129 424 c 0,20,21
 58 328 58 328 58 191 c 0,22,23
 58 88 58 88 104.5 38 c 128,-1,24
 151 -12 151 -12 239 -12 c 0,0,1
99 259 m 1,25,-1
 103 279 l 2,26,27
 120 373 120 373 174.5 431.5 c 128,-1,28
 229 490 229 490 307 490 c 0,29,30
 372 490 372 490 403.5 464.5 c 128,-1,31
 435 439 435 439 435 394 c 0,32,33
 435 368 435 368 421.5 345 c 128,-1,34
 408 322 408 322 373 304 c 0,35,36
 305 265 305 265 99 259 c 1,25,-1
315 587 m 1,37,-1
 456 739 l 1,38,-1
 427 758 l 1,39,-1
 293 601 l 1,40,-1
 315 587 l 1,37,-1
EndSplineSet
EndChar

StartChar: ecircumflex
Encoding: 234 234 169
Width: 506
Flags: W
LayerCount: 2
Fore
SplineSet
239 -12 m 0,0,1
 369 -12 369 -12 448 117 c 1,2,-1
 421 134 l 1,3,4
 391 80 391 80 345 49.5 c 128,-1,5
 299 19 299 19 240 19 c 0,6,7
 92 19 92 19 92 187 c 0,8,9
 92 198 92 198 95 230 c 1,10,11
 326 237 326 237 402 286 c 0,12,13
 471 327 471 327 471 394 c 0,14,15
 471 454 471 454 426 487 c 128,-1,16
 381 520 381 520 311 520 c 0,17,18
 255 520 255 520 208.5 494.5 c 128,-1,19
 162 469 162 469 129 424 c 0,20,21
 58 328 58 328 58 191 c 0,22,23
 58 88 58 88 104.5 38 c 128,-1,24
 151 -12 151 -12 239 -12 c 0,0,1
99 259 m 1,25,-1
 103 279 l 2,26,27
 120 373 120 373 174.5 431.5 c 128,-1,28
 229 490 229 490 307 490 c 0,29,30
 372 490 372 490 403.5 464.5 c 128,-1,31
 435 439 435 439 435 394 c 0,32,33
 435 368 435 368 421.5 345 c 128,-1,34
 408 322 408 322 373 304 c 0,35,36
 305 265 305 265 99 259 c 1,25,-1
457 597 m 1,37,-1
 479 612 l 1,38,-1
 378 748 l 1,39,-1
 338 748 l 1,40,-1
 190 614 l 1,41,-1
 210 597 l 1,42,-1
 355 721 l 1,43,-1
 457 597 l 1,37,-1
EndSplineSet
EndChar

StartChar: edieresis
Encoding: 235 235 170
Width: 506
Flags: W
LayerCount: 2
Fore
SplineSet
239 -12 m 0,0,1
 369 -12 369 -12 448 117 c 1,2,-1
 421 134 l 1,3,4
 391 80 391 80 345 49.5 c 128,-1,5
 299 19 299 19 240 19 c 0,6,7
 92 19 92 19 92 187 c 0,8,9
 92 198 92 198 95 230 c 1,10,11
 326 237 326 237 402 286 c 0,12,13
 471 327 471 327 471 394 c 0,14,15
 471 454 471 454 426 487 c 128,-1,16
 381 520 381 520 311 520 c 0,17,18
 255 520 255 520 208.5 494.5 c 128,-1,19
 162 469 162 469 129 424 c 0,20,21
 58 328 58 328 58 191 c 0,22,23
 58 88 58 88 104.5 38 c 128,-1,24
 151 -12 151 -12 239 -12 c 0,0,1
99 259 m 1,25,-1
 103 279 l 2,26,27
 120 373 120 373 174.5 431.5 c 128,-1,28
 229 490 229 490 307 490 c 0,29,30
 372 490 372 490 403.5 464.5 c 128,-1,31
 435 439 435 439 435 394 c 0,32,33
 435 368 435 368 421.5 345 c 128,-1,34
 408 322 408 322 373 304 c 0,35,36
 305 265 305 265 99 259 c 1,25,-1
248 636 m 0,37,38
 263 636 263 636 269.5 643 c 128,-1,39
 276 650 276 650 279 661 c 128,-1,40
 282 672 282 672 282 677 c 0,41,42
 282 698 282 698 257 698 c 0,43,44
 242 698 242 698 235.5 691.5 c 128,-1,45
 229 685 229 685 226 673.5 c 128,-1,46
 223 662 223 662 223 657 c 0,47,48
 223 636 223 636 248 636 c 0,37,38
430 636 m 0,49,50
 445 636 445 636 451.5 643 c 128,-1,51
 458 650 458 650 461 661 c 128,-1,52
 464 672 464 672 464 677 c 0,53,54
 464 698 464 698 439 698 c 0,55,56
 424 698 424 698 417.5 691.5 c 128,-1,57
 411 685 411 685 408 673.5 c 128,-1,58
 405 662 405 662 405 657 c 0,59,60
 405 636 405 636 430 636 c 0,49,50
EndSplineSet
EndChar

StartChar: igrave
Encoding: 236 236 171
Width: 242
Flags: W
LayerCount: 2
Fore
SplineSet
165 0 m 1,0,-1
 171 31 l 1,1,-1
 89 31 l 1,2,-1
 184 508 l 1,3,-1
 150 508 l 1,4,5
 56 36 56 36 56 28 c 0,6,7
 56 0 56 0 89 0 c 2,8,-1
 165 0 l 1,0,-1
192 587 m 1,9,-1
 215 598 l 1,10,-1
 139 757 l 1,11,-1
 108 741 l 1,12,-1
 192 587 l 1,9,-1
EndSplineSet
EndChar

StartChar: iacute
Encoding: 237 237 172
Width: 242
Flags: W
LayerCount: 2
Fore
SplineSet
165 0 m 1,0,-1
 171 31 l 1,1,-1
 89 31 l 1,2,-1
 184 508 l 1,3,-1
 150 508 l 1,4,5
 56 36 56 36 56 28 c 0,6,7
 56 0 56 0 89 0 c 2,8,-1
 165 0 l 1,0,-1
172 587 m 1,9,-1
 313 739 l 1,10,-1
 284 758 l 1,11,-1
 150 601 l 1,12,-1
 172 587 l 1,9,-1
EndSplineSet
EndChar

StartChar: icircumflex
Encoding: 238 238 173
Width: 242
Flags: W
LayerCount: 2
Fore
SplineSet
165 0 m 1,0,-1
 171 31 l 1,1,-1
 89 31 l 1,2,-1
 184 508 l 1,3,-1
 150 508 l 1,4,5
 56 36 56 36 56 28 c 0,6,7
 56 0 56 0 89 0 c 2,8,-1
 165 0 l 1,0,-1
314 597 m 1,9,-1
 336 612 l 1,10,-1
 235 748 l 1,11,-1
 195 748 l 1,12,-1
 47 614 l 1,13,-1
 67 597 l 1,14,-1
 212 721 l 1,15,-1
 314 597 l 1,9,-1
EndSplineSet
EndChar

StartChar: idieresis
Encoding: 239 239 174
Width: 242
Flags: W
LayerCount: 2
Fore
SplineSet
165 0 m 1,0,-1
 171 31 l 1,1,-1
 89 31 l 1,2,-1
 184 508 l 1,3,-1
 150 508 l 1,4,5
 56 36 56 36 56 28 c 0,6,7
 56 0 56 0 89 0 c 2,8,-1
 165 0 l 1,0,-1
105 636 m 0,9,10
 120 636 120 636 126.5 643 c 128,-1,11
 133 650 133 650 136 661 c 128,-1,12
 139 672 139 672 139 677 c 0,13,14
 139 698 139 698 114 698 c 0,15,16
 99 698 99 698 92.5 691.5 c 128,-1,17
 86 685 86 685 83 673.5 c 128,-1,18
 80 662 80 662 80 657 c 0,19,20
 80 636 80 636 105 636 c 0,9,10
287 636 m 0,21,22
 302 636 302 636 308.5 643 c 128,-1,23
 315 650 315 650 318 661 c 128,-1,24
 321 672 321 672 321 677 c 0,25,26
 321 698 321 698 296 698 c 0,27,28
 281 698 281 698 274.5 691.5 c 128,-1,29
 268 685 268 685 265 673.5 c 128,-1,30
 262 662 262 662 262 657 c 0,31,32
 262 636 262 636 287 636 c 0,21,22
EndSplineSet
EndChar

StartChar: eth
Encoding: 240 240 175
Width: 561
Flags: W
LayerCount: 2
Fore
SplineSet
238 -12 m 0,0,1
 352 -12 352 -12 425 79.5 c 128,-1,2
 498 171 498 171 498 335 c 0,3,4
 498 532 498 532 365 657 c 1,5,-1
 480 730 l 1,6,-1
 465 752 l 1,7,-1
 344 675 l 1,8,9
 295 717 295 717 248 740 c 1,10,-1
 196 740 l 1,11,12
 264 706 264 706 318 659 c 1,13,-1
 210 590 l 1,14,-1
 224 568 l 1,15,-1
 338 640 l 1,16,17
 435 550 435 550 459 417 c 1,18,-1
 455 415 l 1,19,20
 412 504 412 504 305 504 c 0,21,22
 197 504 197 504 127 415 c 128,-1,23
 57 326 57 326 57 183 c 0,24,25
 57 92 57 92 105.5 40 c 128,-1,26
 154 -12 154 -12 238 -12 c 0,0,1
243 19 m 0,27,28
 174 19 174 19 132.5 60.5 c 128,-1,29
 91 102 91 102 91 177 c 0,30,31
 91 201 91 201 95 230 c 2,32,-1
 105 279 l 2,33,34
 124 371 124 371 178 422 c 128,-1,35
 232 473 232 473 310 473 c 0,36,37
 379 473 379 473 420.5 431.5 c 128,-1,38
 462 390 462 390 462 315 c 0,39,40
 462 291 462 291 458 262 c 2,41,-1
 448 213 l 2,42,43
 429 121 429 121 375 70 c 128,-1,44
 321 19 321 19 243 19 c 0,27,28
EndSplineSet
EndChar

StartChar: ntilde
Encoding: 241 241 176
Width: 552
Flags: W
LayerCount: 2
Fore
SplineSet
484 0 m 1,0,-1
 490 31 l 1,1,-1
 408 31 l 1,2,-1
 466 320 l 2,3,4
 473 356 473 356 473 386 c 0,5,6
 473 449 473 449 439.5 484.5 c 128,-1,7
 406 520 406 520 341 520 c 0,8,9
 280 520 280 520 238 490.5 c 128,-1,10
 196 461 196 461 167 404 c 1,11,-1
 164 404 l 1,12,-1
 185 508 l 1,13,-1
 151 508 l 1,14,-1
 49 0 l 1,15,-1
 83 0 l 1,16,-1
 144 306 l 2,17,18
 160 378 160 378 208 432 c 0,19,20
 260 489 260 489 332 489 c 0,21,22
 438 489 438 489 438 382 c 0,23,24
 438 352 438 352 432 320 c 0,25,26
 375 36 375 36 375 28 c 0,27,28
 375 0 375 0 407 0 c 2,29,-1
 484 0 l 1,0,-1
423 624 m 0,30,31
 470 624 470 624 511 667 c 1,32,-1
 496 685 l 1,33,34
 465 653 465 653 430 653 c 0,35,36
 413 653 413 653 399 659 c 128,-1,37
 385 665 385 665 365 679 c 128,-1,38
 345 693 345 693 329.5 700.5 c 128,-1,39
 314 708 314 708 293 708 c 0,40,41
 247 708 247 708 205 665 c 1,42,-1
 220 647 l 1,43,44
 252 679 252 679 286 679 c 0,45,46
 303 679 303 679 317 673 c 128,-1,47
 331 667 331 667 351 653 c 128,-1,48
 371 639 371 639 386.5 631.5 c 128,-1,49
 402 624 402 624 423 624 c 0,30,31
EndSplineSet
EndChar

StartChar: ograve
Encoding: 242 242 177
Width: 538
Flags: W
LayerCount: 2
Fore
SplineSet
227 -12 m 0,0,1
 288 -12 288 -12 335.5 15.5 c 128,-1,2
 383 43 383 43 416 91 c 0,3,4
 481 194 481 194 481 332 c 0,5,6
 481 415 481 415 436 467.5 c 128,-1,7
 391 520 391 520 311 520 c 0,8,9
 192 520 192 520 123 417 c 0,10,11
 57 314 57 314 57 176 c 0,12,13
 57 94 57 94 102.5 41 c 128,-1,14
 148 -12 148 -12 227 -12 c 0,0,1
231 19 m 0,15,16
 159 19 159 19 125 63 c 128,-1,17
 91 107 91 107 91 171 c 0,18,19
 91 207 91 207 96 237 c 2,20,-1
 105 285 l 1,21,22
 151 489 151 489 307 489 c 0,23,24
 379 489 379 489 413 444 c 128,-1,25
 447 399 447 399 447 337 c 0,26,27
 447 301 447 301 442 271 c 2,28,-1
 433 223 l 1,29,30
 387 19 387 19 231 19 c 0,15,16
332 587 m 1,31,-1
 355 598 l 1,32,-1
 279 757 l 1,33,-1
 248 741 l 1,34,-1
 332 587 l 1,31,-1
EndSplineSet
EndChar

StartChar: oacute
Encoding: 243 243 178
Width: 538
Flags: W
LayerCount: 2
Fore
SplineSet
227 -12 m 0,0,1
 288 -12 288 -12 335.5 15.5 c 128,-1,2
 383 43 383 43 416 91 c 0,3,4
 481 194 481 194 481 332 c 0,5,6
 481 415 481 415 436 467.5 c 128,-1,7
 391 520 391 520 311 520 c 0,8,9
 192 520 192 520 123 417 c 0,10,11
 57 314 57 314 57 176 c 0,12,13
 57 94 57 94 102.5 41 c 128,-1,14
 148 -12 148 -12 227 -12 c 0,0,1
231 19 m 0,15,16
 159 19 159 19 125 63 c 128,-1,17
 91 107 91 107 91 171 c 0,18,19
 91 207 91 207 96 237 c 2,20,-1
 105 285 l 1,21,22
 151 489 151 489 307 489 c 0,23,24
 379 489 379 489 413 444 c 128,-1,25
 447 399 447 399 447 337 c 0,26,27
 447 301 447 301 442 271 c 2,28,-1
 433 223 l 1,29,30
 387 19 387 19 231 19 c 0,15,16
312 587 m 1,31,-1
 453 739 l 1,32,-1
 424 758 l 1,33,-1
 290 601 l 1,34,-1
 312 587 l 1,31,-1
EndSplineSet
EndChar

StartChar: ocircumflex
Encoding: 244 244 179
Width: 538
Flags: W
LayerCount: 2
Fore
SplineSet
227 -12 m 0,0,1
 288 -12 288 -12 335.5 15.5 c 128,-1,2
 383 43 383 43 416 91 c 0,3,4
 481 194 481 194 481 332 c 0,5,6
 481 415 481 415 436 467.5 c 128,-1,7
 391 520 391 520 311 520 c 0,8,9
 192 520 192 520 123 417 c 0,10,11
 57 314 57 314 57 176 c 0,12,13
 57 94 57 94 102.5 41 c 128,-1,14
 148 -12 148 -12 227 -12 c 0,0,1
231 19 m 0,15,16
 159 19 159 19 125 63 c 128,-1,17
 91 107 91 107 91 171 c 0,18,19
 91 207 91 207 96 237 c 2,20,-1
 105 285 l 1,21,22
 151 489 151 489 307 489 c 0,23,24
 379 489 379 489 413 444 c 128,-1,25
 447 399 447 399 447 337 c 0,26,27
 447 301 447 301 442 271 c 2,28,-1
 433 223 l 1,29,30
 387 19 387 19 231 19 c 0,15,16
454 597 m 1,31,-1
 476 612 l 1,32,-1
 375 748 l 1,33,-1
 335 748 l 1,34,-1
 187 614 l 1,35,-1
 207 597 l 1,36,-1
 352 721 l 1,37,-1
 454 597 l 1,31,-1
EndSplineSet
EndChar

StartChar: otilde
Encoding: 245 245 180
Width: 538
Flags: W
LayerCount: 2
Fore
SplineSet
227 -12 m 0,0,1
 288 -12 288 -12 335.5 15.5 c 128,-1,2
 383 43 383 43 416 91 c 0,3,4
 481 194 481 194 481 332 c 0,5,6
 481 415 481 415 436 467.5 c 128,-1,7
 391 520 391 520 311 520 c 0,8,9
 192 520 192 520 123 417 c 0,10,11
 57 314 57 314 57 176 c 0,12,13
 57 94 57 94 102.5 41 c 128,-1,14
 148 -12 148 -12 227 -12 c 0,0,1
231 19 m 0,15,16
 159 19 159 19 125 63 c 128,-1,17
 91 107 91 107 91 171 c 0,18,19
 91 207 91 207 96 237 c 2,20,-1
 105 285 l 1,21,22
 151 489 151 489 307 489 c 0,23,24
 379 489 379 489 413 444 c 128,-1,25
 447 399 447 399 447 337 c 0,26,27
 447 301 447 301 442 271 c 2,28,-1
 433 223 l 1,29,30
 387 19 387 19 231 19 c 0,15,16
403 624 m 0,31,32
 450 624 450 624 491 667 c 1,33,-1
 476 685 l 1,34,35
 445 653 445 653 410 653 c 0,36,37
 393 653 393 653 379 659 c 128,-1,38
 365 665 365 665 345 679 c 128,-1,39
 325 693 325 693 309.5 700.5 c 128,-1,40
 294 708 294 708 273 708 c 0,41,42
 227 708 227 708 185 665 c 1,43,-1
 200 647 l 1,44,45
 232 679 232 679 266 679 c 0,46,47
 283 679 283 679 297 673 c 128,-1,48
 311 667 311 667 331 653 c 128,-1,49
 351 639 351 639 366.5 631.5 c 128,-1,50
 382 624 382 624 403 624 c 0,31,32
EndSplineSet
EndChar

StartChar: odieresis
Encoding: 246 246 181
Width: 538
Flags: W
LayerCount: 2
Fore
SplineSet
227 -12 m 0,0,1
 288 -12 288 -12 335.5 15.5 c 128,-1,2
 383 43 383 43 416 91 c 0,3,4
 481 194 481 194 481 332 c 0,5,6
 481 415 481 415 436 467.5 c 128,-1,7
 391 520 391 520 311 520 c 0,8,9
 192 520 192 520 123 417 c 0,10,11
 57 314 57 314 57 176 c 0,12,13
 57 94 57 94 102.5 41 c 128,-1,14
 148 -12 148 -12 227 -12 c 0,0,1
231 19 m 0,15,16
 159 19 159 19 125 63 c 128,-1,17
 91 107 91 107 91 171 c 0,18,19
 91 207 91 207 96 237 c 2,20,-1
 105 285 l 1,21,22
 151 489 151 489 307 489 c 0,23,24
 379 489 379 489 413 444 c 128,-1,25
 447 399 447 399 447 337 c 0,26,27
 447 301 447 301 442 271 c 2,28,-1
 433 223 l 1,29,30
 387 19 387 19 231 19 c 0,15,16
245 636 m 0,31,32
 260 636 260 636 266.5 643 c 128,-1,33
 273 650 273 650 276 661 c 128,-1,34
 279 672 279 672 279 677 c 0,35,36
 279 698 279 698 254 698 c 0,37,38
 239 698 239 698 232.5 691.5 c 128,-1,39
 226 685 226 685 223 673.5 c 128,-1,40
 220 662 220 662 220 657 c 0,41,42
 220 636 220 636 245 636 c 0,31,32
427 636 m 0,43,44
 442 636 442 636 448.5 643 c 128,-1,45
 455 650 455 650 458 661 c 128,-1,46
 461 672 461 672 461 677 c 0,47,48
 461 698 461 698 436 698 c 0,49,50
 421 698 421 698 414.5 691.5 c 128,-1,51
 408 685 408 685 405 673.5 c 128,-1,52
 402 662 402 662 402 657 c 0,53,54
 402 636 402 636 427 636 c 0,43,44
EndSplineSet
EndChar

StartChar: divide
Encoding: 247 247 182
Width: 600
Flags: W
LayerCount: 2
Fore
SplineSet
542 290 m 1,0,-1
 548 320 l 1,1,-1
 78 320 l 1,2,-1
 72 290 l 1,3,-1
 542 290 l 1,0,-1
268 75 m 0,4,5
 288 75 288 75 296.5 82.5 c 128,-1,6
 305 90 305 90 307 103 c 0,7,8
 311 113 311 113 311 126 c 0,9,10
 311 150 311 150 277 150 c 0,11,12
 242 150 242 150 238 122 c 0,13,14
 234 112 234 112 234 98 c 0,15,16
 234 75 234 75 268 75 c 0,4,5
346 461 m 0,17,18
 381 461 381 461 385 490 c 2,19,-1
 386 496 l 2,20,21
 388 505 388 505 388 513 c 0,22,23
 388 537 388 537 355 537 c 0,24,25
 319 537 319 537 315 508 c 2,26,-1
 314 502 l 2,27,28
 312 493 312 493 312 485 c 0,29,30
 312 461 312 461 346 461 c 0,17,18
EndSplineSet
EndChar

StartChar: oslash
Encoding: 248 248 183
Width: 538
Flags: W
LayerCount: 2
Fore
SplineSet
38 -30 m 1,0,-1
 101 42 l 1,1,2
 145 -12 145 -12 227 -12 c 0,3,4
 288 -12 288 -12 335.5 15.5 c 128,-1,5
 383 43 383 43 416 91 c 0,6,7
 481 194 481 194 481 332 c 0,8,9
 481 397 481 397 453 444 c 1,10,-1
 520 521 l 1,11,-1
 500 538 l 1,12,-1
 437 466 l 1,13,14
 394 520 394 520 311 520 c 0,15,16
 192 520 192 520 123 417 c 0,17,18
 57 314 57 314 57 176 c 0,19,20
 57 112 57 112 85 64 c 1,21,-1
 18 -13 l 1,22,-1
 38 -30 l 1,0,-1
108 90 m 1,23,24
 91 125 91 125 91 171 c 0,25,26
 91 207 91 207 96 237 c 2,27,-1
 105 285 l 1,28,29
 151 489 151 489 307 489 c 0,30,31
 384 489 384 489 416 441 c 1,32,-1
 108 90 l 1,23,24
231 19 m 0,33,34
 159 19 159 19 122 67 c 1,35,-1
 430 418 l 1,36,37
 447 381 447 381 447 337 c 0,38,39
 447 301 447 301 442 271 c 2,40,-1
 433 223 l 1,41,42
 387 19 387 19 231 19 c 0,33,34
EndSplineSet
EndChar

StartChar: ugrave
Encoding: 249 249 184
Width: 551
Flags: W
LayerCount: 2
Fore
SplineSet
203 -12 m 0,0,1
 264 -12 264 -12 305.5 17.5 c 128,-1,2
 347 47 347 47 376 104 c 1,3,-1
 379 104 l 1,4,5
 368 50 368 50 367 43.5 c 128,-1,6
 366 37 366 37 366 29 c 0,7,8
 366 1 366 1 399 0 c 2,9,-1
 475 0 l 1,10,-1
 481 31 l 1,11,-1
 399 31 l 1,12,-1
 494 508 l 1,13,-1
 460 508 l 1,14,-1
 399 202 l 1,15,16
 378 119 378 119 335 76 c 0,17,18
 285 19 285 19 211 19 c 0,19,20
 105 19 105 19 105 128 c 0,21,22
 105 138 105 138 107 155 c 0,23,24
 110 177 110 177 176 508 c 1,25,-1
 142 508 l 1,26,-1
 78 188 l 2,27,28
 71 152 71 152 71 123 c 0,29,30
 71 59 71 59 105 23.5 c 128,-1,31
 139 -12 139 -12 203 -12 c 0,0,1
338 587 m 1,32,-1
 361 598 l 1,33,-1
 285 757 l 1,34,-1
 254 741 l 1,35,-1
 338 587 l 1,32,-1
EndSplineSet
EndChar

StartChar: uacute
Encoding: 250 250 185
Width: 551
Flags: W
LayerCount: 2
Fore
SplineSet
203 -12 m 0,0,1
 264 -12 264 -12 305.5 17.5 c 128,-1,2
 347 47 347 47 376 104 c 1,3,-1
 379 104 l 1,4,5
 368 50 368 50 367 43.5 c 128,-1,6
 366 37 366 37 366 29 c 0,7,8
 366 1 366 1 399 0 c 2,9,-1
 475 0 l 1,10,-1
 481 31 l 1,11,-1
 399 31 l 1,12,-1
 494 508 l 1,13,-1
 460 508 l 1,14,-1
 399 202 l 1,15,16
 378 119 378 119 335 76 c 0,17,18
 285 19 285 19 211 19 c 0,19,20
 105 19 105 19 105 128 c 0,21,22
 105 138 105 138 107 155 c 0,23,24
 110 177 110 177 176 508 c 1,25,-1
 142 508 l 1,26,-1
 78 188 l 2,27,28
 71 152 71 152 71 123 c 0,29,30
 71 59 71 59 105 23.5 c 128,-1,31
 139 -12 139 -12 203 -12 c 0,0,1
318 587 m 1,32,-1
 459 739 l 1,33,-1
 430 758 l 1,34,-1
 296 601 l 1,35,-1
 318 587 l 1,32,-1
EndSplineSet
EndChar

StartChar: ucircumflex
Encoding: 251 251 186
Width: 551
Flags: W
LayerCount: 2
Fore
SplineSet
203 -12 m 0,0,1
 264 -12 264 -12 305.5 17.5 c 128,-1,2
 347 47 347 47 376 104 c 1,3,-1
 379 104 l 1,4,5
 368 50 368 50 367 43.5 c 128,-1,6
 366 37 366 37 366 29 c 0,7,8
 366 1 366 1 399 0 c 2,9,-1
 475 0 l 1,10,-1
 481 31 l 1,11,-1
 399 31 l 1,12,-1
 494 508 l 1,13,-1
 460 508 l 1,14,-1
 399 202 l 1,15,16
 378 119 378 119 335 76 c 0,17,18
 285 19 285 19 211 19 c 0,19,20
 105 19 105 19 105 128 c 0,21,22
 105 138 105 138 107 155 c 0,23,24
 110 177 110 177 176 508 c 1,25,-1
 142 508 l 1,26,-1
 78 188 l 2,27,28
 71 152 71 152 71 123 c 0,29,30
 71 59 71 59 105 23.5 c 128,-1,31
 139 -12 139 -12 203 -12 c 0,0,1
460 597 m 1,32,-1
 482 612 l 1,33,-1
 381 748 l 1,34,-1
 341 748 l 1,35,-1
 193 614 l 1,36,-1
 213 597 l 1,37,-1
 358 721 l 1,38,-1
 460 597 l 1,32,-1
EndSplineSet
EndChar

StartChar: udieresis
Encoding: 252 252 187
Width: 551
Flags: W
LayerCount: 2
Fore
SplineSet
203 -12 m 0,0,1
 264 -12 264 -12 305.5 17.5 c 128,-1,2
 347 47 347 47 376 104 c 1,3,-1
 379 104 l 1,4,5
 368 50 368 50 367 43.5 c 128,-1,6
 366 37 366 37 366 29 c 0,7,8
 366 1 366 1 399 0 c 2,9,-1
 475 0 l 1,10,-1
 481 31 l 1,11,-1
 399 31 l 1,12,-1
 494 508 l 1,13,-1
 460 508 l 1,14,-1
 399 202 l 1,15,16
 378 119 378 119 335 76 c 0,17,18
 285 19 285 19 211 19 c 0,19,20
 105 19 105 19 105 128 c 0,21,22
 105 138 105 138 107 155 c 0,23,24
 110 177 110 177 176 508 c 1,25,-1
 142 508 l 1,26,-1
 78 188 l 2,27,28
 71 152 71 152 71 123 c 0,29,30
 71 59 71 59 105 23.5 c 128,-1,31
 139 -12 139 -12 203 -12 c 0,0,1
251 636 m 0,32,33
 266 636 266 636 272.5 643 c 128,-1,34
 279 650 279 650 282 661 c 128,-1,35
 285 672 285 672 285 677 c 0,36,37
 285 698 285 698 260 698 c 0,38,39
 245 698 245 698 238.5 691.5 c 128,-1,40
 232 685 232 685 229 673.5 c 128,-1,41
 226 662 226 662 226 657 c 0,42,43
 226 636 226 636 251 636 c 0,32,33
433 636 m 0,44,45
 448 636 448 636 454.5 643 c 128,-1,46
 461 650 461 650 464 661 c 128,-1,47
 467 672 467 672 467 677 c 0,48,49
 467 698 467 698 442 698 c 0,50,51
 427 698 427 698 420.5 691.5 c 128,-1,52
 414 685 414 685 411 673.5 c 128,-1,53
 408 662 408 662 408 657 c 0,54,55
 408 636 408 636 433 636 c 0,44,45
EndSplineSet
EndChar

StartChar: yacute
Encoding: 253 253 188
Width: 466
Flags: W
LayerCount: 2
Fore
SplineSet
53 -200 m 2,0,1
 73 -200 73 -200 85 -191 c 128,-1,2
 97 -182 97 -182 108 -161 c 2,3,-1
 487 508 l 1,4,-1
 450 508 l 1,5,-1
 188 38 l 1,6,-1
 184 38 l 1,7,-1
 105 508 l 1,8,-1
 72 508 l 1,9,-1
 161 -6 l 1,10,-1
 69 -170 l 1,11,-1
 -17 -170 l 1,12,-1
 -23 -200 l 1,13,-1
 53 -200 l 2,0,1
278 587 m 1,14,-1
 419 739 l 1,15,-1
 390 758 l 1,16,-1
 256 601 l 1,17,-1
 278 587 l 1,14,-1
EndSplineSet
EndChar

StartChar: thorn
Encoding: 254 254 189
Width: 563
Flags: W
LayerCount: 2
Fore
SplineSet
43 -200 m 1,0,-1
 101 91 l 1,1,-1
 104 91 l 1,2,3
 118 43 118 43 156.5 15.5 c 128,-1,4
 195 -12 195 -12 255 -12 c 0,5,6
 316 -12 316 -12 363 16 c 128,-1,7
 410 44 410 44 442 93 c 0,8,9
 505 198 505 198 505 330 c 0,10,11
 505 414 505 414 463 467 c 128,-1,12
 421 520 421 520 343 520 c 0,13,14
 281 520 281 520 239.5 487.5 c 128,-1,15
 198 455 198 455 166 397 c 1,16,-1
 163 397 l 1,17,-1
 231 740 l 1,18,-1
 197 740 l 1,19,-1
 9 -200 l 1,20,-1
 43 -200 l 1,0,-1
254 19 m 0,21,22
 175 19 175 19 138 67 c 0,23,24
 113 101 113 101 113 138 c 0,25,26
 113 151 113 151 116 164 c 2,27,-1
 143 297 l 2,28,29
 167 398 167 398 229 447 c 1,30,31
 273 489 273 489 339 489 c 0,32,33
 407 489 407 489 438.5 443.5 c 128,-1,34
 470 398 470 398 470 333 c 0,35,36
 470 293 470 293 464 266 c 2,37,-1
 456 222 l 2,38,39
 437 127 437 127 386 73 c 128,-1,40
 335 19 335 19 254 19 c 0,21,22
EndSplineSet
EndChar

StartChar: ydieresis
Encoding: 255 255 190
Width: 466
Flags: W
LayerCount: 2
Fore
SplineSet
53 -200 m 2,0,1
 73 -200 73 -200 85 -191 c 128,-1,2
 97 -182 97 -182 108 -161 c 2,3,-1
 487 508 l 1,4,-1
 450 508 l 1,5,-1
 188 38 l 1,6,-1
 184 38 l 1,7,-1
 105 508 l 1,8,-1
 72 508 l 1,9,-1
 161 -6 l 1,10,-1
 69 -170 l 1,11,-1
 -17 -170 l 1,12,-1
 -23 -200 l 1,13,-1
 53 -200 l 2,0,1
211 636 m 0,14,15
 226 636 226 636 232.5 643 c 128,-1,16
 239 650 239 650 242 661 c 128,-1,17
 245 672 245 672 245 677 c 0,18,19
 245 698 245 698 220 698 c 0,20,21
 205 698 205 698 198.5 691.5 c 128,-1,22
 192 685 192 685 189 673.5 c 128,-1,23
 186 662 186 662 186 657 c 0,24,25
 186 636 186 636 211 636 c 0,14,15
393 636 m 0,26,27
 408 636 408 636 414.5 643 c 128,-1,28
 421 650 421 650 424 661 c 128,-1,29
 427 672 427 672 427 677 c 0,30,31
 427 698 427 698 402 698 c 0,32,33
 387 698 387 698 380.5 691.5 c 128,-1,34
 374 685 374 685 371 673.5 c 128,-1,35
 368 662 368 662 368 657 c 0,36,37
 368 636 368 636 393 636 c 0,26,27
EndSplineSet
EndChar

StartChar: Amacron
Encoding: 256 256 191
Width: 601
Flags: W
LayerCount: 2
Fore
SplineSet
526 0 m 1,0,-1
 400 698 l 1,1,-1
 352 698 l 1,2,-1
 -16 0 l 1,3,-1
 23 0 l 1,4,-1
 142 227 l 1,5,-1
 449 227 l 1,6,-1
 489 0 l 1,7,-1
 526 0 l 1,0,-1
444 259 m 1,8,-1
 158 259 l 1,9,-1
 368 661 l 1,10,-1
 372 661 l 1,11,-1
 444 259 l 1,8,-1
542 831 m 1,12,-1
 548 861 l 1,13,-1
 287 861 l 1,14,-1
 281 831 l 1,15,-1
 542 831 l 1,12,-1
EndSplineSet
EndChar

StartChar: amacron
Encoding: 257 257 192
Width: 571
Flags: W
LayerCount: 2
Fore
SplineSet
220 -12 m 0,0,1
 282 -12 282 -12 324 20.5 c 128,-1,2
 366 53 366 53 397 111 c 1,3,-1
 400 111 l 1,4,5
 387 48 387 48 386 43 c 128,-1,6
 385 38 385 38 385 29 c 0,7,8
 385 1 385 1 419 0 c 2,9,-1
 495 0 l 1,10,-1
 501 31 l 1,11,-1
 419 31 l 1,12,-1
 514 508 l 1,13,-1
 480 508 l 1,14,-1
 462 417 l 1,15,-1
 459 417 l 1,16,17
 445 465 445 465 406.5 492.5 c 128,-1,18
 368 520 368 520 308 520 c 0,19,20
 247 520 247 520 200.5 492 c 128,-1,21
 154 464 154 464 122 415 c 0,22,23
 58 310 58 310 58 178 c 0,24,25
 58 94 58 94 101 42 c 0,26,27
 142 -12 142 -12 220 -12 c 0,0,1
225 19 m 256,28,29
 160 19 160 19 125 65 c 0,30,31
 93 111 93 111 93 175 c 0,32,33
 93 216 93 216 99 242 c 2,34,-1
 107 286 l 2,35,36
 126 381 126 381 177 435 c 128,-1,37
 228 489 228 489 309 489 c 0,38,39
 351 489 351 489 380.5 475.5 c 128,-1,40
 410 462 410 462 426 441 c 0,41,42
 450 408 450 408 450 370 c 0,43,44
 450 357 450 357 447 344 c 2,45,-1
 420 211 l 2,46,47
 397 111 397 111 334 61 c 1,48,49
 290 19 290 19 225 19 c 256,28,29
482 653 m 1,50,-1
 488 683 l 1,51,-1
 227 683 l 1,52,-1
 221 653 l 1,53,-1
 482 653 l 1,50,-1
EndSplineSet
EndChar

StartChar: Abreve
Encoding: 258 258 193
Width: 601
Flags: W
LayerCount: 2
Fore
SplineSet
526 0 m 1,0,-1
 400 698 l 1,1,-1
 352 698 l 1,2,-1
 -16 0 l 1,3,-1
 23 0 l 1,4,-1
 142 227 l 1,5,-1
 449 227 l 1,6,-1
 489 0 l 1,7,-1
 526 0 l 1,0,-1
444 259 m 1,8,-1
 158 259 l 1,9,-1
 368 661 l 1,10,-1
 372 661 l 1,11,-1
 444 259 l 1,8,-1
395 781 m 0,12,13
 424 781 424 781 446 791 c 0,14,15
 499 814 499 814 548 902 c 1,16,-1
 524 912 l 1,17,-1
 501 880 l 2,18,19
 474 842 474 842 451 826 c 128,-1,20
 428 810 428 810 396 810 c 0,21,22
 365 810 365 810 346.5 826.5 c 128,-1,23
 328 843 328 843 313 879 c 2,24,-1
 300 912 l 1,25,-1
 276 902 l 1,26,27
 291 849 291 849 316 815 c 128,-1,28
 341 781 341 781 395 781 c 0,12,13
EndSplineSet
EndChar

StartChar: abreve
Encoding: 259 259 194
Width: 571
Flags: W
LayerCount: 2
Fore
SplineSet
220 -12 m 0,0,1
 282 -12 282 -12 324 20.5 c 128,-1,2
 366 53 366 53 397 111 c 1,3,-1
 400 111 l 1,4,5
 387 48 387 48 386 43 c 128,-1,6
 385 38 385 38 385 29 c 0,7,8
 385 1 385 1 419 0 c 2,9,-1
 495 0 l 1,10,-1
 501 31 l 1,11,-1
 419 31 l 1,12,-1
 514 508 l 1,13,-1
 480 508 l 1,14,-1
 462 417 l 1,15,-1
 459 417 l 1,16,17
 445 465 445 465 406.5 492.5 c 128,-1,18
 368 520 368 520 308 520 c 0,19,20
 247 520 247 520 200.5 492 c 128,-1,21
 154 464 154 464 122 415 c 0,22,23
 58 310 58 310 58 178 c 0,24,25
 58 94 58 94 101 42 c 0,26,27
 142 -12 142 -12 220 -12 c 0,0,1
225 19 m 256,28,29
 160 19 160 19 125 65 c 0,30,31
 93 111 93 111 93 175 c 0,32,33
 93 216 93 216 99 242 c 2,34,-1
 107 286 l 2,35,36
 126 381 126 381 177 435 c 128,-1,37
 228 489 228 489 309 489 c 0,38,39
 351 489 351 489 380.5 475.5 c 128,-1,40
 410 462 410 462 426 441 c 0,41,42
 450 408 450 408 450 370 c 0,43,44
 450 357 450 357 447 344 c 2,45,-1
 420 211 l 2,46,47
 397 111 397 111 334 61 c 1,48,49
 290 19 290 19 225 19 c 256,28,29
345 604 m 0,50,51
 373 604 373 604 394 614 c 0,52,53
 448 637 448 637 497 725 c 1,54,-1
 474 735 l 1,55,-1
 451 702 l 2,56,57
 424 664 424 664 401 648.5 c 128,-1,58
 378 633 378 633 345 633 c 0,59,60
 315 633 315 633 296.5 649 c 128,-1,61
 278 665 278 665 263 701 c 2,62,-1
 249 735 l 1,63,-1
 226 725 l 1,64,65
 239 671 239 671 266.5 637.5 c 128,-1,66
 294 604 294 604 345 604 c 0,50,51
EndSplineSet
EndChar

StartChar: Aogonek
Encoding: 260 260 195
Width: 601
Flags: W
LayerCount: 2
Fore
SplineSet
430 -203 m 0,0,1
 486 -203 486 -203 513 -170 c 1,2,-1
 494 -151 l 1,3,4
 469 -177 469 -177 431 -177 c 0,5,6
 411 -177 411 -177 398 -166 c 128,-1,7
 385 -155 385 -155 385 -133 c 0,8,9
 385 -101 385 -101 417 -73 c 128,-1,10
 449 -45 449 -45 526 0 c 1,11,-1
 400 698 l 1,12,-1
 352 698 l 1,13,-1
 -16 0 l 1,14,-1
 23 0 l 1,15,-1
 142 227 l 1,16,-1
 449 227 l 1,17,-1
 488 0 l 1,18,19
 411 -39 411 -39 382 -71 c 128,-1,20
 353 -103 353 -103 353 -135 c 0,21,22
 353 -170 353 -170 375.5 -186.5 c 128,-1,23
 398 -203 398 -203 430 -203 c 0,0,1
444 259 m 1,24,-1
 158 259 l 1,25,-1
 368 661 l 1,26,-1
 372 661 l 1,27,-1
 444 259 l 1,24,-1
EndSplineSet
EndChar

StartChar: aogonek
Encoding: 261 261 196
Width: 571
Flags: W
LayerCount: 2
Fore
SplineSet
399 -203 m 0,0,1
 455 -203 455 -203 481 -170 c 1,2,-1
 463 -151 l 1,3,4
 438 -177 438 -177 400 -177 c 0,5,6
 380 -177 380 -177 367 -166 c 128,-1,7
 354 -155 354 -155 354 -133 c 0,8,9
 354 -101 354 -101 386 -73 c 128,-1,10
 418 -45 418 -45 495 0 c 1,11,-1
 501 31 l 1,12,-1
 419 31 l 1,13,-1
 514 508 l 1,14,-1
 480 508 l 1,15,-1
 462 418 l 1,16,-1
 459 418 l 1,17,18
 445 466 445 466 406.5 493 c 128,-1,19
 368 520 368 520 308 520 c 0,20,21
 247 520 247 520 200.5 492 c 128,-1,22
 154 464 154 464 122 416 c 0,23,24
 58 310 58 310 58 178 c 0,25,26
 58 96 58 96 100.5 42 c 128,-1,27
 143 -12 143 -12 219 -12 c 0,28,29
 282 -12 282 -12 324 20.5 c 128,-1,30
 366 53 366 53 397 111 c 1,31,-1
 400 111 l 1,32,33
 387 48 387 48 386 43 c 128,-1,34
 385 38 385 38 385 29 c 0,35,36
 385 1 385 1 419 0 c 2,37,-1
 456 0 l 1,38,-1
 457 -3 l 1,39,40
 380 -40 380 -40 351 -72.5 c 128,-1,41
 322 -105 322 -105 322 -135 c 0,42,43
 322 -170 322 -170 344.5 -186.5 c 128,-1,44
 367 -203 367 -203 399 -203 c 0,0,1
224 19 m 0,45,46
 157 19 157 19 125 64.5 c 128,-1,47
 93 110 93 110 93 176 c 0,48,49
 93 214 93 214 98 242 c 2,50,-1
 107 287 l 2,51,52
 126 382 126 382 177 435.5 c 128,-1,53
 228 489 228 489 310 489 c 0,54,55
 389 489 389 489 425 442 c 0,56,57
 450 408 450 408 450 370 c 0,58,59
 450 360 450 360 448 349 c 2,60,-1
 420 211 l 2,61,62
 397 112 397 112 334 62 c 1,63,64
 289 19 289 19 224 19 c 0,45,46
EndSplineSet
EndChar

StartChar: Cacute
Encoding: 262 262 197
Width: 597
Flags: W
LayerCount: 2
Fore
SplineSet
291 -12 m 0,0,1
 446 -12 446 -12 528 145 c 1,2,-1
 497 160 l 1,3,4
 460 91 460 91 411.5 56 c 128,-1,5
 363 21 363 21 292 21 c 0,6,7
 200 21 200 21 151 76.5 c 128,-1,8
 102 132 102 132 102 226 c 0,9,10
 102 267 102 267 111 325 c 2,11,-1
 125 394 l 2,12,13
 151 524 151 524 222.5 600.5 c 128,-1,14
 294 677 294 677 394 677 c 0,15,16
 469 677 469 677 507.5 644 c 128,-1,17
 546 611 546 611 562 553 c 1,18,-1
 595 565 l 1,19,20
 557 710 557 710 396 710 c 0,21,22
 309 710 309 710 247 665.5 c 128,-1,23
 185 621 185 621 145 549 c 128,-1,24
 105 477 105 477 85.5 393 c 128,-1,25
 66 309 66 309 66 231 c 0,26,27
 66 113 66 113 128.5 50.5 c 128,-1,28
 191 -12 191 -12 291 -12 c 0,0,1
409 764 m 1,29,-1
 550 917 l 1,30,-1
 521 936 l 1,31,-1
 387 779 l 1,32,-1
 409 764 l 1,29,-1
EndSplineSet
EndChar

StartChar: cacute
Encoding: 263 263 198
Width: 481
Flags: W
LayerCount: 2
Fore
SplineSet
226 -12 m 0,0,1
 350 -12 350 -12 426 117 c 1,2,-1
 398 131 l 1,3,4
 365 77 365 77 323.5 48 c 128,-1,5
 282 19 282 19 228 19 c 0,6,7
 162 19 162 19 125 68 c 0,8,9
 92 116 92 116 92 186 c 0,10,11
 92 203 92 203 93 215.5 c 128,-1,12
 94 228 94 228 108 301 c 0,13,14
 126 390 126 390 176 440 c 128,-1,15
 226 490 226 490 299 490 c 0,16,17
 348 490 348 490 381.5 465.5 c 128,-1,18
 415 441 415 441 427 393 c 1,19,-1
 456 404 l 1,20,21
 444 456 444 456 403.5 488 c 128,-1,22
 363 520 363 520 301 520 c 0,23,24
 186 520 186 520 122 423.5 c 128,-1,25
 58 327 58 327 58 189 c 0,26,27
 58 99 58 99 101 43.5 c 128,-1,28
 144 -12 144 -12 226 -12 c 0,0,1
303 587 m 1,29,-1
 444 739 l 1,30,-1
 415 758 l 1,31,-1
 281 601 l 1,32,-1
 303 587 l 1,29,-1
EndSplineSet
EndChar

StartChar: Ccircumflex
Encoding: 264 264 199
Width: 597
Flags: W
LayerCount: 2
Fore
SplineSet
291 -12 m 0,0,1
 446 -12 446 -12 528 145 c 1,2,-1
 497 160 l 1,3,4
 460 91 460 91 411.5 56 c 128,-1,5
 363 21 363 21 292 21 c 0,6,7
 200 21 200 21 151 76.5 c 128,-1,8
 102 132 102 132 102 226 c 0,9,10
 102 267 102 267 111 325 c 2,11,-1
 125 394 l 2,12,13
 151 524 151 524 222.5 600.5 c 128,-1,14
 294 677 294 677 394 677 c 0,15,16
 469 677 469 677 507.5 644 c 128,-1,17
 546 611 546 611 562 553 c 1,18,-1
 595 565 l 1,19,20
 557 710 557 710 396 710 c 0,21,22
 309 710 309 710 247 665.5 c 128,-1,23
 185 621 185 621 145 549 c 128,-1,24
 105 477 105 477 85.5 393 c 128,-1,25
 66 309 66 309 66 231 c 0,26,27
 66 113 66 113 128.5 50.5 c 128,-1,28
 191 -12 191 -12 291 -12 c 0,0,1
540 775 m 1,29,-1
 562 790 l 1,30,-1
 461 926 l 1,31,-1
 421 926 l 1,32,-1
 273 791 l 1,33,-1
 293 775 l 1,34,-1
 439 899 l 1,35,-1
 540 775 l 1,29,-1
EndSplineSet
EndChar

StartChar: ccircumflex
Encoding: 265 265 200
Width: 481
Flags: W
LayerCount: 2
Fore
SplineSet
226 -12 m 0,0,1
 350 -12 350 -12 426 117 c 1,2,-1
 398 131 l 1,3,4
 365 77 365 77 323.5 48 c 128,-1,5
 282 19 282 19 228 19 c 0,6,7
 162 19 162 19 125 68 c 0,8,9
 92 116 92 116 92 186 c 0,10,11
 92 203 92 203 93 215.5 c 128,-1,12
 94 228 94 228 108 301 c 0,13,14
 126 390 126 390 176 440 c 128,-1,15
 226 490 226 490 299 490 c 0,16,17
 348 490 348 490 381.5 465.5 c 128,-1,18
 415 441 415 441 427 393 c 1,19,-1
 456 404 l 1,20,21
 444 456 444 456 403.5 488 c 128,-1,22
 363 520 363 520 301 520 c 0,23,24
 186 520 186 520 122 423.5 c 128,-1,25
 58 327 58 327 58 189 c 0,26,27
 58 99 58 99 101 43.5 c 128,-1,28
 144 -12 144 -12 226 -12 c 0,0,1
445 597 m 1,29,-1
 467 612 l 1,30,-1
 366 748 l 1,31,-1
 326 748 l 1,32,-1
 178 614 l 1,33,-1
 198 597 l 1,34,-1
 343 721 l 1,35,-1
 445 597 l 1,29,-1
EndSplineSet
EndChar

StartChar: Cdotaccent
Encoding: 266 266 201
Width: 597
Flags: W
LayerCount: 2
Fore
SplineSet
291 -12 m 0,0,1
 446 -12 446 -12 528 145 c 1,2,-1
 497 160 l 1,3,4
 460 91 460 91 411.5 56 c 128,-1,5
 363 21 363 21 292 21 c 0,6,7
 200 21 200 21 151 76.5 c 128,-1,8
 102 132 102 132 102 226 c 0,9,10
 102 267 102 267 111 325 c 2,11,-1
 125 394 l 2,12,13
 151 524 151 524 222.5 600.5 c 128,-1,14
 294 677 294 677 394 677 c 0,15,16
 469 677 469 677 507.5 644 c 128,-1,17
 546 611 546 611 562 553 c 1,18,-1
 595 565 l 1,19,20
 557 710 557 710 396 710 c 0,21,22
 309 710 309 710 247 665.5 c 128,-1,23
 185 621 185 621 145 549 c 128,-1,24
 105 477 105 477 85.5 393 c 128,-1,25
 66 309 66 309 66 231 c 0,26,27
 66 113 66 113 128.5 50.5 c 128,-1,28
 191 -12 191 -12 291 -12 c 0,0,1
423 814 m 0,29,30
 438 814 438 814 444.5 821 c 128,-1,31
 451 828 451 828 454 839 c 128,-1,32
 457 850 457 850 457 855 c 0,33,34
 457 876 457 876 432 876 c 0,35,36
 417 876 417 876 410.5 869.5 c 128,-1,37
 404 863 404 863 401 851.5 c 128,-1,38
 398 840 398 840 398 835 c 0,39,40
 398 814 398 814 423 814 c 0,29,30
EndSplineSet
EndChar

StartChar: cdotaccent
Encoding: 267 267 202
Width: 481
Flags: W
LayerCount: 2
Fore
SplineSet
226 -12 m 0,0,1
 350 -12 350 -12 426 117 c 1,2,-1
 398 131 l 1,3,4
 365 77 365 77 323.5 48 c 128,-1,5
 282 19 282 19 228 19 c 0,6,7
 162 19 162 19 125 68 c 0,8,9
 92 116 92 116 92 186 c 0,10,11
 92 203 92 203 93 215.5 c 128,-1,12
 94 228 94 228 108 301 c 0,13,14
 126 390 126 390 176 440 c 128,-1,15
 226 490 226 490 299 490 c 0,16,17
 348 490 348 490 381.5 465.5 c 128,-1,18
 415 441 415 441 427 393 c 1,19,-1
 456 404 l 1,20,21
 444 456 444 456 403.5 488 c 128,-1,22
 363 520 363 520 301 520 c 0,23,24
 186 520 186 520 122 423.5 c 128,-1,25
 58 327 58 327 58 189 c 0,26,27
 58 99 58 99 101 43.5 c 128,-1,28
 144 -12 144 -12 226 -12 c 0,0,1
327 636 m 0,29,30
 342 636 342 636 348.5 643 c 128,-1,31
 355 650 355 650 358 661 c 128,-1,32
 361 672 361 672 361 677 c 0,33,34
 361 698 361 698 336 698 c 0,35,36
 321 698 321 698 314.5 691.5 c 128,-1,37
 308 685 308 685 305 673.5 c 128,-1,38
 302 662 302 662 302 657 c 0,39,40
 302 636 302 636 327 636 c 0,29,30
EndSplineSet
EndChar

StartChar: Ccaron
Encoding: 268 268 203
Width: 597
Flags: W
LayerCount: 2
Fore
SplineSet
291 -12 m 0,0,1
 446 -12 446 -12 528 145 c 1,2,-1
 497 160 l 1,3,4
 460 91 460 91 411.5 56 c 128,-1,5
 363 21 363 21 292 21 c 0,6,7
 200 21 200 21 151 76.5 c 128,-1,8
 102 132 102 132 102 226 c 0,9,10
 102 267 102 267 111 325 c 2,11,-1
 125 394 l 2,12,13
 151 524 151 524 222.5 600.5 c 128,-1,14
 294 677 294 677 394 677 c 0,15,16
 469 677 469 677 507.5 644 c 128,-1,17
 546 611 546 611 562 553 c 1,18,-1
 595 565 l 1,19,20
 557 710 557 710 396 710 c 0,21,22
 309 710 309 710 247 665.5 c 128,-1,23
 185 621 185 621 145 549 c 128,-1,24
 105 477 105 477 85.5 393 c 128,-1,25
 66 309 66 309 66 231 c 0,26,27
 66 113 66 113 128.5 50.5 c 128,-1,28
 191 -12 191 -12 291 -12 c 0,0,1
435 780 m 1,29,-1
 583 915 l 1,30,-1
 563 931 l 1,31,-1
 417 807 l 1,32,-1
 316 931 l 1,33,-1
 294 916 l 1,34,-1
 395 780 l 1,35,-1
 435 780 l 1,29,-1
EndSplineSet
EndChar

StartChar: ccaron
Encoding: 269 269 204
Width: 481
Flags: W
LayerCount: 2
Fore
SplineSet
226 -12 m 0,0,1
 350 -12 350 -12 426 117 c 1,2,-1
 398 131 l 1,3,4
 365 77 365 77 323.5 48 c 128,-1,5
 282 19 282 19 228 19 c 0,6,7
 162 19 162 19 125 68 c 0,8,9
 92 116 92 116 92 186 c 0,10,11
 92 203 92 203 93 215.5 c 128,-1,12
 94 228 94 228 108 301 c 0,13,14
 126 390 126 390 176 440 c 128,-1,15
 226 490 226 490 299 490 c 0,16,17
 348 490 348 490 381.5 465.5 c 128,-1,18
 415 441 415 441 427 393 c 1,19,-1
 456 404 l 1,20,21
 444 456 444 456 403.5 488 c 128,-1,22
 363 520 363 520 301 520 c 0,23,24
 186 520 186 520 122 423.5 c 128,-1,25
 58 327 58 327 58 189 c 0,26,27
 58 99 58 99 101 43.5 c 128,-1,28
 144 -12 144 -12 226 -12 c 0,0,1
339 602 m 1,29,-1
 487 736 l 1,30,-1
 467 753 l 1,31,-1
 322 629 l 1,32,-1
 220 753 l 1,33,-1
 198 738 l 1,34,-1
 299 602 l 1,35,-1
 339 602 l 1,29,-1
EndSplineSet
EndChar

StartChar: Dcaron
Encoding: 270 270 205
Width: 649
Flags: W
LayerCount: 2
Fore
SplineSet
280 0 m 2,0,1
 365 0 365 0 427.5 39.5 c 128,-1,2
 490 79 490 79 531 145 c 128,-1,3
 572 211 572 211 592 292.5 c 128,-1,4
 612 374 612 374 612 458 c 0,5,6
 612 573 612 573 553 635.5 c 128,-1,7
 494 698 494 698 379 698 c 2,8,-1
 190 698 l 1,9,-1
 50 0 l 1,10,-1
 280 0 l 2,0,1
281 32 m 2,11,-1
 93 32 l 1,12,-1
 219 666 l 1,13,-1
 376 666 l 2,14,15
 476 666 476 666 526 612.5 c 128,-1,16
 576 559 576 559 576 465 c 0,17,18
 576 425 576 425 567 367 c 2,19,-1
 554 300 l 2,20,21
 532 185 532 185 463 110 c 0,22,23
 389 32 389 32 281 32 c 2,11,-1
407 780 m 1,24,-1
 555 915 l 1,25,-1
 535 931 l 1,26,-1
 389 807 l 1,27,-1
 288 931 l 1,28,-1
 266 916 l 1,29,-1
 367 780 l 1,30,-1
 407 780 l 1,24,-1
EndSplineSet
EndChar

StartChar: dcaron
Encoding: 271 271 206
Width: 571
Flags: W
LayerCount: 2
Fore
SplineSet
220 -12 m 0,0,1
 282 -12 282 -12 324 20.5 c 128,-1,2
 366 53 366 53 397 111 c 1,3,-1
 400 111 l 1,4,5
 387 48 387 48 386 43 c 128,-1,6
 385 38 385 38 385 29 c 0,7,8
 385 1 385 1 419 0 c 2,9,-1
 495 0 l 1,10,-1
 501 31 l 1,11,-1
 418 31 l 1,12,-1
 560 740 l 1,13,-1
 526 740 l 1,14,-1
 462 417 l 1,15,-1
 459 417 l 1,16,17
 445 465 445 465 406.5 492.5 c 128,-1,18
 368 520 368 520 308 520 c 0,19,20
 247 520 247 520 200.5 492 c 128,-1,21
 154 464 154 464 122 415 c 0,22,23
 58 310 58 310 58 178 c 0,24,25
 58 94 58 94 101 42 c 0,26,27
 142 -12 142 -12 220 -12 c 0,0,1
225 19 m 256,28,29
 160 19 160 19 125 65 c 0,30,31
 93 111 93 111 93 175 c 0,32,33
 93 216 93 216 99 242 c 2,34,-1
 107 286 l 2,35,36
 126 381 126 381 177 435 c 128,-1,37
 228 489 228 489 309 489 c 0,38,39
 351 489 351 489 380.5 475.5 c 128,-1,40
 410 462 410 462 426 441 c 0,41,42
 450 408 450 408 450 370 c 0,43,44
 450 357 450 357 447 344 c 2,45,-1
 420 211 l 2,46,47
 397 111 397 111 334 61 c 1,48,49
 290 19 290 19 225 19 c 256,28,29
619 562 m 1,50,-1
 677 740 l 1,51,-1
 636 740 l 1,52,-1
 593 562 l 1,53,-1
 619 562 l 1,50,-1
EndSplineSet
EndChar

StartChar: Dcroat
Encoding: 272 272 207
Width: 652
Flags: W
LayerCount: 2
Fore
SplineSet
283 0 m 2,0,1
 368 0 368 0 430.5 39.5 c 128,-1,2
 493 79 493 79 534 145 c 128,-1,3
 575 211 575 211 595 292.5 c 128,-1,4
 615 374 615 374 615 458 c 0,5,6
 615 573 615 573 555.5 635.5 c 128,-1,7
 496 698 496 698 382 698 c 2,8,-1
 193 698 l 1,9,-1
 130 383 l 1,10,-1
 46 383 l 1,11,-1
 40 353 l 1,12,-1
 124 353 l 1,13,-1
 53 0 l 1,14,-1
 283 0 l 2,0,1
284 32 m 2,15,-1
 96 32 l 1,16,-1
 160 353 l 1,17,-1
 319 353 l 1,18,-1
 325 383 l 1,19,-1
 166 383 l 1,20,-1
 222 666 l 1,21,-1
 379 666 l 2,22,23
 479 666 479 666 529 612.5 c 128,-1,24
 579 559 579 559 579 465 c 0,25,26
 579 425 579 425 570 367 c 2,27,-1
 557 300 l 2,28,29
 535 185 535 185 466 110 c 0,30,31
 392 32 392 32 284 32 c 2,15,-1
EndSplineSet
EndChar

StartChar: dcroat
Encoding: 273 273 208
Width: 574
Flags: W
LayerCount: 2
Fore
SplineSet
220 -12 m 0,0,1
 282 -12 282 -12 324 20.5 c 128,-1,2
 366 53 366 53 397 111 c 1,3,-1
 400 111 l 1,4,5
 387 48 387 48 386 43 c 128,-1,6
 385 38 385 38 385 29 c 0,7,8
 385 1 385 1 419 0 c 2,9,-1
 495 0 l 1,10,-1
 501 31 l 1,11,-1
 418 31 l 1,12,-1
 537 623 l 1,13,-1
 602 623 l 1,14,-1
 608 652 l 1,15,-1
 542 652 l 1,16,-1
 560 740 l 1,17,-1
 526 740 l 1,18,-1
 509 652 l 1,19,-1
 350 652 l 1,20,-1
 344 623 l 1,21,-1
 503 623 l 1,22,-1
 462 417 l 1,23,-1
 459 417 l 1,24,25
 445 465 445 465 406.5 492.5 c 128,-1,26
 368 520 368 520 308 520 c 0,27,28
 247 520 247 520 200.5 492 c 128,-1,29
 154 464 154 464 122 415 c 0,30,31
 58 310 58 310 58 178 c 0,32,33
 58 94 58 94 101 42 c 0,34,35
 142 -12 142 -12 220 -12 c 0,0,1
225 19 m 256,36,37
 160 19 160 19 125 65 c 0,38,39
 93 111 93 111 93 175 c 0,40,41
 93 216 93 216 99 242 c 2,42,-1
 107 286 l 2,43,44
 126 381 126 381 177 435 c 128,-1,45
 228 489 228 489 309 489 c 0,46,47
 351 489 351 489 380.5 475.5 c 128,-1,48
 410 462 410 462 426 441 c 0,49,50
 450 408 450 408 450 370 c 0,51,52
 450 357 450 357 447 344 c 2,53,-1
 420 211 l 2,54,55
 397 111 397 111 334 61 c 1,56,57
 290 19 290 19 225 19 c 256,36,37
EndSplineSet
EndChar

StartChar: Emacron
Encoding: 274 274 209
Width: 556
Flags: W
LayerCount: 2
Fore
SplineSet
440 0 m 1,0,-1
 447 32 l 1,1,-1
 92 32 l 1,2,-1
 153 338 l 1,3,-1
 487 338 l 1,4,-1
 493 370 l 1,5,-1
 160 370 l 1,6,-1
 220 666 l 1,7,-1
 570 666 l 1,8,-1
 576 698 l 1,9,-1
 190 698 l 1,10,-1
 50 0 l 1,11,-1
 440 0 l 1,0,-1
546 831 m 1,12,-1
 552 861 l 1,13,-1
 291 861 l 1,14,-1
 285 831 l 1,15,-1
 546 831 l 1,12,-1
EndSplineSet
EndChar

StartChar: emacron
Encoding: 275 275 210
Width: 506
Flags: W
LayerCount: 2
Fore
SplineSet
239 -12 m 0,0,1
 369 -12 369 -12 448 117 c 1,2,-1
 421 134 l 1,3,4
 391 80 391 80 345 49.5 c 128,-1,5
 299 19 299 19 240 19 c 0,6,7
 92 19 92 19 92 187 c 0,8,9
 92 198 92 198 95 230 c 1,10,11
 326 237 326 237 402 286 c 0,12,13
 471 327 471 327 471 394 c 0,14,15
 471 454 471 454 426 487 c 128,-1,16
 381 520 381 520 311 520 c 0,17,18
 255 520 255 520 208.5 494.5 c 128,-1,19
 162 469 162 469 129 424 c 0,20,21
 58 328 58 328 58 191 c 0,22,23
 58 88 58 88 104.5 38 c 128,-1,24
 151 -12 151 -12 239 -12 c 0,0,1
99 259 m 1,25,-1
 103 279 l 2,26,27
 120 373 120 373 174.5 431.5 c 128,-1,28
 229 490 229 490 307 490 c 0,29,30
 372 490 372 490 403.5 464.5 c 128,-1,31
 435 439 435 439 435 394 c 0,32,33
 435 368 435 368 421.5 345 c 128,-1,34
 408 322 408 322 373 304 c 0,35,36
 305 265 305 265 99 259 c 1,25,-1
470 653 m 1,37,-1
 476 683 l 1,38,-1
 215 683 l 1,39,-1
 209 653 l 1,40,-1
 470 653 l 1,37,-1
EndSplineSet
EndChar

StartChar: Ebreve
Encoding: 276 276 211
Width: 556
Flags: W
LayerCount: 2
Fore
SplineSet
440 0 m 1,0,-1
 447 32 l 1,1,-1
 92 32 l 1,2,-1
 153 338 l 1,3,-1
 487 338 l 1,4,-1
 493 370 l 1,5,-1
 160 370 l 1,6,-1
 220 666 l 1,7,-1
 570 666 l 1,8,-1
 576 698 l 1,9,-1
 190 698 l 1,10,-1
 50 0 l 1,11,-1
 440 0 l 1,0,-1
399 781 m 0,12,13
 428 781 428 781 450 791 c 0,14,15
 503 814 503 814 552 902 c 1,16,-1
 528 912 l 1,17,-1
 505 880 l 2,18,19
 478 842 478 842 455 826 c 128,-1,20
 432 810 432 810 400 810 c 0,21,22
 369 810 369 810 350.5 826.5 c 128,-1,23
 332 843 332 843 317 879 c 2,24,-1
 304 912 l 1,25,-1
 280 902 l 1,26,27
 295 849 295 849 320 815 c 128,-1,28
 345 781 345 781 399 781 c 0,12,13
EndSplineSet
EndChar

StartChar: ebreve
Encoding: 277 277 212
Width: 506
Flags: W
LayerCount: 2
Fore
SplineSet
239 -12 m 0,0,1
 369 -12 369 -12 448 117 c 1,2,-1
 421 134 l 1,3,4
 391 80 391 80 345 49.5 c 128,-1,5
 299 19 299 19 240 19 c 0,6,7
 92 19 92 19 92 187 c 0,8,9
 92 198 92 198 95 230 c 1,10,11
 326 237 326 237 402 286 c 0,12,13
 471 327 471 327 471 394 c 0,14,15
 471 454 471 454 426 487 c 128,-1,16
 381 520 381 520 311 520 c 0,17,18
 255 520 255 520 208.5 494.5 c 128,-1,19
 162 469 162 469 129 424 c 0,20,21
 58 328 58 328 58 191 c 0,22,23
 58 88 58 88 104.5 38 c 128,-1,24
 151 -12 151 -12 239 -12 c 0,0,1
99 259 m 1,25,-1
 103 279 l 2,26,27
 120 373 120 373 174.5 431.5 c 128,-1,28
 229 490 229 490 307 490 c 0,29,30
 372 490 372 490 403.5 464.5 c 128,-1,31
 435 439 435 439 435 394 c 0,32,33
 435 368 435 368 421.5 345 c 128,-1,34
 408 322 408 322 373 304 c 0,35,36
 305 265 305 265 99 259 c 1,25,-1
333 604 m 0,37,38
 361 604 361 604 382 614 c 0,39,40
 436 637 436 637 485 725 c 1,41,-1
 462 735 l 1,42,-1
 439 702 l 2,43,44
 412 664 412 664 389 648.5 c 128,-1,45
 366 633 366 633 333 633 c 0,46,47
 303 633 303 633 284.5 649 c 128,-1,48
 266 665 266 665 251 701 c 2,49,-1
 237 735 l 1,50,-1
 214 725 l 1,51,52
 227 671 227 671 254.5 637.5 c 128,-1,53
 282 604 282 604 333 604 c 0,37,38
EndSplineSet
EndChar

StartChar: Edotaccent
Encoding: 278 278 213
Width: 556
Flags: W
LayerCount: 2
Fore
SplineSet
440 0 m 1,0,-1
 447 32 l 1,1,-1
 92 32 l 1,2,-1
 153 338 l 1,3,-1
 487 338 l 1,4,-1
 493 370 l 1,5,-1
 160 370 l 1,6,-1
 220 666 l 1,7,-1
 570 666 l 1,8,-1
 576 698 l 1,9,-1
 190 698 l 1,10,-1
 50 0 l 1,11,-1
 440 0 l 1,0,-1
405 814 m 0,12,13
 420 814 420 814 426.5 821 c 128,-1,14
 433 828 433 828 436 839 c 128,-1,15
 439 850 439 850 439 855 c 0,16,17
 439 876 439 876 414 876 c 0,18,19
 399 876 399 876 392.5 869.5 c 128,-1,20
 386 863 386 863 383 851.5 c 128,-1,21
 380 840 380 840 380 835 c 0,22,23
 380 814 380 814 405 814 c 0,12,13
EndSplineSet
EndChar

StartChar: edotaccent
Encoding: 279 279 214
Width: 506
Flags: W
LayerCount: 2
Fore
SplineSet
239 -12 m 0,0,1
 369 -12 369 -12 448 117 c 1,2,-1
 421 134 l 1,3,4
 391 80 391 80 345 49.5 c 128,-1,5
 299 19 299 19 240 19 c 0,6,7
 92 19 92 19 92 187 c 0,8,9
 92 198 92 198 95 230 c 1,10,11
 326 237 326 237 402 286 c 0,12,13
 471 327 471 327 471 394 c 0,14,15
 471 454 471 454 426 487 c 128,-1,16
 381 520 381 520 311 520 c 0,17,18
 255 520 255 520 208.5 494.5 c 128,-1,19
 162 469 162 469 129 424 c 0,20,21
 58 328 58 328 58 191 c 0,22,23
 58 88 58 88 104.5 38 c 128,-1,24
 151 -12 151 -12 239 -12 c 0,0,1
99 259 m 1,25,-1
 103 279 l 2,26,27
 120 373 120 373 174.5 431.5 c 128,-1,28
 229 490 229 490 307 490 c 0,29,30
 372 490 372 490 403.5 464.5 c 128,-1,31
 435 439 435 439 435 394 c 0,32,33
 435 368 435 368 421.5 345 c 128,-1,34
 408 322 408 322 373 304 c 0,35,36
 305 265 305 265 99 259 c 1,25,-1
339 636 m 0,37,38
 354 636 354 636 360.5 643 c 128,-1,39
 367 650 367 650 370 661 c 128,-1,40
 373 672 373 672 373 677 c 0,41,42
 373 698 373 698 348 698 c 0,43,44
 333 698 333 698 326.5 691.5 c 128,-1,45
 320 685 320 685 317 673.5 c 128,-1,46
 314 662 314 662 314 657 c 0,47,48
 314 636 314 636 339 636 c 0,37,38
EndSplineSet
EndChar

StartChar: Eogonek
Encoding: 280 280 215
Width: 556
Flags: W
LayerCount: 2
Fore
SplineSet
345 -203 m 0,0,1
 401 -203 401 -203 427 -170 c 1,2,-1
 409 -151 l 1,3,4
 384 -177 384 -177 346 -177 c 0,5,6
 326 -177 326 -177 312.5 -166 c 128,-1,7
 299 -155 299 -155 299 -133 c 0,8,9
 299 -101 299 -101 331.5 -73 c 128,-1,10
 364 -45 364 -45 441 0 c 1,11,-1
 447 32 l 1,12,-1
 92 32 l 1,13,-1
 153 338 l 1,14,-1
 487 338 l 1,15,-1
 493 370 l 1,16,-1
 160 370 l 1,17,-1
 220 666 l 1,18,-1
 570 666 l 1,19,-1
 576 698 l 1,20,-1
 190 698 l 1,21,-1
 50 0 l 1,22,-1
 402 0 l 1,23,-1
 403 -3 l 1,24,25
 325 -41 325 -41 296 -73 c 128,-1,26
 267 -105 267 -105 267 -135 c 0,27,28
 267 -170 267 -170 290 -186.5 c 128,-1,29
 313 -203 313 -203 345 -203 c 0,0,1
EndSplineSet
EndChar

StartChar: eogonek
Encoding: 281 281 216
Width: 506
Flags: W
LayerCount: 2
Fore
SplineSet
245 -203 m 0,0,1
 301 -203 301 -203 327 -170 c 1,2,-1
 309 -151 l 1,3,4
 284 -177 284 -177 246 -177 c 0,5,6
 226 -177 226 -177 212.5 -166 c 128,-1,7
 199 -155 199 -155 199 -133 c 0,8,9
 199 -93 199 -93 232 -62 c 128,-1,10
 265 -31 265 -31 330 6 c 1,11,12
 395 38 395 38 448 117 c 1,13,-1
 421 134 l 1,14,15
 391 80 391 80 345 49.5 c 128,-1,16
 299 19 299 19 240 19 c 0,17,18
 92 19 92 19 92 187 c 0,19,20
 92 198 92 198 95 230 c 1,21,22
 326 237 326 237 402 286 c 0,23,24
 471 327 471 327 471 394 c 0,25,26
 471 454 471 454 426 487 c 128,-1,27
 381 520 381 520 311 520 c 0,28,29
 255 520 255 520 208.5 494.5 c 128,-1,30
 162 469 162 469 129 424 c 0,31,32
 58 328 58 328 58 191 c 0,33,34
 58 88 58 88 104.5 38 c 128,-1,35
 151 -12 151 -12 238 -12 c 0,36,37
 255 -12 255 -12 275 -7 c 1,38,-1
 276 -10 l 1,39,40
 167 -65 167 -65 167 -135 c 0,41,42
 167 -170 167 -170 190 -186.5 c 128,-1,43
 213 -203 213 -203 245 -203 c 0,0,1
99 259 m 1,44,-1
 103 279 l 2,45,46
 120 373 120 373 174.5 431.5 c 128,-1,47
 229 490 229 490 307 490 c 0,48,49
 372 490 372 490 403.5 464.5 c 128,-1,50
 435 439 435 439 435 394 c 0,51,52
 435 368 435 368 421.5 345 c 128,-1,53
 408 322 408 322 373 304 c 0,54,55
 305 265 305 265 99 259 c 1,44,-1
EndSplineSet
EndChar

StartChar: Ecaron
Encoding: 282 282 217
Width: 556
Flags: W
LayerCount: 2
Fore
SplineSet
440 0 m 1,0,-1
 447 32 l 1,1,-1
 92 32 l 1,2,-1
 153 338 l 1,3,-1
 487 338 l 1,4,-1
 493 370 l 1,5,-1
 160 370 l 1,6,-1
 220 666 l 1,7,-1
 570 666 l 1,8,-1
 576 698 l 1,9,-1
 190 698 l 1,10,-1
 50 0 l 1,11,-1
 440 0 l 1,0,-1
417 780 m 1,12,-1
 565 915 l 1,13,-1
 545 931 l 1,14,-1
 399 807 l 1,15,-1
 298 931 l 1,16,-1
 276 916 l 1,17,-1
 377 780 l 1,18,-1
 417 780 l 1,12,-1
EndSplineSet
EndChar

StartChar: ecaron
Encoding: 283 283 218
Width: 506
Flags: W
LayerCount: 2
Fore
SplineSet
239 -12 m 0,0,1
 369 -12 369 -12 448 117 c 1,2,-1
 421 134 l 1,3,4
 391 80 391 80 345 49.5 c 128,-1,5
 299 19 299 19 240 19 c 0,6,7
 92 19 92 19 92 187 c 0,8,9
 92 198 92 198 95 230 c 1,10,11
 326 237 326 237 402 286 c 0,12,13
 471 327 471 327 471 394 c 0,14,15
 471 454 471 454 426 487 c 128,-1,16
 381 520 381 520 311 520 c 0,17,18
 255 520 255 520 208.5 494.5 c 128,-1,19
 162 469 162 469 129 424 c 0,20,21
 58 328 58 328 58 191 c 0,22,23
 58 88 58 88 104.5 38 c 128,-1,24
 151 -12 151 -12 239 -12 c 0,0,1
99 259 m 1,25,-1
 103 279 l 2,26,27
 120 373 120 373 174.5 431.5 c 128,-1,28
 229 490 229 490 307 490 c 0,29,30
 372 490 372 490 403.5 464.5 c 128,-1,31
 435 439 435 439 435 394 c 0,32,33
 435 368 435 368 421.5 345 c 128,-1,34
 408 322 408 322 373 304 c 0,35,36
 305 265 305 265 99 259 c 1,25,-1
351 602 m 1,37,-1
 499 736 l 1,38,-1
 479 753 l 1,39,-1
 334 629 l 1,40,-1
 232 753 l 1,41,-1
 210 738 l 1,42,-1
 311 602 l 1,43,-1
 351 602 l 1,37,-1
EndSplineSet
EndChar

StartChar: Gcircumflex
Encoding: 284 284 219
Width: 660
Flags: W
LayerCount: 2
Fore
SplineSet
291 -12 m 0,0,1
 442 -12 442 -12 512 111 c 1,2,-1
 515 111 l 1,3,-1
 493 0 l 1,4,-1
 527 0 l 1,5,-1
 594 339 l 1,6,-1
 389 339 l 1,7,-1
 382 306 l 1,8,-1
 552 306 l 1,9,-1
 533 211 l 2,10,11
 511 112 511 112 444 67 c 0,12,13
 381 21 381 21 297 21 c 0,14,15
 202 21 202 21 152 76 c 128,-1,16
 102 131 102 131 102 228 c 0,17,18
 102 269 102 269 111 325 c 2,19,-1
 124 392 l 2,20,21
 150 525 150 525 223 600 c 0,22,23
 294 677 294 677 400 677 c 0,24,25
 482 677 482 677 524.5 644 c 128,-1,26
 567 611 567 611 584 553 c 1,27,-1
 617 565 l 1,28,29
 578 710 578 710 403 710 c 0,30,31
 289 710 289 710 209 632 c 0,32,33
 134 557 134 557 100 447 c 0,34,35
 66 345 66 345 66 231 c 0,36,37
 66 113 66 113 128.5 50.5 c 128,-1,38
 191 -12 191 -12 291 -12 c 0,0,1
549 775 m 1,39,-1
 571 790 l 1,40,-1
 470 926 l 1,41,-1
 430 926 l 1,42,-1
 282 791 l 1,43,-1
 302 775 l 1,44,-1
 448 899 l 1,45,-1
 549 775 l 1,39,-1
EndSplineSet
EndChar

StartChar: gcircumflex
Encoding: 285 285 220
Width: 554
Flags: W
LayerCount: 2
Fore
SplineSet
470 597 m 1,0,-1
 368 721 l 1,1,-1
 223 597 l 1,2,-1
 203 614 l 1,3,-1
 351 748 l 1,4,-1
 391 748 l 1,5,-1
 492 612 l 1,6,-1
 470 597 l 1,0,-1
180 -212 m 0,7,8
 70 -212 70 -212 16 -140 c 1,9,-1
 41 -118 l 1,10,11
 85 -181 85 -181 180 -181 c 0,12,13
 342 -181 342 -181 377 -9 c 2,14,-1
 400 111 l 1,15,-1
 397 111 l 1,16,17
 366 53 366 53 324 20.5 c 128,-1,18
 282 -12 282 -12 220 -12 c 0,19,20
 143 -12 143 -12 100.5 41.5 c 128,-1,21
 58 95 58 95 58 178 c 0,22,23
 58 266 58 266 86.5 344 c 128,-1,24
 115 422 115 422 171 471 c 128,-1,25
 227 520 227 520 308 520 c 0,26,27
 427 520 427 520 459 417 c 1,28,-1
 462 417 l 1,29,-1
 480 508 l 1,30,-1
 515 508 l 1,31,-1
 410 -16 l 2,32,33
 390 -114 390 -114 331.5 -163 c 128,-1,34
 273 -212 273 -212 180 -212 c 0,7,8
225 19 m 0,35,36
 288 19 288 19 334 61 c 0,37,38
 396 111 396 111 420 211 c 2,39,-1
 447 344 l 2,40,41
 450 357 450 357 450 369 c 0,42,43
 450 390 450 390 440.5 417 c 128,-1,44
 431 444 431 444 398.5 466.5 c 128,-1,45
 366 489 366 489 309 489 c 0,46,47
 229 489 229 489 177.5 435 c 128,-1,48
 126 381 126 381 107 286 c 2,49,-1
 99 242 l 2,50,51
 93 214 93 214 93 175 c 0,52,53
 93 111 93 111 124.5 65 c 128,-1,54
 156 19 156 19 225 19 c 0,35,36
EndSplineSet
EndChar

StartChar: Gbreve
Encoding: 286 286 221
Width: 660
Flags: W
LayerCount: 2
Fore
SplineSet
291 -12 m 0,0,1
 442 -12 442 -12 512 111 c 1,2,-1
 515 111 l 1,3,-1
 493 0 l 1,4,-1
 527 0 l 1,5,-1
 594 339 l 1,6,-1
 389 339 l 1,7,-1
 382 306 l 1,8,-1
 552 306 l 1,9,-1
 533 211 l 2,10,11
 511 112 511 112 444 67 c 0,12,13
 381 21 381 21 297 21 c 0,14,15
 202 21 202 21 152 76 c 128,-1,16
 102 131 102 131 102 228 c 0,17,18
 102 269 102 269 111 325 c 2,19,-1
 124 392 l 2,20,21
 150 525 150 525 223 600 c 0,22,23
 294 677 294 677 400 677 c 0,24,25
 482 677 482 677 524.5 644 c 128,-1,26
 567 611 567 611 584 553 c 1,27,-1
 617 565 l 1,28,29
 578 710 578 710 403 710 c 0,30,31
 289 710 289 710 209 632 c 0,32,33
 134 557 134 557 100 447 c 0,34,35
 66 345 66 345 66 231 c 0,36,37
 66 113 66 113 128.5 50.5 c 128,-1,38
 191 -12 191 -12 291 -12 c 0,0,1
426 781 m 0,39,40
 455 781 455 781 477 791 c 0,41,42
 530 814 530 814 579 902 c 1,43,-1
 555 912 l 1,44,-1
 532 880 l 2,45,46
 505 842 505 842 482 826 c 128,-1,47
 459 810 459 810 427 810 c 0,48,49
 396 810 396 810 377.5 826.5 c 128,-1,50
 359 843 359 843 344 879 c 2,51,-1
 331 912 l 1,52,-1
 307 902 l 1,53,54
 322 849 322 849 347 815 c 128,-1,55
 372 781 372 781 426 781 c 0,39,40
EndSplineSet
EndChar

StartChar: gbreve
Encoding: 287 287 222
Width: 554
Flags: W
LayerCount: 2
Fore
SplineSet
346 604 m 0,0,1
 291 604 291 604 266 638 c 128,-1,2
 241 672 241 672 227 725 c 1,3,-1
 250 735 l 1,4,-1
 264 701 l 2,5,6
 279 665 279 665 297.5 649 c 128,-1,7
 316 633 316 633 346 633 c 0,8,9
 379 633 379 633 402 648.5 c 128,-1,10
 425 664 425 664 452 702 c 2,11,-1
 475 735 l 1,12,-1
 498 725 l 1,13,14
 477 691 477 691 456.5 663.5 c 128,-1,15
 436 636 436 636 410 620 c 128,-1,16
 384 604 384 604 346 604 c 0,0,1
180 -212 m 0,17,18
 70 -212 70 -212 16 -140 c 1,19,-1
 41 -118 l 1,20,21
 85 -181 85 -181 180 -181 c 0,22,23
 342 -181 342 -181 377 -9 c 2,24,-1
 400 111 l 1,25,-1
 397 111 l 1,26,27
 366 53 366 53 324 20.5 c 128,-1,28
 282 -12 282 -12 220 -12 c 0,29,30
 143 -12 143 -12 100.5 41.5 c 128,-1,31
 58 95 58 95 58 178 c 0,32,33
 58 266 58 266 86.5 344 c 128,-1,34
 115 422 115 422 171 471 c 128,-1,35
 227 520 227 520 308 520 c 0,36,37
 427 520 427 520 459 417 c 1,38,-1
 462 417 l 1,39,-1
 480 508 l 1,40,-1
 515 508 l 1,41,-1
 410 -16 l 2,42,43
 390 -114 390 -114 331.5 -163 c 128,-1,44
 273 -212 273 -212 180 -212 c 0,17,18
225 19 m 0,45,46
 288 19 288 19 334 61 c 0,47,48
 396 111 396 111 420 211 c 2,49,-1
 447 344 l 2,50,51
 450 357 450 357 450 369 c 0,52,53
 450 390 450 390 440.5 417 c 128,-1,54
 431 444 431 444 398.5 466.5 c 128,-1,55
 366 489 366 489 309 489 c 0,56,57
 229 489 229 489 177.5 435 c 128,-1,58
 126 381 126 381 107 286 c 2,59,-1
 99 242 l 2,60,61
 93 214 93 214 93 175 c 0,62,63
 93 111 93 111 124.5 65 c 128,-1,64
 156 19 156 19 225 19 c 0,45,46
EndSplineSet
EndChar

StartChar: Gdotaccent
Encoding: 288 288 223
Width: 660
Flags: W
LayerCount: 2
Fore
SplineSet
291 -12 m 0,0,1
 442 -12 442 -12 512 111 c 1,2,-1
 515 111 l 1,3,-1
 493 0 l 1,4,-1
 527 0 l 1,5,-1
 594 339 l 1,6,-1
 389 339 l 1,7,-1
 382 306 l 1,8,-1
 552 306 l 1,9,-1
 533 211 l 2,10,11
 511 112 511 112 444 67 c 0,12,13
 381 21 381 21 297 21 c 0,14,15
 202 21 202 21 152 76 c 128,-1,16
 102 131 102 131 102 228 c 0,17,18
 102 269 102 269 111 325 c 2,19,-1
 124 392 l 2,20,21
 150 525 150 525 223 600 c 0,22,23
 294 677 294 677 400 677 c 0,24,25
 482 677 482 677 524.5 644 c 128,-1,26
 567 611 567 611 584 553 c 1,27,-1
 617 565 l 1,28,29
 578 710 578 710 403 710 c 0,30,31
 289 710 289 710 209 632 c 0,32,33
 134 557 134 557 100 447 c 0,34,35
 66 345 66 345 66 231 c 0,36,37
 66 113 66 113 128.5 50.5 c 128,-1,38
 191 -12 191 -12 291 -12 c 0,0,1
432 814 m 0,39,40
 447 814 447 814 453.5 821 c 128,-1,41
 460 828 460 828 463 839 c 128,-1,42
 466 850 466 850 466 855 c 0,43,44
 466 876 466 876 441 876 c 0,45,46
 426 876 426 876 419.5 869.5 c 128,-1,47
 413 863 413 863 410 851.5 c 128,-1,48
 407 840 407 840 407 835 c 0,49,50
 407 814 407 814 432 814 c 0,39,40
EndSplineSet
EndChar

StartChar: gdotaccent
Encoding: 289 289 224
Width: 554
Flags: W
LayerCount: 2
Fore
SplineSet
352 636 m 256,0,1
 327 636 327 636 327 657 c 0,2,3
 327 662 327 662 330 674 c 0,4,5
 336 698 336 698 361 698 c 256,6,7
 386 698 386 698 386 677 c 0,8,9
 386 672 386 672 383 660 c 0,10,11
 377 636 377 636 352 636 c 256,0,1
180 -212 m 0,12,13
 70 -212 70 -212 16 -140 c 1,14,-1
 41 -118 l 1,15,16
 85 -181 85 -181 180 -181 c 0,17,18
 342 -181 342 -181 377 -9 c 2,19,-1
 400 111 l 1,20,-1
 397 111 l 1,21,22
 366 53 366 53 324 20.5 c 128,-1,23
 282 -12 282 -12 220 -12 c 0,24,25
 143 -12 143 -12 100.5 41.5 c 128,-1,26
 58 95 58 95 58 178 c 0,27,28
 58 266 58 266 86.5 344 c 128,-1,29
 115 422 115 422 171 471 c 128,-1,30
 227 520 227 520 308 520 c 0,31,32
 427 520 427 520 459 417 c 1,33,-1
 462 417 l 1,34,-1
 480 508 l 1,35,-1
 515 508 l 1,36,-1
 410 -16 l 2,37,38
 390 -114 390 -114 331.5 -163 c 128,-1,39
 273 -212 273 -212 180 -212 c 0,12,13
225 19 m 0,40,41
 288 19 288 19 334 61 c 0,42,43
 396 111 396 111 420 211 c 2,44,-1
 447 344 l 2,45,46
 450 357 450 357 450 369 c 0,47,48
 450 390 450 390 440.5 417 c 128,-1,49
 431 444 431 444 398.5 466.5 c 128,-1,50
 366 489 366 489 309 489 c 0,51,52
 229 489 229 489 177.5 435 c 128,-1,53
 126 381 126 381 107 286 c 2,54,-1
 99 242 l 2,55,56
 93 214 93 214 93 175 c 0,57,58
 93 111 93 111 124.5 65 c 128,-1,59
 156 19 156 19 225 19 c 0,40,41
EndSplineSet
EndChar

StartChar: u0122
Encoding: 290 290 225
Width: 660
Flags: W
LayerCount: 2
Fore
SplineSet
291 -12 m 0,0,1
 442 -12 442 -12 512 111 c 1,2,-1
 515 111 l 1,3,-1
 493 0 l 1,4,-1
 527 0 l 1,5,-1
 594 339 l 1,6,-1
 389 339 l 1,7,-1
 382 306 l 1,8,-1
 552 306 l 1,9,-1
 533 211 l 2,10,11
 511 112 511 112 444 67 c 0,12,13
 381 21 381 21 297 21 c 0,14,15
 202 21 202 21 152 76 c 128,-1,16
 102 131 102 131 102 228 c 0,17,18
 102 269 102 269 111 325 c 2,19,-1
 124 392 l 2,20,21
 150 525 150 525 223 600 c 0,22,23
 294 677 294 677 400 677 c 0,24,25
 482 677 482 677 524.5 644 c 128,-1,26
 567 611 567 611 584 553 c 1,27,-1
 617 565 l 1,28,29
 578 710 578 710 403 710 c 0,30,31
 289 710 289 710 209 632 c 0,32,33
 134 557 134 557 100 447 c 0,34,35
 66 345 66 345 66 231 c 0,36,37
 66 113 66 113 128.5 50.5 c 128,-1,38
 191 -12 191 -12 291 -12 c 0,0,1
240 -220 m 1,39,40
 264 -195 264 -195 280 -164.5 c 128,-1,41
 296 -134 296 -134 302 -107 c 0,42,43
 305 -95 305 -95 305 -88 c 0,44,45
 305 -66 305 -66 279 -66 c 0,46,47
 249 -66 249 -66 245 -90 c 2,48,-1
 243 -108 l 2,49,50
 243 -124 243 -124 269 -128 c 1,51,52
 258 -166 258 -166 213 -220 c 1,53,-1
 240 -220 l 1,39,40
EndSplineSet
EndChar

StartChar: u0123
Encoding: 291 291 226
Width: 554
Flags: W
LayerCount: 2
Fore
SplineSet
343 598 m 0,0,1
 317 598 317 598 317 620 c 0,2,3
 317 628 317 628 320 639 c 0,4,5
 326 666 326 666 342 696.5 c 128,-1,6
 358 727 358 727 382 752 c 1,7,-1
 409 752 l 1,8,9
 365 699 365 699 353 660 c 1,10,11
 379 658 379 658 379 640 c 2,12,-1
 377 622 l 2,13,14
 374 598 374 598 343 598 c 0,0,1
180 -212 m 0,15,16
 70 -212 70 -212 16 -140 c 1,17,-1
 41 -118 l 1,18,19
 85 -181 85 -181 180 -181 c 0,20,21
 342 -181 342 -181 377 -9 c 2,22,-1
 400 111 l 1,23,-1
 397 111 l 1,24,25
 366 53 366 53 324 20.5 c 128,-1,26
 282 -12 282 -12 220 -12 c 0,27,28
 143 -12 143 -12 100.5 41.5 c 128,-1,29
 58 95 58 95 58 178 c 0,30,31
 58 266 58 266 86.5 344 c 128,-1,32
 115 422 115 422 171 471 c 128,-1,33
 227 520 227 520 308 520 c 0,34,35
 427 520 427 520 459 417 c 1,36,-1
 462 417 l 1,37,-1
 480 508 l 1,38,-1
 515 508 l 1,39,-1
 410 -16 l 2,40,41
 390 -114 390 -114 331.5 -163 c 128,-1,42
 273 -212 273 -212 180 -212 c 0,15,16
225 19 m 0,43,44
 288 19 288 19 334 61 c 0,45,46
 396 111 396 111 420 211 c 2,47,-1
 447 344 l 2,48,49
 450 357 450 357 450 369 c 0,50,51
 450 390 450 390 440.5 417 c 128,-1,52
 431 444 431 444 398.5 466.5 c 128,-1,53
 366 489 366 489 309 489 c 0,54,55
 229 489 229 489 177.5 435 c 128,-1,56
 126 381 126 381 107 286 c 2,57,-1
 99 242 l 2,58,59
 93 214 93 214 93 175 c 0,60,61
 93 111 93 111 124.5 65 c 128,-1,62
 156 19 156 19 225 19 c 0,43,44
EndSplineSet
EndChar

StartChar: Hcircumflex
Encoding: 292 292 227
Width: 681
Flags: W
LayerCount: 2
Fore
SplineSet
528 0 m 1,0,-1
 668 698 l 1,1,-1
 632 698 l 1,2,-1
 566 370 l 1,3,-1
 160 370 l 1,4,-1
 226 698 l 1,5,-1
 190 698 l 1,6,-1
 50 0 l 1,7,-1
 86 0 l 1,8,-1
 154 338 l 1,9,-1
 560 338 l 1,10,-1
 492 0 l 1,11,-1
 528 0 l 1,0,-1
572 775 m 1,12,-1
 594 790 l 1,13,-1
 493 926 l 1,14,-1
 453 926 l 1,15,-1
 305 791 l 1,16,-1
 325 775 l 1,17,-1
 471 899 l 1,18,-1
 572 775 l 1,12,-1
EndSplineSet
EndChar

StartChar: hcircumflex
Encoding: 293 293 228
Width: 552
Flags: W
LayerCount: 2
Fore
SplineSet
484 0 m 1,0,-1
 490 31 l 1,1,-1
 408 31 l 1,2,-1
 466 320 l 2,3,4
 473 356 473 356 473 386 c 0,5,6
 473 449 473 449 439 484.5 c 128,-1,7
 405 520 405 520 340 520 c 0,8,9
 280 520 280 520 238 490.5 c 128,-1,10
 196 461 196 461 167 404 c 1,11,-1
 164 404 l 1,12,-1
 230 740 l 1,13,-1
 196 740 l 1,14,-1
 49 0 l 1,15,-1
 83 0 l 1,16,-1
 144 306 l 1,17,18
 166 390 166 390 208 432 c 0,19,20
 258 489 258 489 332 489 c 0,21,22
 439 489 439 489 439 380 c 0,23,24
 439 357 439 357 432 320 c 0,25,26
 375 36 375 36 375 28 c 0,27,28
 375 0 375 0 407 0 c 2,29,-1
 484 0 l 1,0,-1
343 747 m 1,30,-1
 365 762 l 1,31,-1
 264 898 l 1,32,-1
 224 898 l 1,33,-1
 76 764 l 1,34,-1
 96 747 l 1,35,-1
 241 871 l 1,36,-1
 343 747 l 1,30,-1
EndSplineSet
EndChar

StartChar: Hbar
Encoding: 294 294 229
Width: 687
Flags: W
LayerCount: 2
Fore
SplineSet
531 0 m 1,0,-1
 638 532 l 1,1,-1
 717 532 l 1,2,-1
 723 562 l 1,3,-1
 644 562 l 1,4,-1
 671 698 l 1,5,-1
 635 698 l 1,6,-1
 608 562 l 1,7,-1
 203 562 l 1,8,-1
 229 698 l 1,9,-1
 193 698 l 1,10,-1
 167 562 l 1,11,-1
 88 562 l 1,12,-1
 82 532 l 1,13,-1
 160 532 l 1,14,-1
 53 0 l 1,15,-1
 89 0 l 1,16,-1
 157 338 l 1,17,-1
 563 338 l 1,18,-1
 495 0 l 1,19,-1
 531 0 l 1,0,-1
569 370 m 1,20,-1
 163 370 l 1,21,-1
 196 532 l 1,22,-1
 602 532 l 1,23,-1
 569 370 l 1,20,-1
EndSplineSet
EndChar

StartChar: hbar
Encoding: 295 295 230
Width: 555
Flags: W
LayerCount: 2
Fore
SplineSet
488 0 m 1,0,-1
 494 31 l 1,1,-1
 412 31 l 1,2,-1
 470 320 l 2,3,4
 477 356 477 356 477 386 c 0,5,6
 477 449 477 449 443 484.5 c 128,-1,7
 409 520 409 520 344 520 c 0,8,9
 283 520 283 520 241.5 490.5 c 128,-1,10
 200 461 200 461 170 404 c 1,11,-1
 167 404 l 1,12,-1
 211 623 l 1,13,-1
 369 623 l 1,14,-1
 374 652 l 1,15,-1
 217 652 l 1,16,-1
 234 740 l 1,17,-1
 199 740 l 1,18,-1
 182 652 l 1,19,-1
 117 652 l 1,20,-1
 111 623 l 1,21,-1
 177 623 l 1,22,-1
 52 0 l 1,23,-1
 86 0 l 1,24,-1
 147 306 l 1,25,26
 169 390 169 390 212 432 c 1,27,28
 262 489 262 489 336 489 c 0,29,30
 443 489 443 489 443 380 c 0,31,32
 443 357 443 357 436 320 c 0,33,34
 379 36 379 36 379 28 c 0,35,36
 379 0 379 0 411 0 c 2,37,-1
 488 0 l 1,0,-1
EndSplineSet
EndChar

StartChar: Itilde
Encoding: 296 296 231
Width: 238
Flags: W
LayerCount: 2
Fore
SplineSet
310 802 m 0,0,1
 357 802 357 802 398 845 c 1,2,-1
 383 863 l 1,3,4
 352 831 352 831 317 831 c 0,5,6
 300 831 300 831 286 837 c 128,-1,7
 272 843 272 843 252 857 c 128,-1,8
 232 871 232 871 216.5 878.5 c 128,-1,9
 201 886 201 886 180 886 c 0,10,11
 134 886 134 886 92 843 c 1,12,-1
 107 825 l 1,13,14
 139 857 139 857 173 857 c 0,15,16
 190 857 190 857 204 851 c 128,-1,17
 218 845 218 845 238 831 c 128,-1,18
 258 817 258 817 273.5 809.5 c 128,-1,19
 289 802 289 802 310 802 c 0,0,1
86 0 m 1,20,-1
 226 698 l 1,21,-1
 190 698 l 1,22,-1
 50 0 l 1,23,-1
 86 0 l 1,20,-1
EndSplineSet
EndChar

StartChar: itilde
Encoding: 297 297 232
Width: 242
Flags: W
LayerCount: 2
Fore
SplineSet
165 0 m 1,0,-1
 171 31 l 1,1,-1
 89 31 l 1,2,-1
 184 508 l 1,3,-1
 150 508 l 1,4,5
 56 36 56 36 56 28 c 0,6,7
 56 0 56 0 89 0 c 2,8,-1
 165 0 l 1,0,-1
263 624 m 0,9,10
 310 624 310 624 351 667 c 1,11,-1
 336 685 l 1,12,13
 305 653 305 653 270 653 c 0,14,15
 253 653 253 653 239 659 c 128,-1,16
 225 665 225 665 205 679 c 128,-1,17
 185 693 185 693 169.5 700.5 c 128,-1,18
 154 708 154 708 133 708 c 0,19,20
 87 708 87 708 45 665 c 1,21,-1
 60 647 l 1,22,23
 92 679 92 679 126 679 c 0,24,25
 143 679 143 679 157 673 c 128,-1,26
 171 667 171 667 191 653 c 128,-1,27
 211 639 211 639 226.5 631.5 c 128,-1,28
 242 624 242 624 263 624 c 0,9,10
EndSplineSet
EndChar

StartChar: Imacron
Encoding: 298 298 233
Width: 238
Flags: W
LayerCount: 2
Fore
SplineSet
374 831 m 1,0,-1
 380 861 l 1,1,-1
 119 861 l 1,2,-1
 113 831 l 1,3,-1
 374 831 l 1,0,-1
86 0 m 1,4,-1
 226 698 l 1,5,-1
 190 698 l 1,6,-1
 50 0 l 1,7,-1
 86 0 l 1,4,-1
EndSplineSet
EndChar

StartChar: imacron
Encoding: 299 299 234
Width: 242
Flags: W
LayerCount: 2
Fore
SplineSet
165 0 m 1,0,-1
 171 31 l 1,1,-1
 89 31 l 1,2,-1
 184 508 l 1,3,-1
 150 508 l 1,4,5
 56 36 56 36 56 28 c 0,6,7
 56 0 56 0 89 0 c 2,8,-1
 165 0 l 1,0,-1
327 653 m 1,9,-1
 333 683 l 1,10,-1
 72 683 l 1,11,-1
 66 653 l 1,12,-1
 327 653 l 1,9,-1
EndSplineSet
EndChar

StartChar: Ibreve
Encoding: 300 300 235
Width: 238
Flags: W
LayerCount: 2
Fore
SplineSet
227 781 m 0,0,1
 256 781 256 781 278 791 c 0,2,3
 331 814 331 814 380 902 c 1,4,-1
 356 912 l 1,5,-1
 333 880 l 2,6,7
 306 842 306 842 283 826 c 128,-1,8
 260 810 260 810 228 810 c 0,9,10
 197 810 197 810 178.5 826.5 c 128,-1,11
 160 843 160 843 145 879 c 2,12,-1
 132 912 l 1,13,-1
 108 902 l 1,14,15
 123 849 123 849 148 815 c 128,-1,16
 173 781 173 781 227 781 c 0,0,1
86 0 m 1,17,-1
 226 698 l 1,18,-1
 190 698 l 1,19,-1
 50 0 l 1,20,-1
 86 0 l 1,17,-1
EndSplineSet
EndChar

StartChar: ibreve
Encoding: 301 301 236
Width: 242
Flags: W
LayerCount: 2
Fore
SplineSet
165 0 m 1,0,-1
 171 31 l 1,1,-1
 89 31 l 1,2,-1
 184 508 l 1,3,-1
 150 508 l 1,4,5
 56 36 56 36 56 28 c 0,6,7
 56 0 56 0 89 0 c 2,8,-1
 165 0 l 1,0,-1
190 604 m 0,9,10
 218 604 218 604 239 614 c 0,11,12
 293 637 293 637 342 725 c 1,13,-1
 319 735 l 1,14,-1
 296 702 l 2,15,16
 269 664 269 664 246 648.5 c 128,-1,17
 223 633 223 633 190 633 c 0,18,19
 160 633 160 633 141.5 649 c 128,-1,20
 123 665 123 665 108 701 c 2,21,-1
 94 735 l 1,22,-1
 71 725 l 1,23,24
 84 671 84 671 111.5 637.5 c 128,-1,25
 139 604 139 604 190 604 c 0,9,10
EndSplineSet
EndChar

StartChar: Iogonek
Encoding: 302 302 237
Width: 238
Flags: W
LayerCount: 2
Fore
SplineSet
-11 -203 m 0,0,1
 45 -203 45 -203 72 -170 c 1,2,-1
 53 -151 l 1,3,4
 28 -177 28 -177 -10 -177 c 0,5,6
 -30 -177 -30 -177 -43 -166 c 128,-1,7
 -56 -155 -56 -155 -56 -133 c 0,8,9
 -56 -101 -56 -101 -24 -73 c 128,-1,10
 8 -45 8 -45 85 0 c 1,11,-1
 225 698 l 1,12,-1
 189 698 l 1,13,-1
 49 0 l 1,14,15
 -27 -37 -27 -37 -57.5 -70 c 128,-1,16
 -88 -103 -88 -103 -88 -135 c 0,17,18
 -88 -170 -88 -170 -65.5 -186.5 c 128,-1,19
 -43 -203 -43 -203 -11 -203 c 0,0,1
EndSplineSet
EndChar

StartChar: iogonek
Encoding: 303 303 238
Width: 242
Flags: W
LayerCount: 2
Fore
SplineSet
69 -203 m 0,0,1
 125 -203 125 -203 152 -170 c 1,2,-1
 133 -151 l 1,3,4
 108 -177 108 -177 70 -177 c 0,5,6
 50 -177 50 -177 37 -166 c 128,-1,7
 24 -155 24 -155 24 -133 c 0,8,9
 24 -101 24 -101 56 -73 c 128,-1,10
 88 -45 88 -45 165 0 c 1,11,-1
 171 31 l 1,12,-1
 89 31 l 1,13,-1
 184 508 l 1,14,-1
 150 508 l 1,15,16
 56 36 56 36 56 28 c 0,17,18
 56 0 56 0 89 0 c 2,19,-1
 128 0 l 1,20,-1
 129 -3 l 1,21,22
 51 -41 51 -41 21.5 -73 c 128,-1,23
 -8 -105 -8 -105 -8 -135 c 0,24,25
 -8 -170 -8 -170 14.5 -186.5 c 128,-1,26
 37 -203 37 -203 69 -203 c 0,0,1
201 664 m 0,27,28
 229 664 229 664 235 688 c 2,29,-1
 236 691 l 2,30,31
 237 696 237 696 237 706 c 0,32,33
 237 726 237 726 212 726 c 0,34,35
 181 726 181 726 179 702 c 0,36,37
 176 693 176 693 176 685 c 0,38,39
 176 664 176 664 201 664 c 0,27,28
EndSplineSet
EndChar

StartChar: Idotaccent
Encoding: 304 304 239
Width: 238
Flags: W
LayerCount: 2
Fore
SplineSet
233 814 m 0,0,1
 248 814 248 814 254.5 821 c 128,-1,2
 261 828 261 828 264 839 c 128,-1,3
 267 850 267 850 267 855 c 0,4,5
 267 876 267 876 242 876 c 0,6,7
 227 876 227 876 220.5 869.5 c 128,-1,8
 214 863 214 863 211 851.5 c 128,-1,9
 208 840 208 840 208 835 c 0,10,11
 208 814 208 814 233 814 c 0,0,1
86 0 m 1,12,-1
 226 698 l 1,13,-1
 190 698 l 1,14,-1
 50 0 l 1,15,-1
 86 0 l 1,12,-1
EndSplineSet
EndChar

StartChar: dotlessi
Encoding: 305 305 240
Width: 242
Flags: W
LayerCount: 2
Fore
SplineSet
165 0 m 1,0,-1
 171 31 l 1,1,-1
 89 31 l 1,2,-1
 184 508 l 1,3,-1
 150 508 l 1,4,5
 56 36 56 36 56 28 c 0,6,7
 56 0 56 0 89 0 c 2,8,-1
 165 0 l 1,0,-1
EndSplineSet
EndChar

StartChar: ij
Encoding: 307 307 242
Width: 476
Flags: W
LayerCount: 2
Fore
SplineSet
200 664 m 0,0,1
 236 664 236 664 236 705 c 0,2,3
 236 726 236 726 211 726 c 0,4,5
 180 726 180 726 178 702 c 0,6,7
 175 693 175 693 175 685 c 0,8,9
 175 664 175 664 200 664 c 0,0,1
165 0 m 1,10,-1
 171 31 l 1,11,-1
 89 31 l 1,12,-1
 184 508 l 1,13,-1
 150 508 l 1,14,15
 56 36 56 36 56 28 c 0,16,17
 56 0 56 0 89 0 c 2,18,-1
 165 0 l 1,10,-1
237 -200 m 2,19,20
 266 -200 266 -200 278 -189 c 128,-1,21
 290 -178 290 -178 295 -151 c 2,22,-1
 427 508 l 1,23,-1
 393 508 l 1,24,-1
 257 -169 l 1,25,-1
 173 -169 l 1,26,-1
 166 -200 l 1,27,-1
 237 -200 l 2,19,20
443 664 m 0,28,29
 472 664 472 664 476 688 c 2,30,-1
 479 700 l 1,31,-1
 479 706 l 2,32,33
 479 726 479 726 453 726 c 0,34,35
 417 726 417 726 417 685 c 0,36,37
 417 664 417 664 443 664 c 0,28,29
EndSplineSet
EndChar

StartChar: Jcircumflex
Encoding: 308 308 243
Width: 465
Flags: W
LayerCount: 2
Fore
SplineSet
444 775 m 1,0,-1
 343 899 l 1,1,-1
 197 775 l 1,2,-1
 177 791 l 1,3,-1
 325 926 l 1,4,-1
 365 926 l 1,5,-1
 466 790 l 1,6,-1
 444 775 l 1,0,-1
149 -12 m 0,7,8
 76 -12 76 -12 35 26 c 128,-1,9
 -6 64 -6 64 -10 126 c 1,10,-1
 23 134 l 1,11,12
 38 21 38 21 150 21 c 0,13,14
 287 21 287 21 320 187 c 2,15,-1
 422 698 l 1,16,-1
 458 698 l 1,17,-1
 355 180 l 2,18,19
 336 87 336 87 282.5 37.5 c 128,-1,20
 229 -12 229 -12 149 -12 c 0,7,8
EndSplineSet
EndChar

StartChar: jcircumflex
Encoding: 309 309 244
Width: 234
Flags: W
LayerCount: 2
Fore
SplineSet
-5 -200 m 2,0,1
 24 -200 24 -200 36 -189 c 128,-1,2
 48 -178 48 -178 53 -151 c 2,3,-1
 185 508 l 1,4,-1
 151 508 l 1,5,-1
 15 -169 l 1,6,-1
 -69 -169 l 1,7,-1
 -76 -200 l 1,8,-1
 -5 -200 l 2,0,1
315 597 m 1,9,-1
 337 612 l 1,10,-1
 236 748 l 1,11,-1
 196 748 l 1,12,-1
 48 614 l 1,13,-1
 68 597 l 1,14,-1
 213 721 l 1,15,-1
 315 597 l 1,9,-1
EndSplineSet
EndChar

StartChar: u0136
Encoding: 310 310 245
Width: 576
Flags: W
LayerCount: 2
Fore
SplineSet
509 0 m 1,0,-1
 318 400 l 1,1,-1
 641 698 l 1,2,-1
 594 698 l 1,3,-1
 148 288 l 1,4,-1
 145 288 l 1,5,-1
 226 698 l 1,6,-1
 190 698 l 1,7,-1
 50 0 l 1,8,-1
 86 0 l 1,9,-1
 134 234 l 1,10,-1
 290 377 l 1,11,-1
 471 0 l 1,12,-1
 509 0 l 1,0,-1
210 -220 m 1,13,14
 234 -195 234 -195 250 -164.5 c 128,-1,15
 266 -134 266 -134 272 -107 c 0,16,17
 275 -95 275 -95 275 -88 c 0,18,19
 275 -66 275 -66 249 -66 c 0,20,21
 219 -66 219 -66 215 -90 c 2,22,-1
 213 -108 l 2,23,24
 213 -124 213 -124 239 -128 c 1,25,26
 228 -166 228 -166 183 -220 c 1,27,-1
 210 -220 l 1,13,14
EndSplineSet
EndChar

StartChar: u0137
Encoding: 311 311 246
Width: 488
Flags: W
LayerCount: 2
Fore
SplineSet
438 0 m 1,0,-1
 444 31 l 1,1,-1
 385 31 l 1,2,-1
 252 296 l 1,3,-1
 492 508 l 1,4,-1
 449 508 l 1,5,6
 292 370 292 370 134 234 c 1,7,-1
 130 234 l 1,8,-1
 231 740 l 1,9,-1
 197 740 l 1,10,-1
 49 0 l 1,11,-1
 83 0 l 1,12,-1
 121 187 l 1,13,-1
 226 276 l 1,14,-1
 349 29 l 2,15,16
 357 13 357 13 365.5 6.5 c 128,-1,17
 374 0 374 0 391 0 c 2,18,-1
 438 0 l 1,0,-1
179 -220 m 1,19,20
 203 -195 203 -195 219 -164.5 c 128,-1,21
 235 -134 235 -134 241 -107 c 0,22,23
 244 -95 244 -95 244 -88 c 0,24,25
 244 -66 244 -66 218 -66 c 0,26,27
 188 -66 188 -66 184 -90 c 2,28,-1
 182 -108 l 2,29,30
 182 -124 182 -124 208 -128 c 1,31,32
 197 -166 197 -166 152 -220 c 1,33,-1
 179 -220 l 1,19,20
EndSplineSet
EndChar

StartChar: kgreenlandic
Encoding: 312 312 247
Width: 486
Flags: W
LayerCount: 2
Fore
SplineSet
432 0 m 1,0,-1
 438 31 l 1,1,-1
 379 31 l 1,2,-1
 253 284 l 1,3,-1
 504 508 l 1,4,-1
 461 508 l 1,5,6
 297 363 297 363 131 219 c 1,7,-1
 127 219 l 1,8,-1
 185 508 l 1,9,-1
 151 508 l 1,10,-1
 49 0 l 1,11,-1
 83 0 l 1,12,-1
 118 172 l 1,13,-1
 225 263 l 1,14,-1
 342 29 l 2,15,16
 350 13 350 13 358.5 6.5 c 128,-1,17
 367 0 367 0 384 0 c 2,18,-1
 432 0 l 1,0,-1
EndSplineSet
EndChar

StartChar: Lacute
Encoding: 313 313 248
Width: 473
Flags: W
LayerCount: 2
Fore
SplineSet
403 0 m 1,0,-1
 409 32 l 1,1,-1
 93 32 l 1,2,-1
 226 698 l 1,3,-1
 190 698 l 1,4,-1
 50 0 l 1,5,-1
 403 0 l 1,0,-1
227 764 m 1,6,-1
 368 917 l 1,7,-1
 339 936 l 1,8,-1
 205 779 l 1,9,-1
 227 764 l 1,6,-1
EndSplineSet
EndChar

StartChar: lacute
Encoding: 314 314 249
Width: 242
Flags: W
LayerCount: 2
Fore
SplineSet
167 0 m 1,0,-1
 173 31 l 1,1,-1
 90 31 l 1,2,-1
 231 740 l 1,3,-1
 197 740 l 1,4,5
 57 36 57 36 57 28 c 0,6,7
 57 0 57 0 90 0 c 2,8,-1
 167 0 l 1,0,-1
212 787 m 1,9,-1
 353 939 l 1,10,-1
 324 958 l 1,11,-1
 190 801 l 1,12,-1
 212 787 l 1,9,-1
EndSplineSet
EndChar

StartChar: u013B
Encoding: 315 315 250
Width: 473
Flags: W
LayerCount: 2
Fore
SplineSet
403 0 m 1,0,-1
 409 32 l 1,1,-1
 93 32 l 1,2,-1
 226 698 l 1,3,-1
 190 698 l 1,4,-1
 50 0 l 1,5,-1
 403 0 l 1,0,-1
178 -220 m 1,6,7
 202 -195 202 -195 218 -164.5 c 128,-1,8
 234 -134 234 -134 240 -107 c 0,9,10
 243 -95 243 -95 243 -88 c 0,11,12
 243 -66 243 -66 217 -66 c 0,13,14
 187 -66 187 -66 183 -90 c 2,15,-1
 181 -108 l 2,16,17
 181 -124 181 -124 207 -128 c 1,18,19
 196 -166 196 -166 151 -220 c 1,20,-1
 178 -220 l 1,6,7
EndSplineSet
EndChar

StartChar: u013C
Encoding: 316 316 251
Width: 242
Flags: W
LayerCount: 2
Fore
SplineSet
167 0 m 1,0,-1
 173 31 l 1,1,-1
 90 31 l 1,2,-1
 231 740 l 1,3,-1
 197 740 l 1,4,5
 57 36 57 36 57 28 c 0,6,7
 57 0 57 0 90 0 c 2,8,-1
 167 0 l 1,0,-1
54 -220 m 1,9,10
 78 -195 78 -195 94 -164.5 c 128,-1,11
 110 -134 110 -134 116 -107 c 0,12,13
 119 -95 119 -95 119 -88 c 0,14,15
 119 -66 119 -66 93 -66 c 0,16,17
 63 -66 63 -66 59 -90 c 2,18,-1
 57 -108 l 2,19,20
 57 -124 57 -124 83 -128 c 1,21,22
 72 -166 72 -166 27 -220 c 1,23,-1
 54 -220 l 1,9,10
EndSplineSet
EndChar

StartChar: Lcaron
Encoding: 317 317 252
Width: 473
Flags: W
LayerCount: 2
Fore
SplineSet
403 0 m 1,0,-1
 409 32 l 1,1,-1
 93 32 l 1,2,-1
 226 698 l 1,3,-1
 190 698 l 1,4,-1
 50 0 l 1,5,-1
 403 0 l 1,0,-1
324 562 m 1,6,-1
 382 740 l 1,7,-1
 341 740 l 1,8,-1
 298 562 l 1,9,-1
 324 562 l 1,6,-1
EndSplineSet
EndChar

StartChar: lcaron
Encoding: 318 318 253
Width: 242
Flags: W
LayerCount: 2
Fore
SplineSet
167 0 m 1,0,-1
 173 31 l 1,1,-1
 90 31 l 1,2,-1
 231 740 l 1,3,-1
 197 740 l 1,4,5
 57 36 57 36 57 28 c 0,6,7
 57 0 57 0 90 0 c 2,8,-1
 167 0 l 1,0,-1
296 562 m 1,9,-1
 354 740 l 1,10,-1
 313 740 l 1,11,-1
 270 562 l 1,12,-1
 296 562 l 1,9,-1
EndSplineSet
EndChar

StartChar: Ldot
Encoding: 319 319 254
Width: 473
Flags: W
LayerCount: 2
Fore
SplineSet
403 0 m 1,0,-1
 409 32 l 1,1,-1
 93 32 l 1,2,-1
 226 698 l 1,3,-1
 190 698 l 1,4,-1
 50 0 l 1,5,-1
 403 0 l 1,0,-1
354 278 m 0,6,7
 369 278 369 278 375.5 285 c 128,-1,8
 382 292 382 292 385 303 c 128,-1,9
 388 314 388 314 388 319 c 0,10,11
 388 340 388 340 363 340 c 0,12,13
 348 340 348 340 341.5 333.5 c 128,-1,14
 335 327 335 327 332 315.5 c 128,-1,15
 329 304 329 304 329 299 c 0,16,17
 329 278 329 278 354 278 c 0,6,7
EndSplineSet
EndChar

StartChar: ldot
Encoding: 320 320 255
Width: 307
Flags: W
LayerCount: 2
Fore
SplineSet
167 0 m 1,0,-1
 173 31 l 1,1,-1
 90 31 l 1,2,-1
 231 740 l 1,3,-1
 197 740 l 1,4,5
 57 36 57 36 57 28 c 0,6,7
 57 0 57 0 90 0 c 2,8,-1
 167 0 l 1,0,-1
268 243 m 0,9,10
 283 243 283 243 289.5 250 c 128,-1,11
 296 257 296 257 299 268 c 128,-1,12
 302 279 302 279 302 284 c 0,13,14
 302 305 302 305 277 305 c 0,15,16
 262 305 262 305 255.5 298.5 c 128,-1,17
 249 292 249 292 246 280.5 c 128,-1,18
 243 269 243 269 243 264 c 0,19,20
 243 243 243 243 268 243 c 0,9,10
EndSplineSet
EndChar

StartChar: Lslash
Encoding: 321 321 256
Width: 477
Flags: W
LayerCount: 2
Fore
SplineSet
406 0 m 1,0,-1
 413 32 l 1,1,-1
 96 32 l 1,2,-1
 151 307 l 1,3,-1
 352 371 l 1,4,-1
 356 404 l 1,5,-1
 158 340 l 1,6,-1
 230 698 l 1,7,-1
 194 698 l 1,8,-1
 119 328 l 1,9,-1
 17 295 l 1,10,-1
 13 262 l 1,11,-1
 113 294 l 1,12,-1
 54 0 l 1,13,-1
 406 0 l 1,0,-1
EndSplineSet
EndChar

StartChar: lslash
Encoding: 322 322 257
Width: 250
Flags: W
LayerCount: 2
Fore
SplineSet
169 0 m 1,0,-1
 175 31 l 1,1,-1
 92 31 l 1,2,-1
 158 357 l 1,3,-1
 255 388 l 1,4,-1
 258 420 l 1,5,-1
 164 389 l 1,6,-1
 234 740 l 1,7,-1
 200 740 l 1,8,-1
 127 377 l 1,9,-1
 52 353 l 1,10,-1
 49 322 l 1,11,-1
 121 345 l 1,12,13
 59 36 59 36 59 28 c 0,14,15
 59 0 59 0 92 0 c 2,16,-1
 169 0 l 1,0,-1
EndSplineSet
EndChar

StartChar: Nacute
Encoding: 323 323 258
Width: 681
Flags: W
LayerCount: 2
Fore
SplineSet
528 0 m 1,0,-1
 668 698 l 1,1,-1
 633 698 l 1,2,-1
 504 49 l 1,3,-1
 501 49 l 1,4,-1
 235 698 l 1,5,-1
 190 698 l 1,6,-1
 50 0 l 1,7,-1
 85 0 l 1,8,-1
 214 649 l 1,9,-1
 217 649 l 1,10,-1
 483 0 l 1,11,-1
 528 0 l 1,0,-1
448 764 m 1,12,-1
 589 917 l 1,13,-1
 560 936 l 1,14,-1
 426 779 l 1,15,-1
 448 764 l 1,12,-1
EndSplineSet
EndChar

StartChar: nacute
Encoding: 324 324 259
Width: 552
Flags: W
LayerCount: 2
Fore
SplineSet
484 0 m 1,0,-1
 490 31 l 1,1,-1
 408 31 l 1,2,-1
 466 320 l 2,3,4
 473 356 473 356 473 386 c 0,5,6
 473 449 473 449 439.5 484.5 c 128,-1,7
 406 520 406 520 341 520 c 0,8,9
 280 520 280 520 238 490.5 c 128,-1,10
 196 461 196 461 167 404 c 1,11,-1
 164 404 l 1,12,-1
 185 508 l 1,13,-1
 151 508 l 1,14,-1
 49 0 l 1,15,-1
 83 0 l 1,16,-1
 144 306 l 2,17,18
 160 378 160 378 208 432 c 0,19,20
 260 489 260 489 332 489 c 0,21,22
 438 489 438 489 438 382 c 0,23,24
 438 352 438 352 432 320 c 0,25,26
 375 36 375 36 375 28 c 0,27,28
 375 0 375 0 407 0 c 2,29,-1
 484 0 l 1,0,-1
332 587 m 1,30,-1
 473 739 l 1,31,-1
 444 758 l 1,32,-1
 310 601 l 1,33,-1
 332 587 l 1,30,-1
EndSplineSet
EndChar

StartChar: u0145
Encoding: 325 325 260
Width: 681
Flags: W
LayerCount: 2
Fore
SplineSet
528 0 m 1,0,-1
 668 698 l 1,1,-1
 633 698 l 1,2,-1
 504 49 l 1,3,-1
 501 49 l 1,4,-1
 235 698 l 1,5,-1
 190 698 l 1,6,-1
 50 0 l 1,7,-1
 85 0 l 1,8,-1
 214 649 l 1,9,-1
 217 649 l 1,10,-1
 483 0 l 1,11,-1
 528 0 l 1,0,-1
243 -220 m 1,12,13
 267 -195 267 -195 283 -164.5 c 128,-1,14
 299 -134 299 -134 305 -107 c 0,15,16
 308 -95 308 -95 308 -88 c 0,17,18
 308 -66 308 -66 282 -66 c 0,19,20
 252 -66 252 -66 248 -90 c 2,21,-1
 246 -108 l 2,22,23
 246 -124 246 -124 272 -128 c 1,24,25
 261 -166 261 -166 216 -220 c 1,26,-1
 243 -220 l 1,12,13
EndSplineSet
EndChar

StartChar: u0146
Encoding: 326 326 261
Width: 552
Flags: W
LayerCount: 2
Fore
SplineSet
484 0 m 1,0,-1
 490 31 l 1,1,-1
 408 31 l 1,2,-1
 466 320 l 2,3,4
 473 356 473 356 473 386 c 0,5,6
 473 449 473 449 439.5 484.5 c 128,-1,7
 406 520 406 520 341 520 c 0,8,9
 280 520 280 520 238 490.5 c 128,-1,10
 196 461 196 461 167 404 c 1,11,-1
 164 404 l 1,12,-1
 185 508 l 1,13,-1
 151 508 l 1,14,-1
 49 0 l 1,15,-1
 83 0 l 1,16,-1
 144 306 l 2,17,18
 160 378 160 378 208 432 c 0,19,20
 260 489 260 489 332 489 c 0,21,22
 438 489 438 489 438 382 c 0,23,24
 438 352 438 352 432 320 c 0,25,26
 375 36 375 36 375 28 c 0,27,28
 375 0 375 0 407 0 c 2,29,-1
 484 0 l 1,0,-1
190 -220 m 1,30,31
 214 -195 214 -195 230 -164.5 c 128,-1,32
 246 -134 246 -134 252 -107 c 0,33,34
 255 -95 255 -95 255 -88 c 0,35,36
 255 -66 255 -66 229 -66 c 0,37,38
 199 -66 199 -66 195 -90 c 2,39,-1
 193 -108 l 2,40,41
 193 -124 193 -124 219 -128 c 1,42,43
 208 -166 208 -166 163 -220 c 1,44,-1
 190 -220 l 1,30,31
EndSplineSet
EndChar

StartChar: Ncaron
Encoding: 327 327 262
Width: 681
Flags: W
LayerCount: 2
Fore
SplineSet
528 0 m 1,0,-1
 668 698 l 1,1,-1
 633 698 l 1,2,-1
 504 49 l 1,3,-1
 501 49 l 1,4,-1
 235 698 l 1,5,-1
 190 698 l 1,6,-1
 50 0 l 1,7,-1
 85 0 l 1,8,-1
 214 649 l 1,9,-1
 217 649 l 1,10,-1
 483 0 l 1,11,-1
 528 0 l 1,0,-1
474 780 m 1,12,-1
 622 915 l 1,13,-1
 602 931 l 1,14,-1
 456 807 l 1,15,-1
 355 931 l 1,16,-1
 333 916 l 1,17,-1
 434 780 l 1,18,-1
 474 780 l 1,12,-1
EndSplineSet
EndChar

StartChar: ncaron
Encoding: 328 328 263
Width: 552
Flags: W
LayerCount: 2
Fore
SplineSet
484 0 m 1,0,-1
 490 31 l 1,1,-1
 408 31 l 1,2,-1
 466 320 l 2,3,4
 473 356 473 356 473 386 c 0,5,6
 473 449 473 449 439.5 484.5 c 128,-1,7
 406 520 406 520 341 520 c 0,8,9
 280 520 280 520 238 490.5 c 128,-1,10
 196 461 196 461 167 404 c 1,11,-1
 164 404 l 1,12,-1
 185 508 l 1,13,-1
 151 508 l 1,14,-1
 49 0 l 1,15,-1
 83 0 l 1,16,-1
 144 306 l 2,17,18
 160 378 160 378 208 432 c 0,19,20
 260 489 260 489 332 489 c 0,21,22
 438 489 438 489 438 382 c 0,23,24
 438 352 438 352 432 320 c 0,25,26
 375 36 375 36 375 28 c 0,27,28
 375 0 375 0 407 0 c 2,29,-1
 484 0 l 1,0,-1
368 602 m 1,30,-1
 516 736 l 1,31,-1
 496 753 l 1,32,-1
 351 629 l 1,33,-1
 249 753 l 1,34,-1
 227 738 l 1,35,-1
 328 602 l 1,36,-1
 368 602 l 1,30,-1
EndSplineSet
EndChar

StartChar: napostrophe
Encoding: 329 329 264
Width: 766
Flags: W
LayerCount: 2
Fore
SplineSet
144 538 m 1,0,1
 186 572 186 572 215 617 c 128,-1,2
 244 662 244 662 254 704 c 2,3,-1
 255 711 l 2,4,5
 257 719 257 719 257 726 c 0,6,7
 257 750 257 750 226 750 c 0,8,9
 206 750 206 750 198 741.5 c 128,-1,10
 190 733 190 733 188 721 c 0,11,12
 188 720 188 720 187.5 717.5 c 128,-1,13
 187 715 187 715 186 710 c 128,-1,14
 185 705 185 705 185 700 c 0,15,16
 185 679 185 679 213 677 c 1,17,18
 196 614 196 614 113 538 c 1,19,-1
 144 538 l 1,0,1
698 0 m 1,20,-1
 704 31 l 1,21,-1
 622 31 l 1,22,-1
 680 320 l 2,23,24
 687 356 687 356 687 386 c 0,25,26
 687 449 687 449 653.5 484.5 c 128,-1,27
 620 520 620 520 555 520 c 0,28,29
 494 520 494 520 452 490.5 c 128,-1,30
 410 461 410 461 381 404 c 1,31,-1
 378 404 l 1,32,-1
 399 508 l 1,33,-1
 365 508 l 1,34,-1
 263 0 l 1,35,-1
 297 0 l 1,36,-1
 358 306 l 2,37,38
 374 378 374 378 422 432 c 0,39,40
 474 489 474 489 546 489 c 0,41,42
 652 489 652 489 652 382 c 0,43,44
 652 352 652 352 646 320 c 0,45,46
 589 36 589 36 589 28 c 0,47,48
 589 0 589 0 621 0 c 2,49,-1
 698 0 l 1,20,-1
EndSplineSet
EndChar

StartChar: Eng
Encoding: 330 330 265
Width: 681
Flags: W
LayerCount: 2
Fore
SplineSet
444 -200 m 2,0,1
 488 -200 488 -200 497 -154 c 2,2,-1
 668 698 l 1,3,-1
 633 698 l 1,4,-1
 504 49 l 1,5,-1
 501 49 l 1,6,-1
 236 698 l 1,7,-1
 190 698 l 1,8,-1
 50 0 l 1,9,-1
 85 0 l 1,10,-1
 215 650 l 1,11,-1
 218 650 l 1,12,-1
 483 0 l 1,13,-1
 493 0 l 1,14,-1
 460 -169 l 1,15,-1
 375 -169 l 1,16,-1
 369 -200 l 1,17,-1
 444 -200 l 2,0,1
EndSplineSet
EndChar

StartChar: eng
Encoding: 331 331 266
Width: 551
Flags: W
LayerCount: 2
Fore
SplineSet
312 -200 m 2,0,1
 341 -200 341 -200 354 -189 c 128,-1,2
 367 -178 367 -178 372 -151 c 2,3,-1
 466 320 l 2,4,5
 473 356 473 356 473 386 c 0,6,7
 473 449 473 449 439.5 484.5 c 128,-1,8
 406 520 406 520 341 520 c 0,9,10
 280 520 280 520 238 490.5 c 128,-1,11
 196 461 196 461 167 404 c 1,12,-1
 164 404 l 1,13,-1
 185 508 l 1,14,-1
 151 508 l 1,15,-1
 49 0 l 1,16,-1
 83 0 l 1,17,-1
 144 306 l 2,18,19
 160 378 160 378 208 432 c 0,20,21
 260 489 260 489 332 489 c 0,22,23
 438 489 438 489 438 382 c 0,24,25
 438 352 438 352 432 320 c 2,26,-1
 334 -169 l 1,27,-1
 249 -169 l 1,28,-1
 243 -200 l 1,29,-1
 312 -200 l 2,0,1
EndSplineSet
EndChar

StartChar: Omacron
Encoding: 332 332 267
Width: 663
Flags: W
LayerCount: 2
Fore
SplineSet
293 -12 m 0,0,1
 406 -12 406 -12 487 67 c 0,2,3
 561 142 561 142 595.5 254.5 c 128,-1,4
 630 367 630 367 630 469 c 0,5,6
 630 585 630 585 567 647.5 c 128,-1,7
 504 710 504 710 403 710 c 0,8,9
 291 710 291 710 210 631 c 0,10,11
 135 556 135 556 101 446 c 0,12,13
 66 331 66 331 66 229 c 0,14,15
 66 111 66 111 129.5 49.5 c 128,-1,16
 193 -12 193 -12 293 -12 c 0,0,1
295 21 m 0,17,18
 201 21 201 21 151.5 75.5 c 128,-1,19
 102 130 102 130 102 224 c 0,20,21
 102 265 102 265 111 323 c 2,22,-1
 124 389 l 2,23,24
 151 523 151 523 224.5 600 c 128,-1,25
 298 677 298 677 401 677 c 0,26,27
 495 677 495 677 544.5 622.5 c 128,-1,28
 594 568 594 568 594 474 c 0,29,30
 594 434 594 434 585 375 c 2,31,-1
 572 309 l 2,32,33
 545 176 545 176 472 98.5 c 128,-1,34
 399 21 399 21 295 21 c 0,17,18
584 831 m 1,35,-1
 590 861 l 1,36,-1
 329 861 l 1,37,-1
 323 831 l 1,38,-1
 584 831 l 1,35,-1
EndSplineSet
EndChar

StartChar: omacron
Encoding: 333 333 268
Width: 538
Flags: W
LayerCount: 2
Fore
SplineSet
227 -12 m 0,0,1
 288 -12 288 -12 335.5 15.5 c 128,-1,2
 383 43 383 43 416 91 c 0,3,4
 481 194 481 194 481 332 c 0,5,6
 481 415 481 415 436 467.5 c 128,-1,7
 391 520 391 520 311 520 c 0,8,9
 192 520 192 520 123 417 c 0,10,11
 57 314 57 314 57 176 c 0,12,13
 57 94 57 94 102.5 41 c 128,-1,14
 148 -12 148 -12 227 -12 c 0,0,1
231 19 m 0,15,16
 159 19 159 19 125 63 c 128,-1,17
 91 107 91 107 91 171 c 0,18,19
 91 207 91 207 96 237 c 2,20,-1
 105 285 l 1,21,22
 151 489 151 489 307 489 c 0,23,24
 379 489 379 489 413 444 c 128,-1,25
 447 399 447 399 447 337 c 0,26,27
 447 301 447 301 442 271 c 2,28,-1
 433 223 l 1,29,30
 387 19 387 19 231 19 c 0,15,16
467 653 m 1,31,-1
 473 683 l 1,32,-1
 212 683 l 1,33,-1
 206 653 l 1,34,-1
 467 653 l 1,31,-1
EndSplineSet
EndChar

StartChar: Obreve
Encoding: 334 334 269
Width: 663
Flags: W
LayerCount: 2
Fore
SplineSet
293 -12 m 0,0,1
 406 -12 406 -12 487 67 c 0,2,3
 561 142 561 142 595.5 254.5 c 128,-1,4
 630 367 630 367 630 469 c 0,5,6
 630 585 630 585 567 647.5 c 128,-1,7
 504 710 504 710 403 710 c 0,8,9
 291 710 291 710 210 631 c 0,10,11
 135 556 135 556 101 446 c 0,12,13
 66 331 66 331 66 229 c 0,14,15
 66 111 66 111 129.5 49.5 c 128,-1,16
 193 -12 193 -12 293 -12 c 0,0,1
295 21 m 0,17,18
 201 21 201 21 151.5 75.5 c 128,-1,19
 102 130 102 130 102 224 c 0,20,21
 102 265 102 265 111 323 c 2,22,-1
 124 389 l 2,23,24
 151 523 151 523 224.5 600 c 128,-1,25
 298 677 298 677 401 677 c 0,26,27
 495 677 495 677 544.5 622.5 c 128,-1,28
 594 568 594 568 594 474 c 0,29,30
 594 434 594 434 585 375 c 2,31,-1
 572 309 l 2,32,33
 545 176 545 176 472 98.5 c 128,-1,34
 399 21 399 21 295 21 c 0,17,18
437 781 m 0,35,36
 466 781 466 781 488 791 c 0,37,38
 541 814 541 814 590 902 c 1,39,-1
 566 912 l 1,40,-1
 543 880 l 2,41,42
 516 842 516 842 493 826 c 128,-1,43
 470 810 470 810 438 810 c 0,44,45
 407 810 407 810 388.5 826.5 c 128,-1,46
 370 843 370 843 355 879 c 2,47,-1
 342 912 l 1,48,-1
 318 902 l 1,49,50
 333 849 333 849 358 815 c 128,-1,51
 383 781 383 781 437 781 c 0,35,36
EndSplineSet
EndChar

StartChar: obreve
Encoding: 335 335 270
Width: 538
Flags: W
LayerCount: 2
Fore
SplineSet
227 -12 m 0,0,1
 288 -12 288 -12 335.5 15.5 c 128,-1,2
 383 43 383 43 416 91 c 0,3,4
 481 194 481 194 481 332 c 0,5,6
 481 415 481 415 436 467.5 c 128,-1,7
 391 520 391 520 311 520 c 0,8,9
 192 520 192 520 123 417 c 0,10,11
 57 314 57 314 57 176 c 0,12,13
 57 94 57 94 102.5 41 c 128,-1,14
 148 -12 148 -12 227 -12 c 0,0,1
231 19 m 0,15,16
 159 19 159 19 125 63 c 128,-1,17
 91 107 91 107 91 171 c 0,18,19
 91 207 91 207 96 237 c 2,20,-1
 105 285 l 1,21,22
 151 489 151 489 307 489 c 0,23,24
 379 489 379 489 413 444 c 128,-1,25
 447 399 447 399 447 337 c 0,26,27
 447 301 447 301 442 271 c 2,28,-1
 433 223 l 1,29,30
 387 19 387 19 231 19 c 0,15,16
330 604 m 0,31,32
 358 604 358 604 379 614 c 0,33,34
 433 637 433 637 482 725 c 1,35,-1
 459 735 l 1,36,-1
 436 702 l 2,37,38
 409 664 409 664 386 648.5 c 128,-1,39
 363 633 363 633 330 633 c 0,40,41
 300 633 300 633 281.5 649 c 128,-1,42
 263 665 263 665 248 701 c 2,43,-1
 234 735 l 1,44,-1
 211 725 l 1,45,46
 224 671 224 671 251.5 637.5 c 128,-1,47
 279 604 279 604 330 604 c 0,31,32
EndSplineSet
EndChar

